<?xml version="1.0" encoding="UTF-8"?>
<svg id="Capa_1" data-name="Capa 1" xmlns="http://www.w3.org/2000/svg" viewBox="0 0 276.49 253.23">
  <defs>
    <style>
      .cls-1 {
        fill: #fff;
      }
    </style>
  </defs>
  <path class="cls-1" d="M276.49,0v253.23H0V0h276.49ZM163.75,19.69c-15.52,2.45-30.39,17.31-33.1,32.79-5.37,30.69,18.3,59.96,40.54,78.05,25.43-19.49,55.43-59.98,35.32-92.21-8.68-13.9-26.66-21.18-42.76-18.64ZM78.47,79.13c-6.94.99-14.92,4.96-20.35,9.36-35.46,28.75-2.74,82.13,26.52,101.45,24.88-18.73,54-59.26,35.25-90.84-8.11-13.67-25.67-22.21-41.43-19.97ZM194.45,182.17h-83.98c-2.57,0-2.56,7.75,0,7.75h83.98c5.2,0,13.14-10.87,13.52-16.3,1.09-15.94-14.43-18.21-26.39-18.62-9.75-.34-38.08,4.33-43.18-4.62-2.5-4.4-1.81-8.65,1.71-12.2,4.97-5,12.66-.82,18.77-3.86l-1.46-6.22c-16.61-2.78-30.92,4.72-26.66,23.44,4.05,17.8,45.69,9.57,59.83,11.22,7.11.83,12.14,7.39,8.99,14.22-.29.64-4.79,5.09-5.14,5.19Z"/>
  <path d="M163.75,19.69c16.09-2.54,34.08,4.74,42.76,18.64,20.12,32.23-9.88,72.72-35.32,92.21-22.24-18.1-45.91-47.37-40.54-78.05,2.71-15.49,17.58-30.35,33.1-32.79ZM175.01,118.16c20.09-17.67,44.48-57.52,21.36-81.32-14.67-15.11-41.49-12.7-53.52,4.59-17.87,25.67,8.32,62.15,27.67,79.42,2.26,1.05,3.42-1.74,4.49-2.69Z"/>
  <path d="M78.47,79.13c15.75-2.24,33.31,6.3,41.43,19.97,18.75,31.58-10.37,72.11-35.25,90.84-29.27-19.32-61.98-72.7-26.52-101.45,5.43-4.4,13.41-8.37,20.35-9.36ZM89.98,176.55c12.33-11.4,27.7-34.91,28.85-51.88,2.46-36.09-41.85-52.28-62.53-23.78-18.74,25.83,7.49,62.41,27.2,79.91,1.03.17,5.39-3.25,6.47-4.24Z"/>
  <path d="M194.45,182.17c.35-.1,4.85-4.55,5.14-5.19,3.15-6.83-1.88-13.39-8.99-14.22-14.15-1.66-55.79,6.58-59.83-11.22-4.26-18.73,10.05-26.23,26.66-23.44l1.46,6.22c-6.12,3.04-13.8-1.14-18.77,3.86-3.52,3.54-4.22,7.79-1.71,12.2,5.09,8.96,33.43,4.29,43.18,4.62,11.96.41,27.48,2.69,26.39,18.62-.37,5.43-8.32,16.3-13.52,16.3h-83.98c-2.56,0-2.57-7.75,0-7.75h83.98Z"/>
  <path class="cls-1" d="M175.01,118.16c-1.07.94-2.23,3.74-4.49,2.69-19.35-17.27-45.54-53.75-27.67-79.42,12.04-17.29,38.85-19.7,53.52-4.59,23.12,23.8-1.27,63.65-21.36,81.32ZM167.62,41.66c-20.62,3.35-22.23,33.56-.71,38.86,29.78,7.34,33.8-44.24.71-38.86Z"/>
  <path class="cls-1" d="M89.98,176.55c-1.08,1-5.44,4.41-6.47,4.24-19.71-17.49-45.94-54.07-27.2-79.91,20.68-28.5,64.98-12.31,62.53,23.78-1.16,16.97-16.53,40.49-28.85,51.88ZM82.42,101.05c-25.42,2.52-22.83,41.71,3.47,39.81s23.24-42.46-3.47-39.81Z"/>
  <path d="M167.62,41.66c33.1-5.38,29.08,46.2-.71,38.86-21.53-5.31-19.91-35.51.71-38.86ZM168.91,48.02c-14.77,3.04-13.12,29.64,5.88,25.35,14.9-3.36,10.08-28.63-5.88-25.35Z"/>
  <path d="M82.42,101.05c26.71-2.65,29.46,37.92,3.47,39.81s-28.9-37.28-3.47-39.81ZM75.38,130.05c11.17,10.62,29.65-5.25,18.34-17.69-11.38-12.53-31.33,5.35-18.34,17.69Z"/>
  <path class="cls-1" d="M168.91,48.02c15.96-3.28,20.78,21.99,5.88,25.35-19,4.29-20.65-22.31-5.88-25.35Z"/>
  <path class="cls-1" d="M75.38,130.05c-12.99-12.35,6.96-30.23,18.34-17.69,11.31,12.45-7.17,28.32-18.34,17.69Z"/>
</svg>