<svg width="18" height="18" viewBox="0 0 18 18" fill="none" xmlns="http://www.w3.org/2000/svg">
<path d="M14.2962 6.24805L9.22271 11.2414C9.11201 11.3509 8.96258 11.4123 8.80686 11.4123C8.65115 11.4123 8.50172 11.3509 8.39102 11.2414L3.31646 6.24913C3.2048 6.14019 3.05499 6.07921 2.89899 6.07921C2.74299 6.07921 2.59318 6.14019 2.48152 6.24913C2.42668 6.3026 2.38309 6.36651 2.35332 6.43709C2.32356 6.50768 2.30823 6.5835 2.30823 6.6601C2.30823 6.7367 2.32356 6.81253 2.35332 6.88311C2.38309 6.95369 2.42668 7.0176 2.48152 7.07107L7.55393 12.0633C7.88803 12.3914 8.33755 12.5752 8.80578 12.5752C9.27401 12.5752 9.72353 12.3914 10.0576 12.0633L15.13 7.07107C15.1851 7.01758 15.2288 6.9536 15.2586 6.88292C15.2885 6.81224 15.3039 6.73629 15.3039 6.65956C15.3039 6.58283 15.2885 6.50688 15.2586 6.4362C15.2288 6.36551 15.1851 6.30154 15.13 6.24805C15.0184 6.13911 14.8686 6.07812 14.7126 6.07812C14.5566 6.07812 14.4068 6.13911 14.2951 6.24805" fill="#1F3475"/>
</svg>
