<?xml version="1.0" encoding="UTF-8"?>
<svg id="Capa_1" data-name="Capa 1" xmlns="http://www.w3.org/2000/svg" viewBox="0 0 100.01 100.03">
  <defs>
    <style>
      .cls-1 {
        fill: #fff;
      }
    </style>
  </defs>
  <g id="Layer_6" data-name="Layer 6">
    <path class="cls-1" d="M99.8,45.44c-.1-1.06-1.03-1.84-2.09-1.74-1.06.1-1.84,1.03-1.74,2.09.13,1.41.19,2.84.19,4.26-.03,25.48-20.67,46.12-46.15,46.15v-14.51h-.83c-1.37-.04-2.74-.17-4.1-.38-17.27-2.73-29.05-18.95-26.32-36.22.15-.93.34-1.86.57-2.78.26-1.03,1.3-1.65,2.33-1.4s1.65,1.3,1.4,2.33c-.55,2.22-.83,4.51-.83,6.8-.07,13.69,9.9,25.37,23.44,27.45,1.19.19,2.39.3,3.6.33h.74v-14.5h0c7.35,0,13.29-5.97,13.29-13.31,0-1.76-.35-3.51-1.04-5.14-.47-.96-1.63-1.35-2.58-.88-.88.43-1.3,1.46-.97,2.38,2.02,4.81-.24,10.35-5.05,12.37-1.15.49-2.39.74-3.65.74h0c-5.21,0-9.43-4.22-9.43-9.43s4.22-9.43,9.43-9.43h0c1.25,0,2.5.25,3.65.74,1.01.34,2.1-.2,2.45-1.21.31-.91-.1-1.9-.96-2.34-1.63-.67-3.38-1.01-5.14-1h0v-14.54h1.32c.5,0,1,.06,1.51.11h.34c.49.05,1,.13,1.48.21l.4.06c.51.09,1,.21,1.52.33l.27.06h0c.15.04.31.06.47.06,1.07-.02,1.91-.91,1.89-1.97-.02-.85-.59-1.59-1.42-1.82l-.78-.12c-.39-.08-.78-.18-1.17-.25s-.65-.1-1-.15-.71-.12-1.07-.16-.64-.06-1-.09l-1.12-.08h-1.67V3.9c18.84-.06,35.81,11.37,42.83,28.85.4.99,1.52,1.46,2.5,1.06.99-.4,1.46-1.52,1.07-2.5h0C86.05,5.7,56.92-6.69,31.31,3.64,5.7,13.97-6.69,43.11,3.64,68.72c10.33,25.61,39.46,38,65.07,27.67,18.9-7.62,31.28-25.95,31.3-46.33,0-1.53-.07-3.08-.21-4.61ZM22.85,33.83c1.47-2.45,3.26-4.7,5.33-6.67.9-.86,1.84-1.66,2.83-2.41-.18-.65-.27-1.32-.27-2-.01-4.37,3.52-7.92,7.89-7.93,4.37-.01,7.92,3.52,7.93,7.89.01,4.37-3.52,7.92-7.89,7.93-2.18,0-4.27-.89-5.77-2.48-.72.57-1.43,1.16-2.09,1.79-1.82,1.74-3.4,3.71-4.69,5.86-.35.58-.97.94-1.65.94-.35,0-.7-.09-1-.28-.9-.55-1.18-1.73-.63-2.63,0,0,0,0,0-.01ZM77.8,50.05c.04-9.77-5.09-18.84-13.49-23.83h0c-.91-.55-1.2-1.74-.64-2.65.55-.91,1.74-1.2,2.64-.65.6.36,1.18.74,1.75,1.14,8.48,5.95,13.55,15.64,13.6,26,0,1.5-.11,3-.33,4.49v.13c-.11.75-.25,1.49-.41,2.22h0c-.98,4.47-2.93,8.68-5.71,12.32-.05.06-.1.12-.16.17-2.55,3.3-5.72,6.06-9.34,8.13-.04,2.41-2.03,4.34-4.44,4.29-2.41-.04-4.34-2.03-4.29-4.44.04-2.41,2.03-4.34,4.44-4.29.97.02,1.91.36,2.66.96,8.5-5.01,13.72-14.13,13.72-24Z"/>
  </g>
</svg>