<?xml version="1.0" encoding="UTF-8"?>
<svg id="Layer_1" data-name="Layer 1" xmlns="http://www.w3.org/2000/svg" viewBox="0 0 100.02 100.05">
  <defs>
    <style>
      .cls-1 {
        fill: #2b3486;
      }
    </style>
  </defs>
  <g id="Layer_3" data-name="Layer 3">
    <path class="cls-1" d="M99.82,45.32c-.1-1.1-1-1.8-2.1-1.7s-1.8,1-1.7,2.1c.1,1.4.2,2.8.2,4.3,0,25.5-20.7,46.1-46.2,46.2v-14.5h-.8c-1.4,0-2.7-.2-4.1-.4-17.3-2.9-29.1-19.1-26.3-36.4.1-.9.3-1.9.6-2.8.3-1,1.3-1.7,2.3-1.4s1.7,1.3,1.4,2.3h0c-.6,2.2-.8,4.5-.8,6.8-.1,13.7,9.9,25.4,23.4,27.4,1.2.2,2.4.3,3.6.3h.7v-14.3h0c7.3,0,13.3-6,13.3-13.3,0-1.8-.4-3.5-1-5.1-.5-1-1.6-1.4-2.6-.9-.9.4-1.3,1.5-1,2.4,2,4.8-.2,10.4-5.1,12.4-1.2.5-2.4.7-3.6.7h0c-5.2,0-9.4-4.2-9.4-9.4s4.2-9.4,9.4-9.4h0c1.3,0,2.5.2,3.7.7,1,.3,2.1-.2,2.4-1.2.3-.9-.1-1.9-1-2.3-1.6-.7-3.4-1-5.1-1h0v-14.7h1.3c.5,0,1,.1,1.5.1h.3c.5,0,1,.1,1.5.2l.4.1c.5.1,1,.2,1.5.3l.3.1h0c.2,0,.3.1.5.1,1.1,0,1.9-.9,1.9-2,0-.9-.6-1.6-1.4-1.8l-.8-.1c-.4-.1-.8-.2-1.2-.2s-.7-.1-1-.2-.7-.1-1.1-.2-.6-.1-1-.1l-1.1-.1h-1.6V3.82c18.8-.1,35.8,11.4,42.8,28.9.4,1,1.5,1.5,2.5,1.1s1.5-1.5,1.1-2.5h0C86.12,5.72,56.92-6.68,31.32,3.62S-6.68,43.12,3.62,68.72s39.5,38,65.1,27.7c18.9-7.6,31.3-26,31.3-46.3,0-1.7-.1-3.3-.2-4.8ZM22.82,33.72c1.5-2.5,3.3-4.7,5.3-6.7.9-.9,1.8-1.7,2.8-2.4-.2-.7-.3-1.3-.3-2,0-4.4,3.5-7.9,7.9-7.9s7.9,3.5,7.9,7.9-3.5,7.9-7.9,7.9c-2.2,0-4.3-.9-5.8-2.5-.7.6-1.4,1.2-2.1,1.8-1.8,1.7-3.4,3.7-4.7,5.9-.3.6-1,.9-1.7.9-.4,0-.7-.1-1-.3-.6-.5-.9-1.7-.4-2.6h0ZM77.82,49.92c0-9.8-5.1-18.8-13.5-23.8h0c-.9-.6-1.2-1.7-.6-2.6.6-.9,1.7-1.2,2.6-.6.6.4,1.2.7,1.8,1.1,8.5,5.9,13.6,15.6,13.6,26,0,1.5-.1,3-.3,4.5v.1c-.1.8-.2,1.5-.4,2.2h0c-1,4.5-2.9,8.7-5.7,12.3,0,.1-.1.1-.2.2-2.5,3.3-5.7,6.1-9.3,8.1,0,2.4-2,4.3-4.4,4.3s-4.3-2-4.3-4.4,2-4.3,4.4-4.3c1,0,1.9.4,2.7,1,8.4-5.1,13.6-14.2,13.6-24.1Z"/>
  </g>
</svg>