<svg width="24" height="24" viewBox="0 0 24 24" fill="none" xmlns="http://www.w3.org/2000/svg">
<path d="M8.557 13.5H4.682C4.16859 13.5029 3.6772 13.7089 3.3152 14.073C2.95319 14.437 2.74999 14.9296 2.75 15.443V19.318C2.75 19.8304 2.95355 20.3218 3.31587 20.6841C3.67819 21.0464 4.1696 21.25 4.682 21.25H8.557C9.07032 21.25 9.56277 21.0468 9.92668 20.6847C10.2906 20.3227 10.4964 19.8313 10.499 19.318V15.443C10.4987 14.928 10.294 14.4342 9.92991 14.0701C9.56577 13.706 9.07197 13.5013 8.557 13.501M14.449 17.295L16.096 18.942C16.1539 19.0007 16.2228 19.0473 16.2989 19.0792C16.3749 19.111 16.4566 19.1274 16.539 19.1274C16.6214 19.1274 16.7031 19.111 16.7791 19.0792C16.8552 19.0473 16.9241 19.0007 16.982 18.942L20.302 15.623M8.557 2.75H4.682C4.42829 2.75 4.17706 2.79997 3.94266 2.89706C3.70825 2.99416 3.49527 3.13647 3.31587 3.31587C3.13647 3.49527 2.99416 3.70825 2.89706 3.94266C2.79997 4.17706 2.75 4.42829 2.75 4.682V8.557C2.74999 9.07032 2.95322 9.56277 3.31526 9.92668C3.67729 10.2906 4.16868 10.4964 4.682 10.499H8.557C9.07205 10.499 9.56601 10.2944 9.9302 9.9302C10.2944 9.56601 10.499 9.07205 10.499 8.557V4.682C10.4964 4.16886 10.2907 3.67762 9.92703 3.31561C9.56334 2.9536 9.07015 2.75026 8.557 2.75ZM19.318 2.75H15.443C14.9297 2.74999 14.4372 2.95322 14.0733 3.31526C13.7094 3.67729 13.5036 4.16868 13.501 4.682V8.557C13.5013 9.07197 13.706 9.56577 14.0701 9.92991C14.4342 10.294 14.928 10.4987 15.443 10.499H19.318C19.8313 10.4964 20.3227 10.2906 20.6847 9.92668C21.0468 9.56277 21.25 9.07032 21.25 8.557V4.682C21.25 4.1696 21.0464 3.67819 20.6841 3.31587C20.3218 2.95355 19.8304 2.75 19.318 2.75Z" stroke="#1F3475" stroke-width="1.5" stroke-linecap="round" stroke-linejoin="round"/>
</svg>
