<?xml version="1.0" encoding="iso-8859-1"?>
<!-- Uploaded to: SVG Repo, www.svgrepo.com, Generator: SVG Repo Mixer Tools -->
<svg fill="#000000" height="800px" width="800px" version="1.1" id="Layer_1" xmlns="http://www.w3.org/2000/svg" xmlns:xlink="http://www.w3.org/1999/xlink" 
	 viewBox="0 0 501.337 501.337" xml:space="preserve">
<g>
	<g>
		<path d="M496.962,2.031c-2.773-2.027-6.4-2.56-9.6-1.493L330.669,52.804L173.975,0.537c-1.067-0.32-2.133-0.533-3.2-0.533h-0.107
			h-0.107c-1.067,0-2.133,0.213-3.2,0.533l-160,53.333c-4.373,1.387-7.36,5.547-7.36,10.133v426.24c0,3.307,1.387,6.613,3.947,8.64
			c2.987,2.453,6.827,2.987,10.133,1.92l156.693-52.267l156.693,52.267c1.067,0.32,2.133,0.533,3.2,0.533h0.107h0.107
			c1.067,0,2.133-0.213,3.2-0.533l160-53.333c4.373-1.493,7.253-5.547,7.253-10.133V10.671
			C501.335,7.257,499.735,4.057,496.962,2.031z M74.669,458.137l-53.333,17.813V285.017l53.333-17.813V458.137z M160.002,429.657
			l-64,21.333V260.164l64-21.333V429.657z M160.002,216.324l-64,21.333v-85.227l64-18.453V216.324z M160.002,111.897l-77.653,22.4
			c-4.587,1.28-7.68,5.547-7.68,10.24v100.267l-53.333,17.813V71.684l138.667-46.187V111.897z M320.002,475.951l-53.333-17.707
			V341.017l53.333,21.76V475.951z M320.002,339.737l-59.947-24.427c-5.44-2.24-11.733,0.427-13.867,5.867
			c-0.533,1.28-0.747,2.667-0.747,4.053v125.867l-64-21.333V238.866l138.56,46.151V339.737z M320.002,262.511l-138.667-46.187
			V25.497l138.667,46.187V262.511z M341.335,179.097l64-21.653v83.733l-64,21.333V179.097z M480.002,429.657l-138.667,46.187
			V285.017l138.667-46.187V429.657z M480.002,216.324l-53.333,17.813v-83.84l53.333-18.027V216.324z M480.002,109.764
			l-138.667,46.827V71.684l138.667-46.187V109.764z"/>
	</g>
</g>
</svg>