<?xml version="1.0" encoding="UTF-8"?>
<svg id="Capa_1" data-name="Capa 1" xmlns="http://www.w3.org/2000/svg" viewBox="0 0 196 196">
  <defs>
    <style>
      .cls-1 {
        fill: #aaa;
      }

      .cls-2 {
        stroke-width: 2px;
      }

      .cls-2, .cls-3, .cls-4, .cls-5, .cls-6 {
        fill: none;
      }

      .cls-2, .cls-3, .cls-4, .cls-6 {
        stroke-miterlimit: 10;
      }

      .cls-2, .cls-6 {
        stroke: #e8e8e8;
      }

      .cls-3 {
        stroke-width: .3px;
      }

      .cls-3, .cls-4, .cls-5 {
        stroke: #d8d8d8;
      }

      .cls-4 {
        stroke-width: .5px;
      }

      .cls-5 {
        stroke-dasharray: 2 1 2 1;
        stroke-linejoin: round;
      }

      .cls-5, .cls-6 {
        stroke-width: 5px;
      }

      .cls-6 {
        stroke-dasharray: 39.67 14.88;
      }
    </style>
  </defs>
  <g id="Externo">
    <circle class="cls-6" cx="98" cy="98" r="95.5"/>
  </g>
  <circle class="cls-2" cx="98" cy="98" r="68"/>
  <circle class="cls-4" cx="98" cy="98" r="89.85"/>
  <circle class="cls-4" cx="98" cy="98" r="78"/>
  <circle class="cls-4" cx="98" cy="98" r="74"/>
  <g id="Central">
    <g id="grupo3_1">
      <path class="cls-4" d="M133.96,36.56c-2.79-1.53-6.1-3.13-9.9-4.56-3.64-1.37-7.02-2.33-10.01-3.01l4.48-20.07c3.84.85,8.17,2.04,12.83,3.76,4.89,1.8,9.14,3.81,12.73,5.75l-10.12,18.13Z"/>
      <path class="cls-3" d="M125.13,17.19c-.7-.27-1.51-.46-2.32-.69-.7-.2-1.48-.41-2.19-.51l.39-2.11c1.21.22,1.52.29,2.42.53s1.52.45,2.26.77l-.56,2.01Z"/>
      <path class="cls-3" d="M131.6,19.56c-.68-.32-1.47-.57-2.26-.87-.68-.25-1.45-.53-2.14-.68l.55-2.07c1.19.31,1.5.41,2.37.71s1.48.57,2.19.94l-.71,1.96Z"/>
      <path class="cls-3" d="M138.16,22.66c-.64-.39-1.41-.72-2.16-1.1-.65-.32-1.38-.67-2.06-.9l.77-2.01c1.15.44,1.45.56,2.28.96s1.41.72,2.08,1.17l-.92,1.88Z"/>
    </g>
    <g id="grupo3_1-2" data-name="grupo3_1">
      <path class="cls-4" d="M109.3,27.91c-3.15-.48-6.8-.84-10.87-.88-3.88-.04-7.39.22-10.44.61l-2.69-20.38c3.89-.53,8.37-.89,13.34-.88,5.21.01,9.89.44,13.93,1.02l-3.27,20.51Z"/>
      <path class="cls-3" d="M94.35,12.76c-.75-.01-1.58.09-2.42.15-.72.05-1.53.12-2.23.27l-.36-2.12c1.21-.21,1.53-.25,2.45-.34s1.58-.1,2.39-.05l.17,2.08Z"/>
      <path class="cls-3" d="M101.23,12.77c-.75-.07-1.58-.03-2.42-.04-.72,0-1.54,0-2.24.1l-.19-2.14c1.22-.11,1.55-.13,2.47-.15s1.58.03,2.38.13v2.09Z"/>
      <path class="cls-3" d="M108.46,13.42c-.73-.15-1.57-.19-2.4-.29-.72-.08-1.53-.16-2.24-.13l.03-2.15c1.23.02,1.55.03,2.47.11s1.57.19,2.36.38l-.21,2.08Z"/>
    </g>
    <g id="grupo3_1-3" data-name="grupo3_1">
      <path class="cls-4" d="M75.53,31.32c-3,1.07-6.38,2.5-9.98,4.4-3.43,1.82-6.4,3.72-8.89,5.51l-12.07-16.65c3.17-2.31,6.94-4.77,11.31-7.12,4.59-2.47,8.91-4.32,12.74-5.73l6.88,19.59Z"/>
      <path class="cls-3" d="M55.17,25.11c-.67.34-1.34.83-2.05,1.28-.61.39-1.29.84-1.83,1.3l-1.32-1.69c.97-.76,1.23-.95,2-1.46s1.35-.84,2.07-1.18l1.14,1.75Z"/>
      <path class="cls-3" d="M61.22,21.84c-.69.29-1.4.73-2.15,1.12-.64.34-1.35.73-1.93,1.16l-1.19-1.79c1.02-.68,1.3-.85,2.11-1.3s1.41-.73,2.16-1.02l1,1.84Z"/>
      <path class="cls-3" d="M67.9,18.98c-.72.22-1.47.58-2.25.89-.67.27-1.42.59-2.04.95l-.99-1.9c1.09-.57,1.38-.71,2.23-1.08s1.48-.58,2.25-.79l.8,1.93Z"/>
    </g>
    <g id="grupo3_1-4" data-name="grupo3_1">
      <path class="cls-4" d="M49.46,47.06c-2.26,2.24-4.72,4.97-7.17,8.22-2.34,3.1-4.21,6.08-5.71,8.76l-17.99-9.95c1.89-3.44,4.26-7.27,7.22-11.25,3.11-4.18,6.23-7.7,9.1-10.59l14.55,14.82Z"/>
      <path class="cls-3" d="M28.38,50.08c-.46.59-.86,1.32-1.31,2.03-.39.61-.81,1.31-1.11,1.96l-1.92-.97c.55-1.09.71-1.38,1.19-2.17s.86-1.33,1.37-1.95l1.77,1.1Z"/>
      <path class="cls-3" d="M32.48,44.55c-.5.56-.96,1.25-1.47,1.93-.43.58-.91,1.24-1.25,1.86l-1.83-1.12c.64-1.05.81-1.32,1.35-2.07s.96-1.26,1.52-1.84l1.68,1.24Z"/>
      <path class="cls-3" d="M37.3,39.12c-.56.5-1.09,1.15-1.66,1.76-.49.53-1.04,1.14-1.44,1.72l-1.71-1.3c.74-.98.94-1.23,1.56-1.92s1.09-1.15,1.7-1.67l1.55,1.41Z"/>
    </g>
    <g id="grupo3_1-5" data-name="grupo3_1">
      <path class="cls-4" d="M31.91,74.08c-1,3.02-1.97,6.56-2.69,10.57-.69,3.82-1.02,7.33-1.14,10.39l-20.55-.76c.13-3.93.52-8.41,1.36-13.3.88-5.14,2.09-9.68,3.34-13.56l19.67,6.66Z"/>
      <path class="cls-3" d="M14.47,86.28c-.14.74-.17,1.57-.26,2.41-.07.72-.14,1.53-.1,2.24h-2.15c0-1.23,0-1.55.08-2.48s.17-1.58.35-2.36l2.08.19Z"/>
      <path class="cls-3" d="M15.63,79.5c-.2.72-.29,1.55-.44,2.38-.13.71-.25,1.52-.28,2.23l-2.14-.17c.09-1.22.13-1.55.27-2.46s.29-1.56.53-2.33l2.06.35Z"/>
      <path class="cls-3" d="M17.49,72.48c-.27.7-.45,1.51-.69,2.32-.2.7-.41,1.48-.51,2.19l-2.11-.39c.22-1.21.29-1.53.52-2.42s.45-1.52.77-2.26l2.01.56Z"/>
    </g>
    <g id="grupo3_1-6" data-name="grupo3_1">
      <path class="cls-4" d="M157.33,58.47c-1.8-2.63-4.03-5.54-6.78-8.54-2.63-2.86-5.21-5.25-7.58-7.21l13.05-15.89c3.04,2.48,6.37,5.51,9.75,9.14,3.55,3.81,6.44,7.53,8.76,10.87l-17.21,11.62Z"/>
      <path class="cls-3" d="M158.19,37.2c-.5-.56-1.15-1.09-1.76-1.66-.53-.49-1.14-1.04-1.72-1.44l1.3-1.71c.98.74,1.23.94,1.92,1.56s1.15,1.09,1.67,1.71l-1.41,1.54Z"/>
      <path class="cls-3" d="M162.88,42.23c-.46-.59-1.06-1.18-1.63-1.79-.49-.53-1.05-1.12-1.61-1.57l1.43-1.6c.92.82,1.15,1.04,1.79,1.71s1.06,1.18,1.53,1.83l-1.52,1.43Z"/>
      <path class="cls-3" d="M167.34,47.96c-.39-.64-.93-1.28-1.43-1.95-.43-.58-.93-1.23-1.43-1.73l1.59-1.44c.83.91,1.04,1.15,1.61,1.88s.93,1.28,1.33,1.98l-1.66,1.26Z"/>
    </g>
    <g id="grupo3_1-7" data-name="grupo3_1">
      <path class="cls-4" d="M168,89.06c-.39-3.16-1.03-6.77-2.1-10.7-1.02-3.75-2.22-7.06-3.42-9.88l18.89-8.12c1.56,3.6,3.13,7.82,4.46,12.6,1.4,5.02,2.26,9.64,2.79,13.69l-20.63,2.41Z"/>
      <path class="cls-3" d="M178.53,70.56c-.19-.72-.52-1.49-.8-2.29-.24-.68-.53-1.44-.87-2.07l1.94-.92c.53,1.11.66,1.4.99,2.27s.52,1.5.7,2.28l-1.96.72Z"/>
      <path class="cls-3" d="M180.39,77.19c-.13-.74-.4-1.53-.62-2.34-.19-.7-.42-1.48-.7-2.13l2.01-.77c.44,1.15.55,1.45.81,2.34s.4,1.53.52,2.33l-2.01.57Z"/>
      <path class="cls-3" d="M181.72,84.33c-.05-.75-.24-1.56-.37-2.39-.12-.71-.26-1.52-.48-2.2l2.07-.55c.32,1.18.39,1.5.56,2.41s.24,1.57.27,2.37l-2.06.36Z"/>
    </g>
    <g id="grupo3_1-8" data-name="grupo3_1">
      <path class="cls-4" d="M62.68,159.16c2.79,1.53,6.1,3.13,9.9,4.56,3.64,1.37,7.02,2.33,10.01,3.01l-4.48,20.07c-3.84-.85-8.17-2.04-12.83-3.76-4.89-1.8-9.14-3.81-12.73-5.75l10.12-18.13Z"/>
      <path class="cls-3" d="M71.51,178.53c.7.27,1.51.46,2.32.69.7.2,1.48.41,2.19.51l-.39,2.11c-1.21-.22-1.52-.29-2.42-.53s-1.52-.45-2.26-.77l.56-2.01Z"/>
      <path class="cls-3" d="M65.05,176.15c.68.32,1.47.57,2.26.87.68.25,1.45.53,2.14.68l-.55,2.07c-1.19-.31-1.5-.41-2.37-.71s-1.48-.57-2.19-.94l.71-1.96Z"/>
      <path class="cls-3" d="M58.49,173.05c.64.39,1.41.72,2.16,1.1.65.32,1.38.67,2.06.9l-.77,2.01c-1.15-.44-1.45-.56-2.28-.96s-1.41-.72-2.08-1.17l.92-1.88Z"/>
    </g>
    <g id="grupo3_1-9" data-name="grupo3_1">
      <path class="cls-4" d="M87.35,167.8c3.15.48,6.8.84,10.87.88,3.88.04,7.39-.22,10.44-.61l2.69,20.38c-3.89.53-8.37.89-13.34.88-5.21-.01-9.89-.44-13.93-1.02l3.27-20.51Z"/>
      <path class="cls-3" d="M102.3,182.95c.75.01,1.58-.09,2.42-.15.72-.05,1.53-.12,2.23-.27l.36,2.12c-1.21.21-1.53.25-2.45.34s-1.58.1-2.39.05l-.17-2.08Z"/>
      <path class="cls-3" d="M95.42,182.95c.75.07,1.58.03,2.42.04.72,0,1.54,0,2.24-.1l.19,2.14c-1.22.11-1.55.13-2.47.15s-1.58-.03-2.38-.13v-2.09Z"/>
      <path class="cls-3" d="M88.19,182.29c.73.15,1.57.19,2.4.29.72.08,1.53.16,2.24.13l-.03,2.15c-1.23-.02-1.55-.03-2.47-.11s-1.57-.19-2.36-.38l.21-2.08Z"/>
    </g>
    <g id="grupo3_1-10" data-name="grupo3_1">
      <path class="cls-4" d="M121.12,164.39c3-1.07,6.38-2.5,9.98-4.4,3.43-1.82,6.4-3.72,8.89-5.51l12.07,16.65c-3.17,2.31-6.94,4.77-11.31,7.12-4.59,2.47-8.91,4.32-12.74,5.73l-6.88-19.59Z"/>
      <path class="cls-3" d="M141.48,170.61c.67-.34,1.34-.83,2.05-1.28.61-.39,1.29-.84,1.83-1.3l1.32,1.69c-.97.76-1.23.95-2,1.46s-1.35.84-2.07,1.18l-1.14-1.75Z"/>
      <path class="cls-3" d="M135.42,173.88c.69-.29,1.4-.73,2.15-1.12.64-.34,1.35-.73,1.93-1.16l1.19,1.79c-1.02.68-1.3.85-2.11,1.3s-1.41.73-2.16,1.02l-1-1.84Z"/>
      <path class="cls-3" d="M128.75,176.74c.72-.22,1.47-.58,2.25-.89.67-.27,1.42-.59,2.04-.95l.99,1.9c-1.09.57-1.38.71-2.23,1.08s-1.48.58-2.25.79l-.8-1.93Z"/>
    </g>
    <g id="grupo3_1-11" data-name="grupo3_1">
      <path class="cls-4" d="M147.19,148.66c2.26-2.24,4.72-4.97,7.17-8.22,2.34-3.1,4.21-6.08,5.71-8.76l17.99,9.95c-1.89,3.44-4.26,7.27-7.22,11.25-3.11,4.18-6.23,7.7-9.1,10.59l-14.55-14.82Z"/>
      <path class="cls-3" d="M168.26,145.64c.46-.59.86-1.32,1.31-2.03.39-.61.81-1.31,1.11-1.96l1.92.97c-.55,1.09-.71,1.38-1.19,2.17s-.86,1.33-1.37,1.95l-1.77-1.1Z"/>
      <path class="cls-3" d="M164.17,151.17c.5-.56.96-1.25,1.47-1.93.43-.58.91-1.24,1.25-1.86l1.83,1.12c-.64,1.05-.81,1.32-1.35,2.07s-.96,1.26-1.52,1.84l-1.68-1.24Z"/>
      <path class="cls-3" d="M159.34,156.59c.56-.5,1.09-1.15,1.66-1.76.49-.53,1.04-1.14,1.44-1.72l1.71,1.3c-.74.98-.94,1.23-1.56,1.92s-1.09,1.15-1.7,1.67l-1.55-1.41Z"/>
    </g>
    <g id="grupo3_1-12" data-name="grupo3_1">
      <path class="cls-4" d="M164.74,121.64c1-3.02,1.97-6.56,2.69-10.57.69-3.82,1.02-7.33,1.14-10.39l20.55.76c-.13,3.93-.52,8.41-1.36,13.3-.88,5.14-2.09,9.68-3.34,13.56l-19.67-6.66Z"/>
      <path class="cls-3" d="M182.18,109.43c.14-.74.17-1.57.26-2.41.07-.72.14-1.53.1-2.24h2.15c0,1.23,0,1.55-.08,2.48s-.17,1.58-.35,2.36l-2.08-.19Z"/>
      <path class="cls-3" d="M181.02,116.22c.2-.72.29-1.55.44-2.38.13-.71.25-1.52.28-2.23l2.14.17c-.09,1.22-.13,1.55-.27,2.46s-.29,1.56-.53,2.33l-2.06-.35Z"/>
      <path class="cls-3" d="M179.16,123.24c.27-.7.45-1.51.69-2.32.2-.7.41-1.48.51-2.19l2.11.39c-.22,1.21-.29,1.53-.52,2.42s-.45,1.52-.77,2.26l-2.01-.56Z"/>
    </g>
    <g id="grupo3_1-13" data-name="grupo3_1">
      <path class="cls-4" d="M39.32,137.24c1.8,2.63,4.03,5.54,6.78,8.54,2.63,2.86,5.21,5.25,7.58,7.21l-13.05,15.89c-3.04-2.48-6.37-5.51-9.75-9.14-3.55-3.81-6.44-7.53-8.76-10.87l17.21-11.62Z"/>
      <path class="cls-3" d="M38.46,158.51c.5.56,1.15,1.09,1.76,1.66.53.49,1.14,1.04,1.72,1.44l-1.3,1.71c-.98-.74-1.23-.94-1.92-1.56s-1.15-1.09-1.67-1.71l1.41-1.54Z"/>
      <path class="cls-3" d="M33.76,153.48c.46.59,1.06,1.18,1.63,1.79.49.53,1.05,1.12,1.61,1.57l-1.43,1.6c-.92-.82-1.15-1.04-1.79-1.71s-1.06-1.18-1.53-1.83l1.52-1.43Z"/>
      <path class="cls-3" d="M29.31,147.75c.39.64.93,1.28,1.43,1.95.43.58.93,1.23,1.43,1.73l-1.59,1.44c-.83-.91-1.04-1.15-1.61-1.88s-.93-1.28-1.33-1.98l1.66-1.26Z"/>
    </g>
    <g id="grupo3_1-14" data-name="grupo3_1">
      <path class="cls-4" d="M28.65,106.65c.39,3.16,1.03,6.77,2.1,10.7,1.02,3.75,2.22,7.06,3.42,9.88l-18.89,8.12c-1.56-3.6-3.13-7.82-4.46-12.6-1.4-5.02-2.26-9.64-2.79-13.69l20.63-2.41Z"/>
      <path class="cls-3" d="M18.12,125.15c.19.72.52,1.49.8,2.29.24.68.53,1.44.87,2.07l-1.94.92c-.53-1.11-.66-1.4-.99-2.27s-.52-1.5-.7-2.28l1.96-.72Z"/>
      <path class="cls-3" d="M16.25,118.53c.13.74.4,1.53.62,2.34.19.7.42,1.48.7,2.13l-2.01.77c-.44-1.15-.55-1.45-.81-2.34s-.4-1.53-.52-2.33l2.01-.57Z"/>
      <path class="cls-3" d="M14.93,111.39c.05.75.24,1.56.37,2.39.12.71.26,1.52.48,2.2l-2.07.55c-.32-1.18-.39-1.5-.56-2.41s-.24-1.57-.27-2.37l2.06-.36Z"/>
    </g>
  </g>
  <circle id="Interno" class="cls-5" cx="98" cy="98" r="62.5"/>
  <g>
    <path class="cls-1" d="M52.44,92.31h-4.47v3.77h5.29v2.38h-8.16v-14.22h8.14v2.39h-5.27v3.36h4.47v2.31Z"/>
    <path class="cls-1" d="M64.55,93.73c-.07,1.62-.53,2.85-1.37,3.68s-2.02,1.25-3.55,1.25c-1.61,0-2.84-.53-3.7-1.59s-1.28-2.57-1.28-4.53v-2.39c0-1.95.44-3.46,1.33-4.52s2.12-1.59,3.69-1.59,2.73.43,3.53,1.3,1.26,2.11,1.37,3.73h-2.88c-.03-1-.18-1.69-.46-2.08s-.8-.57-1.56-.57-1.31.27-1.63.81-.49,1.42-.51,2.65v2.69c0,1.41.16,2.38.47,2.91s.86.79,1.63.79,1.28-.18,1.56-.55.45-1.03.49-2h2.87Z"/>
    <path class="cls-1" d="M76.33,92.63c0,1.91-.45,3.39-1.35,4.44s-2.15,1.58-3.75,1.58-2.85-.52-3.76-1.57-1.37-2.51-1.39-4.39v-2.43c0-1.95.45-3.48,1.36-4.58s2.16-1.65,3.77-1.65,2.83.54,3.74,1.62,1.37,2.59,1.39,4.54v2.43ZM73.45,90.25c0-1.28-.18-2.24-.55-2.86s-.93-.94-1.7-.94-1.32.3-1.69.9-.55,1.52-.57,2.75v2.53c0,1.24.19,2.16.56,2.75s.94.88,1.72.88,1.31-.29,1.67-.86.55-1.47.56-2.68v-2.47Z"/>
    <path class="cls-1" d="M84.4,94.73c0-.58-.15-1.02-.44-1.31s-.83-.6-1.62-.92c-1.43-.54-2.45-1.17-3.08-1.9s-.94-1.58-.94-2.57c0-1.2.42-2.16,1.27-2.89s1.93-1.09,3.24-1.09c.87,0,1.65.18,2.33.55s1.21.89,1.58,1.56.55,1.43.55,2.29h-2.86c0-.66-.14-1.17-.42-1.52s-.69-.52-1.23-.52c-.5,0-.89.15-1.17.44s-.42.69-.42,1.2c0,.39.16.74.47,1.06s.87.64,1.66.98c1.39.5,2.39,1.12,3.02,1.85s.94,1.66.94,2.78c0,1.24-.39,2.2-1.18,2.9s-1.86,1.04-3.21,1.04c-.92,0-1.75-.19-2.51-.57s-1.35-.92-1.77-1.62-.64-1.53-.64-2.49h2.88c0,.82.16,1.42.48,1.79s.84.56,1.56.56c1,0,1.5-.53,1.5-1.59Z"/>
    <path class="cls-1" d="M92.19,98.46h-2.87v-14.22h2.87v14.22Z"/>
    <path class="cls-1" d="M100.61,94.73c0-.58-.15-1.02-.44-1.31-.3-.3-.83-.6-1.62-.92-1.43-.54-2.45-1.17-3.08-1.9s-.94-1.58-.94-2.57c0-1.2.42-2.16,1.27-2.89s1.93-1.09,3.24-1.09c.87,0,1.65.18,2.33.55s1.21.89,1.58,1.56c.37.67.55,1.43.55,2.29h-2.86c0-.66-.14-1.17-.42-1.52s-.69-.52-1.23-.52c-.5,0-.89.15-1.17.44s-.42.69-.42,1.2c0,.39.16.74.47,1.06s.87.64,1.66.98c1.39.5,2.39,1.12,3.02,1.85.63.73.94,1.66.94,2.78,0,1.24-.39,2.2-1.18,2.9-.79.7-1.86,1.04-3.21,1.04-.92,0-1.75-.19-2.51-.57s-1.35-.92-1.77-1.62-.64-1.53-.64-2.49h2.88c0,.82.16,1.42.48,1.79s.84.56,1.56.56c1,0,1.5-.53,1.5-1.59Z"/>
    <path class="cls-1" d="M114.61,86.64h-3.52v11.83h-2.88v-11.83h-3.46v-2.39h9.85v2.39Z"/>
    <path class="cls-1" d="M123.61,92.31h-4.47v3.77h5.29v2.38h-8.17v-14.22h8.15v2.39h-5.27v3.36h4.47v2.31Z"/>
    <path class="cls-1" d="M129.83,84.25l2.69,10.28,2.68-10.28h3.75v14.22h-2.88v-3.85l.26-5.93-2.84,9.78h-1.95l-2.84-9.78.26,5.93v3.85h-2.87v-14.22h3.75Z"/>
    <path class="cls-1" d="M148.03,95.55h-3.92l-.76,2.91h-3.04l4.44-14.22h2.63l4.47,14.22h-3.07l-.76-2.91ZM144.74,93.16h2.66l-1.33-5.07-1.33,5.07Z"/>
    <path class="cls-1" d="M45.22,103.84l2.88,6.9,2.9-6.9h.88v7.82h-.66v-3.41l.05-3.49-2.91,6.9h-.51l-2.9-6.87.05,3.44v3.43h-.66v-7.82h.88Z"/>
    <path class="cls-1" d="M54.67,111.66h-.66v-7.82h.66v7.82Z"/>
    <path class="cls-1" d="M62.62,111.66h-.66l-4.5-6.69v6.69h-.67v-7.82h.67l4.5,6.7v-6.7h.66v7.82Z"/>
    <path class="cls-1" d="M65.41,111.66h-.66v-7.82h.66v7.82Z"/>
    <path class="cls-1" d="M71.96,109.74c0-.43-.15-.78-.46-1.03-.3-.25-.86-.49-1.67-.72-.81-.23-1.4-.48-1.77-.74-.53-.38-.79-.88-.79-1.49s.25-1.08.74-1.46c.49-.38,1.12-.56,1.89-.56.52,0,.98.1,1.39.3.41.2.73.48.95.84.23.36.34.76.34,1.2h-.67c0-.54-.18-.96-.55-1.29s-.86-.49-1.47-.49-1.07.13-1.43.4c-.35.27-.53.62-.53,1.05,0,.4.16.72.48.97s.83.47,1.53.66c.7.19,1.23.39,1.6.6s.63.45.82.74c.18.29.27.62.27,1.02,0,.62-.25,1.11-.74,1.48-.49.37-1.14.56-1.95.56-.55,0-1.06-.1-1.52-.3-.46-.2-.81-.47-1.05-.83-.24-.35-.36-.76-.36-1.22h.66c0,.55.21.99.62,1.3.41.32.96.48,1.64.48.61,0,1.1-.13,1.47-.4s.55-.62.55-1.07Z"/>
    <path class="cls-1" d="M79.35,104.4h-2.68v7.26h-.66v-7.26h-2.67v-.56h6.02v.56Z"/>
    <path class="cls-1" d="M84.93,107.92h-3.66v3.19h4.21v.56h-4.87v-7.82h4.84v.56h-4.18v2.95h3.66v.56Z"/>
    <path class="cls-1" d="M89.79,108.4h-2.27v3.26h-.67v-7.82h2.54c.83,0,1.49.2,1.96.61.47.4.7.97.7,1.7,0,.5-.15.94-.44,1.32s-.69.65-1.18.79l1.96,3.33v.07h-.7l-1.89-3.26ZM87.52,107.84h2.02c.56,0,1-.16,1.34-.47.34-.32.5-.72.5-1.23,0-.55-.18-.98-.53-1.29s-.84-.46-1.48-.46h-1.86v3.44Z"/>
    <path class="cls-1" d="M94.66,111.66h-.66v-7.82h.66v7.82Z"/>
    <path class="cls-1" d="M102.56,108.18c0,.72-.12,1.35-.37,1.9-.25.54-.6.96-1.07,1.26-.46.29-1,.44-1.6.44-.91,0-1.65-.33-2.21-.98s-.84-1.54-.84-2.65v-.81c0-.71.13-1.34.38-1.89.25-.55.61-.97,1.07-1.27.46-.3.99-.44,1.6-.44s1.13.14,1.59.43c.46.29.82.7,1.07,1.23.25.53.38,1.14.39,1.84v.93ZM101.9,107.33c0-.94-.21-1.68-.64-2.21-.43-.53-1.01-.8-1.75-.8s-1.31.27-1.74.8c-.43.54-.65,1.28-.65,2.24v.82c0,.93.21,1.66.64,2.21.43.54,1.01.81,1.75.81s1.33-.27,1.75-.8.63-1.28.63-2.24v-.83Z"/>
    <path class="cls-1" d="M110.24,108.48v3.19h-.66v-7.82h2.66c.81,0,1.45.21,1.93.62.47.42.71.99.71,1.71s-.23,1.3-.68,1.7-1.11.6-1.97.6h-1.99ZM110.24,107.92h2c.64,0,1.13-.15,1.47-.46.34-.3.5-.73.5-1.27s-.17-.97-.5-1.29c-.33-.32-.81-.49-1.43-.49h-2.05v3.52Z"/>
    <path class="cls-1" d="M121.74,103.84v5.34c0,.53-.12.98-.35,1.38-.23.39-.55.69-.97.9-.42.21-.9.31-1.44.31-.82,0-1.48-.22-1.98-.67-.5-.45-.75-1.07-.77-1.87v-5.39h.66v5.29c0,.66.19,1.17.56,1.53.38.36.89.54,1.53.54s1.15-.18,1.53-.55c.37-.37.56-.87.56-1.53v-5.3h.67ZM119.67,101.72h.78l-1.24,1.5h-.56s1.03-1.5,1.03-1.5Z"/>
    <path class="cls-1" d="M123.58,111.66v-7.82h2.31c.84,0,1.47.17,1.91.52.43.35.65.86.65,1.53,0,.4-.11.76-.33,1.06-.22.3-.52.51-.91.64.46.1.82.32,1.1.67.28.35.42.75.42,1.2,0,.69-.22,1.23-.67,1.62-.45.39-1.07.58-1.86.58h-2.62ZM124.24,107.35h1.8c.55-.01.98-.14,1.28-.39.3-.25.45-.61.45-1.09,0-.5-.16-.87-.47-1.11-.31-.24-.79-.36-1.42-.36h-1.65v2.95ZM124.24,107.91v3.2h1.98c.57,0,1.01-.14,1.35-.43.33-.29.5-.69.5-1.2,0-.48-.16-.86-.47-1.15-.32-.28-.75-.42-1.31-.42h-2.04Z"/>
    <path class="cls-1" d="M130.98,111.11h3.86v.56h-4.53v-7.82h.67v7.26Z"/>
    <path class="cls-1" d="M136.92,111.66h-.66v-7.82h.66v7.82Z"/>
    <path class="cls-1" d="M144.58,109.23c-.09.82-.38,1.45-.88,1.89-.5.44-1.17.66-2,.66-.58,0-1.09-.15-1.54-.44-.45-.29-.79-.7-1.03-1.23-.24-.53-.37-1.14-.37-1.82v-1.02c0-.69.12-1.31.37-1.85.24-.54.59-.95,1.05-1.24.46-.29.98-.44,1.58-.44.84,0,1.5.23,1.98.68s.77,1.08.85,1.87h-.67c-.16-1.33-.89-1.99-2.16-1.99-.71,0-1.27.26-1.69.79-.42.53-.63,1.26-.63,2.2v.96c0,.9.21,1.62.62,2.16.41.54.96.81,1.66.81s1.21-.17,1.56-.5.57-.83.65-1.49h.67Z"/>
    <path class="cls-1" d="M151.96,108.18c0,.72-.12,1.35-.37,1.9-.25.54-.6.96-1.07,1.26-.46.29-1,.44-1.6.44-.91,0-1.65-.33-2.21-.98s-.84-1.54-.84-2.65v-.81c0-.71.13-1.34.38-1.89.25-.55.61-.97,1.07-1.27.46-.3.99-.44,1.6-.44s1.13.14,1.59.43.82.7,1.07,1.23c.25.53.38,1.14.39,1.84v.93ZM151.3,107.33c0-.94-.21-1.68-.64-2.21-.43-.53-1.01-.8-1.75-.8s-1.31.27-1.74.8-.65,1.28-.65,2.24v.82c0,.93.21,1.66.64,2.21.43.54,1.01.81,1.75.81s1.33-.27,1.75-.8.63-1.28.63-2.24v-.83Z"/>
  </g>
</svg>