<svg xmlns="http://www.w3.org/2000/svg" id="Capa_1" viewBox="0 0 40 40">
    <path
        d="M20 0C8.95 0 0 8.95 0 20c0 3.41.85 6.61 2.35 9.42.48.37.98.73 1.49 1.07 4 2.65 8.73 4.09 13.56 4.09 1.86 0 3.73-.21 5.58-.65.52-.12 1.04-.26 1.56-.42.37-.11.74-.23 1.11-.37.42-.15.83-.31 1.24-.49.17-.07.35-.15.52-.23-.02-.08-.04-.17-.04-.25 0-.55.45-1 1-1s1 .45 1 1-.45 1-1 1c-.23 0-.44-.08-.61-.21v.03c-.35.16-.71.32-1.07.46-.14.06-.28.11-.42.17-1.37.52-2.76.91-4.16 1.18-.08.02-.16.03-.24.05-1.49.27-2.98.4-4.47.4-4.97 0-9.82-1.48-13.93-4.2-.09-.06-.18-.12-.27-.19C6.76 36.36 12.95 40 20 40c11.05 0 20-8.95 20-20S31.05 0 20 0Zm1.06 4.63c1.53 0 2.77 1.24 2.77 2.77s-1.24 2.77-2.77 2.77-2.77-1.24-2.77-2.77 1.24-2.77 2.77-2.77Zm-8.78 23.32c-.79-.26-1.52-.66-2.13-1.22-.61-.56-1.09-1.26-1.39-2.03-.3-.77-.43-1.61-.43-2.48 0-.95.77-1.72 1.72-1.72s1.72.77 1.72 1.72c0 .53.08.93.2 1.23.12.31.27.52.5.73.23.21.5.37.88.49s.87.2 1.48.2c.66 0 1.18-.13 1.66-.38.47-.25.77-.54 1.03-.96.24-.42.37-.87.37-1.49v-9.48c0-.95.77-1.72 1.72-1.72s1.72.77 1.72 1.72v9.5c0 1.14-.28 2.27-.85 3.23-.56.96-1.4 1.74-2.4 2.26-.99.52-2.1.77-3.24.76-.9 0-1.75-.11-2.54-.37Zm19.25-.68c-.09.21-.21.39-.37.55-.16.16-.34.28-.55.37-.1.04-.21.08-.32.1-.11.02-.23.03-.35.03H16.29h.02c1.14 0 2.25-.25 3.24-.76 1-.51 1.83-1.29 2.4-2.26.58-.97.86-2.09.85-3.23v-9.51c0-.65-.37-1.22-.91-1.51.24-.13.51-.21.81-.21.95 0 1.72.77 1.72 1.72v9.64c.02.54.14.96.37 1.34.25.42.56.71 1.03.96.41.21.86.33 1.39.36s2.73.01 2.73.01c.59 0 1.11.3 1.42.76.19.27.29.6.29.96 0 .24-.05.46-.14.67Z"
        fill="var(--p-primary-color)" />
    <path
        d="M21.06 9.29c.52 0 .99-.21 1.33-.55.34-.34.55-.81.55-1.33s-.21-.99-.55-1.33c-.34-.34-.81-.55-1.33-.55s-.99.21-1.33.55c-.34.34-.55.81-.55 1.33s.21.99.55 1.33c.34.34.81.55 1.33.55Z"
        fill="var(--p-primary-color)" />
</svg>