<?xml version="1.0" encoding="UTF-8"?>
<svg id="Capa_1" data-name="Capa 1" xmlns="http://www.w3.org/2000/svg" viewBox="0 0 221.71 130.58">
  <g>
    <path d="M16.14,98.49H6.48v6.09h11.42v4.73H.33v-25.49h17.6v4.75H6.48v5.38h9.66v4.55Z"/>
    <path d="M41.02,100.68c-.08,1.77-.56,3.34-1.44,4.7-.88,1.36-2.1,2.41-3.69,3.16-1.58.75-3.39,1.12-5.42,1.12-3.35,0-5.99-1.09-7.91-3.27s-2.89-5.26-2.89-9.24v-1.26c0-2.5.43-4.68,1.3-6.56.87-1.87,2.12-3.32,3.76-4.34s3.53-1.53,5.67-1.53c3.09,0,5.58.81,7.46,2.44s2.95,3.87,3.2,6.73h-6.13c-.05-1.55-.44-2.67-1.17-3.34s-1.86-1.02-3.36-1.02-2.65.57-3.36,1.72c-.71,1.14-1.09,2.97-1.12,5.48v1.8c0,2.72.34,4.66,1.02,5.83.68,1.17,1.86,1.75,3.53,1.75,1.41,0,2.49-.33,3.24-1,.75-.67,1.14-1.72,1.19-3.17h6.11Z"/>
    <path d="M65.52,97.09c0,2.49-.46,4.69-1.38,6.6-.92,1.91-2.23,3.39-3.93,4.42s-3.63,1.55-5.8,1.55-4.1-.5-5.78-1.5-2.99-2.42-3.93-4.28c-.94-1.86-1.43-3.99-1.48-6.39v-1.44c0-2.5.46-4.7,1.38-6.61.92-1.91,2.23-3.38,3.94-4.42,1.71-1.04,3.66-1.56,5.84-1.56s4.08.51,5.78,1.54c1.69,1.03,3.01,2.49,3.95,4.39.94,1.9,1.42,4.07,1.43,6.52v1.17ZM59.27,96.02c0-2.53-.42-4.46-1.27-5.77-.85-1.31-2.06-1.97-3.63-1.97-3.08,0-4.71,2.31-4.88,6.93l-.02,1.87c0,2.5.41,4.42,1.24,5.76.83,1.34,2.06,2.01,3.69,2.01s2.75-.66,3.59-1.98c.84-1.32,1.27-3.21,1.28-5.69v-1.17Z"/>
    <path d="M81.83,102.54c0-.9-.32-1.6-.95-2.1-.64-.5-1.75-1.02-3.35-1.56-1.6-.54-2.91-1.06-3.92-1.56-3.3-1.62-4.96-3.85-4.96-6.69,0-1.41.41-2.66,1.23-3.74s1.99-1.92,3.49-2.52c1.5-.6,3.2-.9,5.08-.9s3.48.33,4.93.98,2.58,1.58,3.39,2.79c.8,1.21,1.21,2.59,1.21,4.14h-6.13c0-1.04-.32-1.84-.95-2.42-.64-.57-1.5-.86-2.58-.86s-1.96.24-2.6.73c-.64.48-.95,1.1-.95,1.85,0,.65.35,1.25,1.05,1.78s1.93,1.08,3.69,1.65c1.76.57,3.21,1.18,4.34,1.83,2.75,1.59,4.13,3.78,4.13,6.57,0,2.23-.84,3.98-2.52,5.25-1.68,1.27-3.99,1.91-6.92,1.91-2.07,0-3.94-.37-5.61-1.11s-2.94-1.76-3.78-3.05c-.85-1.29-1.27-2.78-1.27-4.46h6.16c0,1.37.35,2.37,1.06,3.02.71.65,1.85.97,3.44.97,1.02,0,1.82-.22,2.41-.66.59-.44.88-1.05.88-1.85Z"/>
    <path d="M97.68,109.31h-6.13v-25.49h6.13v25.49Z"/>
    <path d="M115.1,102.54c0-.9-.32-1.6-.95-2.1-.64-.5-1.75-1.02-3.35-1.56s-2.91-1.06-3.92-1.56c-3.3-1.62-4.95-3.85-4.95-6.69,0-1.41.41-2.66,1.23-3.74.82-1.08,1.99-1.92,3.49-2.52,1.51-.6,3.2-.9,5.08-.9s3.48.33,4.93.98c1.45.65,2.58,1.58,3.39,2.79.81,1.21,1.21,2.59,1.21,4.14h-6.13c0-1.04-.32-1.84-.95-2.42-.64-.57-1.5-.86-2.58-.86s-1.96.24-2.6.73c-.64.48-.96,1.1-.96,1.85,0,.65.35,1.25,1.05,1.78s1.93,1.08,3.69,1.65c1.76.57,3.21,1.18,4.34,1.83,2.76,1.59,4.13,3.78,4.13,6.57,0,2.23-.84,3.98-2.52,5.25-1.68,1.27-3.99,1.91-6.92,1.91-2.07,0-3.94-.37-5.61-1.11s-2.94-1.76-3.78-3.05c-.85-1.29-1.27-2.78-1.27-4.46h6.16c0,1.37.35,2.37,1.06,3.02.71.65,1.85.97,3.44.97,1.02,0,1.82-.22,2.41-.66s.88-1.05.88-1.85Z"/>
    <path d="M144.41,88.57h-7.65v20.75h-6.14v-20.75h-7.51v-4.75h21.31v4.75Z"/>
    <path d="M162.81,98.49h-9.66v6.09h11.42v4.73h-17.56v-25.49h17.6v4.75h-11.45v5.38h9.66v4.55Z"/>
    <path d="M175.13,83.82l5.69,17.74,5.67-17.74h8.09v25.49h-6.16v-5.95l.59-12.19-6.16,18.14h-4.06l-6.18-18.16.6,12.2v5.95h-6.15v-25.49h8.07Z"/>
    <path d="M213.29,104.55h-8.42l-1.47,4.76h-6.57l9.35-25.49h5.78l9.42,25.49h-6.6l-1.49-4.76ZM206.33,99.81h5.48l-2.75-8.84-2.73,8.84Z"/>
  </g>
  <g>
    <path d="M2.98,121.05l2.1,6.55,2.09-6.55h2.99v9.41h-2.27v-2.2l.22-4.5-2.27,6.69h-1.5l-2.28-6.7.22,4.5v2.2H0v-9.41h2.98Z"/>
    <path d="M19.31,130.45h-2.26v-9.41h2.26v9.41Z"/>
    <path d="M34.03,130.45h-2.25l-3.33-5.85v5.85h-2.27v-9.41h2.27l3.33,5.85v-5.85h2.26v9.41Z"/>
    <path d="M43.18,130.45h-2.26v-9.41h2.26v9.41Z"/>
    <path d="M54.9,127.95c0-.33-.12-.59-.35-.78-.23-.18-.65-.38-1.24-.57-.59-.2-1.07-.39-1.45-.58-1.22-.6-1.83-1.42-1.83-2.47,0-.52.15-.98.46-1.38s.73-.71,1.29-.93,1.18-.33,1.87-.33,1.28.12,1.82.36c.54.24.95.58,1.25,1.03.3.45.45.96.45,1.53h-2.26c0-.38-.12-.68-.35-.89s-.55-.32-.95-.32-.72.09-.96.27c-.24.18-.35.41-.35.68,0,.24.13.46.39.66.26.2.71.4,1.36.61s1.18.43,1.6.67c1.02.59,1.52,1.39,1.52,2.42,0,.82-.31,1.47-.93,1.94s-1.47.7-2.55.7c-.76,0-1.45-.14-2.07-.41-.62-.27-1.08-.65-1.4-1.12-.31-.48-.47-1.02-.47-1.64h2.27c0,.5.13.88.39,1.11.26.24.68.36,1.27.36.38,0,.67-.08.89-.24.22-.16.33-.39.33-.68Z"/>
    <path d="M71.01,122.8h-2.82v7.66h-2.27v-7.66h-2.77v-1.75h7.86v1.75Z"/>
    <path d="M83.09,126.46h-3.57v2.25h4.21v1.74h-6.48v-9.41h6.49v1.75h-4.23v1.98h3.57v1.68Z"/>
    <path d="M93.45,127.13h-1.23v3.33h-2.27v-9.41h3.7c1.12,0,1.99.25,2.62.74.63.5.94,1.19.94,2.1,0,.65-.13,1.2-.4,1.63-.27.43-.68.78-1.24,1.05l1.96,3.8v.1h-2.43l-1.66-3.33ZM92.23,125.38h1.43c.43,0,.75-.11.97-.34.22-.23.33-.54.33-.95s-.11-.72-.33-.96c-.22-.23-.54-.35-.97-.35h-1.43v2.59Z"/>
    <path d="M106.3,130.45h-2.26v-9.41h2.26v9.41Z"/>
    <path d="M121.14,125.94c0,.92-.17,1.73-.51,2.44-.34.71-.82,1.25-1.45,1.63-.63.38-1.34.57-2.14.57s-1.51-.18-2.13-.55c-.62-.37-1.1-.9-1.45-1.58s-.53-1.47-.55-2.36v-.53c0-.92.17-1.73.51-2.44.34-.71.82-1.25,1.45-1.63s1.35-.58,2.16-.58,1.51.19,2.13.57c.62.38,1.11.92,1.46,1.62.35.7.52,1.5.53,2.41v.43ZM118.83,125.55c0-.93-.16-1.64-.47-2.13s-.76-.73-1.34-.73c-1.14,0-1.74.85-1.8,2.56v.69c0,.92.15,1.63.45,2.12.31.5.76.74,1.36.74.57,0,1.01-.24,1.32-.73.31-.49.47-1.19.47-2.1v-.43Z"/>
    <path d="M138.46,127.26v3.19h-2.27v-9.41h3.75c.72,0,1.36.13,1.91.4.55.27.98.64,1.29,1.13.3.49.46,1.04.46,1.66,0,.92-.33,1.65-.99,2.2-.66.55-1.56.82-2.7.82h-1.45ZM138.46,125.51h1.49c.44,0,.77-.11,1-.33s.35-.53.35-.93c0-.44-.12-.79-.36-1.05s-.56-.4-.97-.4h-1.51v2.71Z"/>
    <path d="M157.47,121.05v6.16c0,.7-.15,1.3-.45,1.81-.3.51-.72.9-1.28,1.17-.56.27-1.21.4-1.97.4-1.15,0-2.05-.3-2.71-.89-.66-.59-1-1.41-1.01-2.44v-6.2h2.28v6.25c.03,1.03.5,1.54,1.43,1.54.47,0,.83-.13,1.07-.39s.36-.68.36-1.26v-6.15h2.27ZM154.02,118.53h2.3l-1.8,2.03h-1.78s1.27-2.03,1.27-2.03Z"/>
    <path d="M164.18,130.45v-9.41h3.38c1.21,0,2.13.22,2.76.67s.95,1.09.95,1.93c0,.49-.11.9-.34,1.25s-.55.6-.99.76c.49.13.87.37,1.13.72s.39.78.39,1.29c0,.92-.29,1.61-.88,2.08-.58.46-1.45.7-2.59.71h-3.82ZM166.45,124.97h1.18c.5,0,.85-.1,1.06-.27s.32-.44.32-.78c0-.4-.11-.68-.34-.86-.23-.18-.6-.26-1.11-.26h-1.11v2.18ZM166.45,126.45v2.26h1.49c.41,0,.72-.09.94-.28s.33-.45.33-.79c0-.78-.39-1.18-1.17-1.18h-1.59Z"/>
    <path d="M180.28,128.71h3.95v1.74h-6.22v-9.41h2.27v7.66Z"/>
    <path d="M192.89,130.45h-2.26v-9.41h2.26v9.41Z"/>
    <path d="M207.38,127.27c-.03.66-.21,1.23-.53,1.74-.32.5-.78.89-1.36,1.17-.58.28-1.25.41-2,.41-1.24,0-2.21-.4-2.92-1.21s-1.07-1.94-1.07-3.41v-.47c0-.92.16-1.73.48-2.42.32-.69.78-1.23,1.39-1.6.6-.38,1.3-.57,2.09-.57,1.14,0,2.06.3,2.75.9.69.6,1.09,1.43,1.18,2.48h-2.26c-.02-.57-.16-.98-.43-1.23s-.69-.38-1.24-.38-.98.21-1.24.63c-.26.42-.4,1.1-.41,2.02v.67c0,1,.13,1.72.38,2.15s.69.65,1.3.65c.52,0,.92-.12,1.2-.37.28-.25.42-.64.44-1.17h2.25Z"/>
    <path d="M221.71,125.94c0,.92-.17,1.73-.51,2.44-.34.71-.82,1.25-1.45,1.63-.63.38-1.34.57-2.14.57s-1.51-.18-2.13-.55c-.62-.37-1.1-.9-1.45-1.58s-.53-1.47-.55-2.36v-.53c0-.92.17-1.73.51-2.44.34-.71.82-1.25,1.45-1.63.63-.38,1.35-.58,2.15-.58s1.51.19,2.13.57c.62.38,1.11.92,1.46,1.62s.52,1.5.53,2.41v.43ZM219.4,125.55c0-.93-.16-1.64-.47-2.13s-.76-.73-1.34-.73c-1.14,0-1.74.85-1.8,2.56v.69c0,.92.15,1.63.45,2.12.31.5.76.74,1.36.74.57,0,1.01-.24,1.32-.73.31-.49.47-1.19.47-2.1v-.43Z"/>
  </g>
  <path d="M172.3,22.14c.24-.72.33-1.46.33-2.24,0-13.09-31.08-19.9-61.82-19.9s-61.79,6.81-61.79,19.9c0,.78.15,1.52.39,2.24h-.39v37.23c0,5.68,4.6,10.28,10.28,10.28V31.34c.27.15.51.3.81.42,1.2.52,2.5,1.04,3.87,1.55,4.66,1.76,7.72,6.26,7.72,11.24v4.09s0,.02,0,.03c0,0,0,0,0-.01v.6s0,0,0,.01c-.15,2.36-5.53,4.24-7.92,4.24,2.39,0,7.77,1.85,7.92,4.27,0,0,0,0,0,.01v.58s0,0,0,.01v11.26h5.96s20.11.01,20.11.01h0s6.88-.01,6.88-.01v-29.97c.18,0,.36.03.48.03,1.88.03,3.79.09,5.68.09,1.73,0,3.29.69,4.42,1.82,1.14,1.14,1.82,2.69,1.82,4.39v22.5c0,.63.51,1.14,1.14,1.14h8.01c.63,0,1.14-.51,1.14-1.14v-21.6c0-4.39,3.29-8.1,7.68-8.64,1.76-.21,3.47-.45,4.72-.66v32.03h10.28v-7.93s0,.02,0,.03v-1.84c.62-2.71,2.98-4.73,5.82-4.83.1.03.21.03.31.03s.21,0,.31-.03c3.14.14,5.66,2.55,5.95,5.65v8.93c5.68,0,10.28-4.6,10.28-10.28V22.14h-.39ZM60.1,24.2c-.3-.18-.54-.36-.81-.51l-2.18-1.55c-.84-.78-1.28-1.58-1.28-2.24,0-4.45,19.3-13,54.8-13.03,35.65.03,55.16,8.58,55.16,13.03,0,.66-.45,1.46-1.31,2.24l-2.06,1.49c-2.3,1.46-5.71,2.93-10.28,4.27.03-.18.03-.39.03-.57,0-8.01-20.8-12.22-41.29-12.22s-41.32,4.21-41.32,12.22c0,.21,0,.39.06.6-4.03-1.17-7.23-2.45-9.5-3.74ZM121.89,37.5v-.15c0-.54-.12-1.11-.3-1.58-.63-1.7-2.27-2.93-4.24-2.93h-.3c-2.09.06-4.24.09-6.48.09-1.82,0-3.65-.03-5.44-.06-3.59-.12-6.99-.27-10.22-.54-4.48-.36-8.58-.87-12.28-1.46-3.17-.54-6.01-1.11-8.61-1.73-.69-.63-1.08-1.2-1.08-1.79,0-3.59,14.79-8.78,37.92-8.78s37.89,5.2,37.89,8.78c0,.57-.36,1.17-1.05,1.76-2.42.57-5.08,1.14-7.98,1.61-3.74.6-7.89,1.14-12.4,1.52-.24.03-.48.03-.72.09-.06-.06-.15-.06-.21-.06-.3,0-.6.06-.93.12,0,0-.03,0-.06.03-1.67.33-3.02,1.64-3.41,3.32-.09.36-.12.69-.12,1.08,0,.21,0,.45.06.66t-.06.03ZM88.18,68.84c-3.43,0-6.2-2.78-6.2-6.2v-1.61h0v-16.93c0-3.41,2.98-6.05,6.36-5.64l1.78.21c2.43.29,4.26,2.36,4.26,4.81v19.5c-.15,3.27-2.85,5.86-6.2,5.86ZM150.01,50.87v-4.65s0-.06,0-.06c.03-6.1,3.88-11.56,9.59-13.69,1.11-.39,2.09-.78,2.81-1.14v19.53h-12.4Z"/>
</svg>