<svg width="16" height="16" viewBox="0 0 16 16" fill="none" xmlns="http://www.w3.org/2000/svg">
<g clip-path="url(#clip0_28_70)">
<path d="M15.0908 4.08543C15.1052 3.99621 15.0928 3.9047 15.0551 3.82256C14.9391 3.31267 14.5705 3.04956 13.9476 3.04956H1.97762C1.42976 3.04956 0.839534 3.25098 0.549275 3.64622C0.52417 3.66533 0.50023 3.68696 0.478606 3.71206C0.385824 3.8191 0.353367 3.95676 0.374099 4.08659C0.369955 4.12388 0.366272 4.16141 0.366272 4.20054V11.5667C0.366272 12.3296 1.21499 13.1781 1.97762 13.1781H13.9476C14.7105 13.1781 15.0986 12.3296 15.0986 11.5667V4.20054C15.0986 4.1598 15.0933 4.1241 15.0908 4.08543ZM1.97756 3.97033L13.9476 3.97032H13.9538L7.7324 8.9289L1.53607 3.99057C1.67695 3.96456 1.8503 3.97033 1.97756 3.97033ZM13.9476 12.2573H1.97759C1.72369 12.2573 1.28701 11.8208 1.28701 11.5667V4.97097L7.43086 9.88627C7.51741 9.96109 7.6249 9.99838 7.7324 9.99838C7.8432 9.99848 7.95033 9.95869 8.03418 9.88627L14.1778 4.9712V11.5667C14.1778 11.8208 14.2017 12.2573 13.9476 12.2573Z" fill="#186ABD"/>
</g>
<defs>
<clipPath id="clip0_28_70">
<rect width="14.7323" height="14.7323" fill="white" transform="translate(0.36615 0.747559)"/>
</clipPath>
</defs>
</svg>
