<svg xmlns="http://www.w3.org/2000/svg" fill="none" viewBox="0 0 37 37">
    <path stroke="currentColor" stroke-linecap="round" stroke-linejoin="round"
        d="m23.1797 26.86 1.95 1.95c.25.25.66.25.92 0l1.95-1.95M25.5898 29v-4.6"
    />
    <path stroke="currentColor" stroke-linecap="round" stroke-linejoin="round" stroke-width="1.5"
        d="M23 25c.55 0 1-.45 1-1 0-1.66 1.34-3 3-3 .55 0 1-.45 1-1v-5.17c0-.53-.21-1.04-.59-1.41l-3.83-3.83C23.2 9.21 22.7 9 22.17 9H14c-1.11 0-2 .89-2 2v5h-1c-1.11 0-2 .9-2 2v5c0 1.1.89 2 2 2h1v2c0 1.1.89 2 2 2h7m1-18v3c0 .55.45 1 1 1h3"
    />
    <path stroke="currentColor" stroke-linecap="round" stroke-linejoin="round"
        d="M12 22.79v-4.58h1.38c.76 0 1.38.62 1.38 1.38 0 .76-.62 1.38-1.38 1.38H12m8.25 1.83v-4.58H23m-.37 2.75h-2.38m-4.58-2.73h1.49c1.45 0 2.17.87 2.17 1.93v.71c0 1.07-.72 1.92-2.19 1.92h-1.48v-4.56h.01Z"
    />
</svg>