<?xml version="1.0" encoding="utf-8"?>
<!-- Generator: Adobe Illustrator 27.5.0, SVG Export Plug-In . SVG Version: 6.00 Build 0)  -->
<svg version="1.1" xmlns="http://www.w3.org/2000/svg" xmlns:xlink="http://www.w3.org/1999/xlink" x="0px" y="0px"
	 viewBox="0 0 2200 2200" style="enable-background:new 0 0 2200 2200;" xml:space="preserve">
<g id="background">
	<rect y="0" style="fill:#FFFFFF;" width="2200" height="2200"/>
</g>
<g id="Objects">
	<g>
		<ellipse style="fill:#D3DADD;" cx="1099.998" cy="1920.444" rx="384.56" ry="42.424"/>
		<g>
			<path style="fill:#DD3E3E;" d="M1748.016,879.25c2.503,279.935-172.501,519.33-419.264,612.439l-202.77,412.571
				c-10.605,21.577-41.366,21.577-51.97,0l-202.77-412.571c-245.02-92.451-419.29-329.129-419.29-606.512
				c0-357.266,289.101-647.006,646.124-648.043C1453.706,236.103,1744.837,523.633,1748.016,879.25z"/>
			<circle style="fill:#FFFFFF;" cx="1099.998" cy="885.177" r="510.64"/>
			<path style="fill:#B23B3B;" d="M1748.048,885.182c0,277.38-174.28,514.06-419.29,606.51l-202.775,412.571
				c-10.605,21.577-41.365,21.577-51.97,0l-154.375-314.091l147.956,210.001c9.192,13.046,28.998,11.493,36.044-2.826
				l170.359-346.214c0,0,414-128,414-561c0-270.35-115.78-438.18-202.75-526.11C1644.688,482.082,1748.048,671.562,1748.048,885.182
				z"/>
			<path style="fill:#DDE5E8;" d="M1477.778,541.612c-90.69-82.47-211.19-132.74-343.44-132.74
				c-282.02,0-510.64,228.62-510.64,510.64c0,132.28,50.29,252.8,132.8,343.5c-102.68-93.4-167.14-228.09-167.14-377.83
				c0-282.02,228.62-510.64,510.64-510.64C1249.708,374.542,1384.378,438.972,1477.778,541.612z"/>
			<path style="fill:#DD3E3E;" d="M1384.628,1189.642c-74.49,69.67-174.58,112.32-284.63,112.32
				c-110.04,0-210.13-42.65-284.62-112.32c12.57-44.2,36.27-83.72,67.88-115.32c40.44-40.46,93.86-67.96,153.46-75.76v-31.79
				c-70.16-27.48-120.23-99.38-120.23-183.74v-94.76c0-108.07,82.16-175.66,183.51-175.66c50.67,0,96.55,16.89,129.76,47.31
				c33.2,30.4,53.75,74.32,53.75,128.35v94.76c0,84.36-50.07,156.26-120.23,183.74v31.79
				C1269.458,1012.462,1355.958,1088.872,1384.628,1189.642z"/>
		</g>
	</g>
</g>
</svg>
