<svg width="42" height="37" viewBox="0 0 42 37" fill="none" xmlns="http://www.w3.org/2000/svg">
<path d="M29.215 33.8229C29.3216 34.4472 29.1753 35.084 28.8008 35.6258C28.4263 36.1675 27.8467 36.5808 27.1601 36.7957C26.4735 37.0106 25.722 37.014 25.0329 36.8052C24.3437 36.5964 23.7592 36.1883 23.3783 35.6499L22.1983 33.8845C22.1983 33.8845 28.922 33.864 29.215 33.8229ZM4.66458 33.8845C4.56324 34.5117 4.71672 35.1498 5.09887 35.6901C5.48102 36.2304 6.06818 36.6396 6.76032 36.8478C7.45247 37.056 8.20675 37.0504 8.89467 36.832C9.58258 36.6136 10.1615 36.1958 10.5329 35.6499L11.7129 33.8845H4.66458ZM15.4589 7.41737C16.3546 5.76144 17.6204 4.27483 19.1833 3.04299C20.7463 1.81116 22.5757 0.858398 24.5663 0.239495C23.686 0.0796005 22.7889 -0.000662782 21.8895 4.1218e-06C19.9885 0.0106583 18.1073 0.333427 16.3458 0.951124C13.0578 2.01 10.3782 4.13617 8.87775 6.87681C8.78351 7.07011 8.77769 7.28712 8.86148 7.48399C8.94527 7.68086 9.11242 7.84291 9.32916 7.93741C9.45911 7.99499 9.60287 8.02546 9.7489 8.02636C9.90949 8.02183 10.0662 7.98249 10.2046 7.91194C10.343 7.84139 10.4586 7.74191 10.5408 7.62265C10.797 7.26814 11.1564 6.97792 11.583 6.781C12.0097 6.58407 12.4887 6.48734 12.9721 6.50046C13.4373 6.4977 13.8981 6.57767 14.3259 6.73542C14.7537 6.89316 15.1394 7.1253 15.4589 7.41737ZM29.6427 2.39491C30.102 5.6911 29.4962 9.03281 27.8925 12.0498C28.3587 12.0508 28.8196 12.1346 29.2467 12.2961C29.8959 12.5092 30.4398 12.9098 30.7863 13.4298C31.1327 13.9499 31.2603 14.5574 31.1474 15.1495C31.1163 15.2706 31.1173 15.3962 31.1504 15.5168C31.1835 15.6375 31.2478 15.7501 31.3385 15.8463C31.4291 15.9424 31.5439 16.0195 31.674 16.0719C31.8041 16.1242 31.9463 16.1504 32.0898 16.1485C32.2788 16.1482 32.4633 16.0992 32.6199 16.0078C32.7765 15.9164 32.898 15.7867 32.9689 15.6353C34.9883 11.3382 33.9667 5.61093 29.6427 2.39491ZM24.6375 13.5757C24.7725 13.575 24.9058 13.5496 25.0286 13.5012C25.1514 13.4529 25.2611 13.3827 25.3503 13.2952C27.8135 9.81605 28.7231 5.67999 27.9083 1.66275C27.8798 1.55113 27.8252 1.4457 27.748 1.3529C27.6708 1.26009 27.5725 1.18184 27.4591 1.12294C27.3457 1.06403 27.2196 1.0257 27.0885 1.01028C26.9574 0.994855 26.8241 1.00267 26.6966 1.03324C18.8484 3.12707 16.7339 7.87583 16.1874 9.83965C16.1809 10.0261 16.2392 10.2099 16.355 10.3673C16.4708 10.5247 16.6387 10.6484 16.8368 10.7223C17.0483 10.8 17.2852 10.8088 17.5036 10.7471C17.722 10.6855 17.9071 10.5576 18.0248 10.3871C18.3144 10.0446 18.699 9.77058 19.1432 9.59004C19.5874 9.40951 20.0769 9.32828 20.5669 9.35383C21.1121 9.34812 21.6523 9.4438 22.1508 9.63437C22.7625 9.87185 23.2549 10.2914 23.5384 10.8164C23.8219 11.3415 23.8775 11.937 23.6951 12.4946C23.6254 12.6808 23.635 12.8824 23.7221 13.0631C23.8092 13.2437 23.9682 13.3915 24.1703 13.4799H24.2574C24.3743 13.536 24.5041 13.5687 24.6375 13.5757ZM41.023 19.2414C40.3528 18.6162 39.4233 18.2457 38.4378 18.2111C37.4524 18.1765 36.4911 18.4805 35.7644 19.0566L26.9342 26.084H17.6526C17.7634 20.9794 18.4841 15.5327 22.0241 11.3519C21.8997 11.1501 21.7022 10.9891 21.4618 10.8934C21.1771 10.7865 20.8694 10.7329 20.559 10.736C20.3442 10.7179 20.1275 10.7403 19.9237 10.8018C19.72 10.8632 19.5341 10.9622 19.379 11.0918C19.379 11.1397 19.2998 11.174 19.2681 11.215C16.1478 15.5806 15.3559 20.9862 15.2688 26.0908H3.72216C2.73498 26.0908 1.78824 26.4296 1.0902 27.0327C0.392155 27.6359 0 28.4539 0 29.3068C0 30.1598 0.392155 30.9778 1.0902 31.5809C1.78824 32.184 2.73498 32.5228 3.72216 32.5228H28.3914C29.3282 32.5232 30.2306 32.2177 30.9177 31.6675L40.8012 23.7848C41.5267 23.2068 41.9568 22.4034 41.9969 21.5514C42.037 20.6993 41.6838 19.8684 41.0151 19.2414H41.023Z" fill="#515151"/>
</svg>
