<svg xmlns="http://www.w3.org/2000/svg" fill="none" viewBox="0 0 37 37">
    <path stroke="currentColor" stroke-linecap="round" stroke-linejoin="round" stroke-width="1.5"
        d="M12.8184 27.0461c0-3.1323 2.5497-5.6821 5.682-5.6821 3.1323 0 5.6821 2.5498 5.6821 5.6821m-8.8077-9.9436c0-1.723 1.4026-3.1256 3.1256-3.1256 1.723 0 3.1256 1.4026 3.1256 3.1256 0 1.723-1.4026 3.1256-3.1256 3.1256-1.723 0-3.1256-1.4026-3.1256-3.1256ZM30.9992 24.2052c0-2.9329-1.8641-5.4312-4.4677-6.3924 1.1494-.764 1.9112-2.0702 1.9112-3.5512 0-2.3504-1.9112-4.2616-4.2615-4.2616-1.1382 0-2.1711.4504-2.9374 1.1808-.2823.2711-.5288.578-.7282.9186M16.4836 12.0994c-.2017-.3383-.4459-.6475-.7282-.9186C14.9914 10.4504 13.9562 10 12.818 10c-2.3503 0-4.26152 1.9112-4.26152 4.2616 0 1.481.75955 2.7872 1.91122 3.5512C7.86415 18.774 6 21.2723 6 24.2052"
    />
</svg>