<svg xmlns="http://www.w3.org/2000/svg" viewBox="0 0 500 500"><g id="freepik--background-complete--inject-107"><path d="M375.25,361.79a40.77,40.77,0,0,0-17.45-6c-2.85-.3-6-.21-8.26,1.51a1.73,1.73,0,0,0-.85,1.51,1.86,1.86,0,0,0,.81,1c7.1,5.42,17.84,6.1,25.75,2" style="fill:#e0e0e0"></path><path d="M374.8,361.3a85.13,85.13,0,0,1-11.27-9.92,28.45,28.45,0,0,1-7.07-13.07c-.3-1.48-.39-3.19.56-4.37,9,7,16,16.09,17.78,27.36" style="fill:#e0e0e0"></path><path d="M375.15,361.73a41.11,41.11,0,0,1,.21-14.8c1.13-4.83,3.76-9.46,7.89-12.21,1.55,3.63.88,7.81-.21,11.6a56.18,56.18,0,0,1-7.82,16.45" style="fill:#e0e0e0"></path><path d="M384,377.51c-5.34.65-10,3.46-14,7.08a26.49,26.49,0,0,0-8,13.74c5.25-.32,9.7-4,12.92-8.17s5.46-8.69,9-12.57" style="fill:#e0e0e0"></path><path d="M385.87,380a34.54,34.54,0,0,1,4-32.65c3.05,10.84,1.93,23.07-4,32.65" style="fill:#e0e0e0"></path><path d="M397.51,393.89a25,25,0,0,0-23.86,13.73c-.3.59-.56,1.34-.16,1.87a1.76,1.76,0,0,0,1.58.47c4.7-.31,8.87-3.13,12.31-6.36s6.44-6.94,10.24-9.73" style="fill:#e0e0e0"></path><path d="M397.14,393.13a44.43,44.43,0,0,1-.44-24.83c.87-3.19,2.34-6.56,5.29-8.05a1.06,1.06,0,0,1,.82-.15,1.09,1.09,0,0,1,.51.6,14.93,14.93,0,0,1,1.25,7.12,45.22,45.22,0,0,1-1.12,7.21c-.93,4.41-1.43,9.14-3.84,12.94a26.11,26.11,0,0,0-1.54,2.85c-.46,1-.46,1.3-.88,2.07" style="fill:#e0e0e0"></path><path d="M427.94,397.72c-2.28-8.68.14-19.2,5.61-26.32.41-.52.94-1.09,1.6-1,1,.09,1.27,1.43,1.22,2.44a47.47,47.47,0,0,1-8.43,24.9" style="fill:#e0e0e0"></path><path d="M430.72,399.62c10.55,2.74,22.64.08,31.42-6.39a25.41,25.41,0,0,0-17-2.09c-5.68,1.3-10.87,3.85-14.41,8.48" style="fill:#e0e0e0"></path><path d="M433.06,393.84c5.91-9.63,17.23-15.92,28.51-16.49-1.3,4.59-5.07,8.16-9.32,10.31s-9,3.1-13.69,4c-1.82.35-4.32.74-5.5,2.17" style="fill:#e0e0e0"></path><path d="M428.53,365.79c1.6-5.48,3.21-11,3.65-16.7s-.38-11.63-3.33-16.51c-5.52,10.67-6.08,23.15-.49,33.79" style="fill:#e0e0e0"></path><path d="M447.1,356.4c6.46-11.72,19.62-21.09,32.94-22.4-5.14,12.79-19.15,22.68-32.94,22.4" style="fill:#e0e0e0"></path><path d="M443.05,358.7c9.62,1.47,17.82,7.61,26.81,11.34a12,12,0,0,0,6.06,1.16,4.74,4.74,0,0,0,3-8.39,12.87,12.87,0,0,0-4.4-2.67c-9.8-4.08-20.3-4.18-30.62-1.71" style="fill:#e0e0e0"></path><path d="M437.48,365.45c2.18.62,2.92,1.75,4.65,3.22a50.14,50.14,0,0,0,20.33,10.45c.77.19,1.79.27,2.18-.44s-.09-1.35-.53-1.9a28,28,0,0,0-12.27-8.33c-4.7-1.75-8.76-3.85-14.36-3.4" style="fill:#e0e0e0"></path><path d="M431.19,324.69a38.53,38.53,0,0,0,29.5,10,2.05,2.05,0,0,0,1.35-.49c.74-.8-.15-2.05-1-2.72-8.67-6.77-19.18-9.57-29.83-6.83" style="fill:#e0e0e0"></path><path d="M438.64,322a41.15,41.15,0,0,1,36.82-6.07c-4.64,4.57-11.07,7-17.55,7.7A55.47,55.47,0,0,1,438.64,322" style="fill:#e0e0e0"></path><path d="M435.68,303.23c-.85-8.66-.3-15.49-.9-24.19,0-.69-.19-1.53-.84-1.78-.91-.35-1.66.77-2,1.69A27.71,27.71,0,0,0,435.67,303" style="fill:#e0e0e0"></path><path d="M435.06,304.19c5.87-3.63,10.27-8.37,14.34-13.94,2.83-3.87,5.22-8.52,4.58-13.27-4-.08-7.76,2.11-10.35,5.13a29,29,0,0,0-5.27,10.61c-1.15,3.81-1.95,7.73-3.3,11.47" style="fill:#e0e0e0"></path><path d="M449.15,300.27a115.42,115.42,0,0,0,35.29-20.81c-4.21-1.69-9-.68-13.26,1-9.62,3.89-17.49,10.45-22.21,19.7" style="fill:#e0e0e0"></path><path d="M439,308.92c6.52.72,13.13,1.18,19.6.1s12.36-3.58,18.29-6.08a2.18,2.18,0,0,0,1.25-.94,1.45,1.45,0,0,0-.45-1.57,3.8,3.8,0,0,0-1.56-.73c-6.45-1.8-13.42-1-19.77,1.18a92,92,0,0,0-17.36,8" style="fill:#e0e0e0"></path><path d="M401.82,325c-4.44-9-4.16-19.45-.32-28.69,2.71,4.11,3,9.36,2.54,14.26s-2,9.95-2.08,14.87" style="fill:#e0e0e0"></path><path d="M384.06,316a40,40,0,0,0-29.73,12.67c5.54.87,11.24-.56,16.28-3s9.52-5.91,13.95-9.34" style="fill:#e0e0e0"></path><path d="M372.13,312c-5.43-.44-10.66-1.12-15.88.48s-10,5.23-12.1,10.26A28.74,28.74,0,0,0,359,320,86.57,86.57,0,0,0,372.13,312" style="fill:#e0e0e0"></path><path d="M389.8,312.22c-4.88-3.2-9.9-6.46-15.58-7.78s-12.28-.35-16.25,3.94c4.61,2.7,10.19,3,15.53,3s11.88-.06,16.91,1.72" style="fill:#e0e0e0"></path><path d="M389.83,312.48c-8.35-8.2-11.51-22.93-8.16-34.14a52,52,0,0,1,8.16,34.14" style="fill:#e0e0e0"></path><path d="M412.79,289.25c1.57-3.66,2.68-7.51,4.09-11.23a32.26,32.26,0,0,1,5.84-10.35,15.34,15.34,0,0,1,10.34-5.36,41.64,41.64,0,0,1-20.07,27" style="fill:#e0e0e0"></path><path d="M408.64,294.09C406,290.5,403,285.63,399.48,283s-8.13-4.29-12.44-3.26a29,29,0,0,0,21.6,14.4" style="fill:#e0e0e0"></path><path d="M409.47,289.55c-1.71-4.34-3.43-8.73-4.12-13.34s-.27-9.54,2.09-13.57c4.58,8.67,6.05,18,2.26,27" style="fill:#e0e0e0"></path><path d="M412.83,262.64c2.6-8.59,10.46-14.91,18.95-17.81a7.08,7.08,0,0,1,3.33-.5,2.88,2.88,0,0,1,2.44,2c.31,1.46-.89,2.77-2,3.74a64.32,64.32,0,0,1-22.69,12.53" style="fill:#e0e0e0"></path><path d="M412.93,255.62c.33-5.54.67-11.16,2.47-16.4s5.28-10.17,10.33-12.47c.85,5.59-1.61,11.16-4.59,16s-6.56,9.36-8.35,14.72" style="fill:#e0e0e0"></path><path d="M412.79,259.43c-2.15-6.26-2.37-14.21-6.12-19.66-2.62-3.81-6.81-6.41-9.07-10.45a15.89,15.89,0,0,0,.53,11.86,34.57,34.57,0,0,0,6.93,9.93c2.78,3,5.15,5.19,7.73,8.32" style="fill:#e0e0e0"></path><path d="M412.83,443.76c-.16,0-.31-41.75-.32-93.25s.11-93.26.28-93.26.31,41.75.32,93.26S413,443.76,412.83,443.76Z" style="fill:#e0e0e0"></path><path d="M449.32,318.68a8.9,8.9,0,0,1-1.57.59l-4.32,1.46c-3.64,1.24-8.65,3-14.08,5.27s-10.45,4.18-13.34,6.68a9.83,9.83,0,0,0-2.68,3.54c-.41,1-.48,1.58-.54,1.57a1.28,1.28,0,0,1,0-.43,7,7,0,0,1,.3-1.22,9.5,9.5,0,0,1,2.62-3.78,23.68,23.68,0,0,1,5.79-3.6c2.31-1.08,4.88-2.2,7.6-3.32,5.45-2.24,10.49-4,14.18-5.11,1.84-.58,3.34-1,4.38-1.28A9.85,9.85,0,0,1,449.32,318.68Z" style="fill:#e0e0e0"></path><path d="M461.28,289.31a2.93,2.93,0,0,1-.44.47L459.5,291l-5,4.55L437.85,310.4c-6.5,5.79-12.11,11.31-16,15.48-1.94,2.07-3.48,3.8-4.53,5l-1.21,1.38a2.82,2.82,0,0,1-.45.46,2.81,2.81,0,0,1,.36-.54c.25-.33.62-.83,1.12-1.45,1-1.25,2.49-3,4.4-5.14A211,211,0,0,1,437.45,310c6.52-5.77,12.46-10.95,16.77-14.69,2.11-1.82,3.85-3.31,5.13-4.4.57-.48,1-.86,1.41-1.18A2.41,2.41,0,0,1,461.28,289.31Z" style="fill:#e0e0e0"></path><path d="M430.84,316.28c-.17-.07,1.18-3.21,2.54-7.17s2-7.31,2.18-7.28A24.84,24.84,0,0,1,434,309.3a48.28,48.28,0,0,1-2,5A8.09,8.09,0,0,1,430.84,316.28Z" style="fill:#e0e0e0"></path><path d="M412.87,341.56a7.73,7.73,0,0,1-1-1.17l-2.57-3.28c-2.15-2.79-5.13-6.64-8.47-10.84s-6.41-8-8.63-10.72l-2.63-3.24a7.28,7.28,0,0,1-.9-1.24,7.69,7.69,0,0,1,1.08,1.08c.67.73,1.62,1.8,2.77,3.13,2.31,2.66,5.44,6.4,8.78,10.61s6.27,8.11,8.34,11c1,1.43,1.86,2.59,2.42,3.41A7.62,7.62,0,0,1,412.87,341.56Z" style="fill:#e0e0e0"></path><path d="M404.87,331.29a14.79,14.79,0,0,1-3.35-6.28,17.84,17.84,0,0,1-.76-6.33l.26,0c-.12.48-.2.73-.25.73s0-.28,0-.78l.27,0a27.91,27.91,0,0,0,1.07,6.16C403.18,328.57,405,331.18,404.87,331.29Z" style="fill:#e0e0e0"></path><path d="M394.54,318.29a11.18,11.18,0,0,0-2.34-1.36,15.77,15.77,0,0,0-6.5-.51,40.88,40.88,0,0,0-6.54,1.05,21.09,21.09,0,0,1-2.69.65,9.23,9.23,0,0,1,2.57-1.06,30.27,30.27,0,0,1,6.62-1.25,14.2,14.2,0,0,1,6.7.73A4.16,4.16,0,0,1,394.54,318.29Z" style="fill:#e0e0e0"></path><path d="M392.09,315.14c0,.1-1.36-.54-3.58-1.3a36.18,36.18,0,0,0-18.07-1.38c-2.31.41-3.71.85-3.74.75a3.3,3.3,0,0,1,.95-.41,24.49,24.49,0,0,1,2.7-.76,32,32,0,0,1,18.3,1.4,21.79,21.79,0,0,1,2.56,1.16A3.79,3.79,0,0,1,392.09,315.14Z" style="fill:#e0e0e0"></path><path d="M412.79,301.83a74.93,74.93,0,0,1-2.61-9.08c-1.29-5.06-2.2-9.2-2-9.24s1.33,4,2.61,9.09S413,301.79,412.79,301.83Z" style="fill:#e0e0e0"></path><path d="M413,301.83c-.18.06-.94-2.66-2.9-5.44a23.6,23.6,0,0,0-4.27-4.4,4,4,0,0,1,1.65.85,13.22,13.22,0,0,1,3.11,3.2A12.22,12.22,0,0,1,413,301.83Z" style="fill:#e0e0e0"></path><path d="M412.83,421.5c-.06,0-.19-1-.66-2.77a38.9,38.9,0,0,0-2.79-7.23c-2.88-5.9-8.13-13.37-14.8-20.86-3.31-3.78-6.51-7.34-9.24-10.75a76.14,76.14,0,0,1-6.6-9.52,45.32,45.32,0,0,1-3.33-7.07c-.31-.87-.53-1.55-.66-2a3.62,3.62,0,0,1-.17-.72c.06,0,.36.95,1.05,2.66a51.51,51.51,0,0,0,3.48,6.93,79.56,79.56,0,0,0,6.67,9.39c2.73,3.38,5.94,6.92,9.25,10.7,6.69,7.51,11.93,15.08,14.74,21.07a36.36,36.36,0,0,1,2.63,7.36,17.48,17.48,0,0,1,.37,2.1A3.35,3.35,0,0,1,412.83,421.5Z" style="fill:#e0e0e0"></path><path d="M445.81,384.26a15.81,15.81,0,0,1-1.73,1,38,38,0,0,0-4.49,3,51.55,51.55,0,0,0-5.88,5.37c-2.07,2.19-4.2,4.72-6.37,7.44-4.34,5.45-8.4,10.27-10.84,14.12-1.23,1.91-2.13,3.52-2.72,4.64a13.1,13.1,0,0,1-.95,1.74A2,2,0,0,1,413,421c.13-.31.31-.77.58-1.35a45.52,45.52,0,0,1,2.57-4.77c2.37-3.94,6.4-8.83,10.73-14.27,2.18-2.72,4.33-5.26,6.44-7.44a47.18,47.18,0,0,1,6-5.33A32.1,32.1,0,0,1,444,385c.57-.28,1-.46,1.35-.59A1.6,1.6,0,0,1,445.81,384.26Z" style="fill:#e0e0e0"></path><path d="M446.45,396.34a24.13,24.13,0,0,1-3.65.53,48.07,48.07,0,0,0-8.66,1.71,26,26,0,0,0-7.76,4.07c-1.79,1.38-2.63,2.52-2.72,2.46a3.15,3.15,0,0,1,.55-.84,13.78,13.78,0,0,1,1.9-1.95A23.38,23.38,0,0,1,434,398a38.6,38.6,0,0,1,8.81-1.56A19.66,19.66,0,0,1,446.45,396.34Z" style="fill:#e0e0e0"></path><path d="M424.73,403.78c-.19-.11,1.46-2.62,2.73-6s1.48-6.41,1.7-6.37a6.23,6.23,0,0,1-.06,2A21.12,21.12,0,0,1,428,398a22.16,22.16,0,0,1-2.12,4.24A6,6,0,0,1,424.73,403.78Z" style="fill:#e0e0e0"></path><path d="M456.48,351.82a2.33,2.33,0,0,1-.58.31l-1.72.78c-.75.33-1.66.74-2.69,1.28s-2.24,1.08-3.49,1.83l-2,1.13c-.69.4-1.38.87-2.1,1.33-1.47.89-2.94,2-4.52,3.11a84.58,84.58,0,0,0-9.41,8.28,85.67,85.67,0,0,0-8,9.7c-1.07,1.61-2.11,3.11-2.95,4.61-.43.75-.88,1.44-1.25,2.15l-1.07,2c-.71,1.28-1.22,2.5-1.71,3.55s-.89,2-1.18,2.73-.53,1.29-.72,1.75a3.34,3.34,0,0,1-.29.59,2.67,2.67,0,0,1,.17-.63c.16-.48.37-1.07.62-1.79a29.88,29.88,0,0,1,1.09-2.79c.47-1.06.95-2.3,1.64-3.6l1-2.06c.36-.72.8-1.43,1.23-2.18.82-1.52,1.86-3.05,2.92-4.68a74.53,74.53,0,0,1,17.5-18.11c1.6-1.11,3.09-2.2,4.58-3.08.74-.45,1.43-.92,2.13-1.31l2-1.1c1.27-.74,2.49-1.26,3.55-1.77s2-.89,2.74-1.18l1.77-.68A2.74,2.74,0,0,1,456.48,351.82Z" style="fill:#e0e0e0"></path><path d="M430.39,369.31a4.19,4.19,0,0,1,1.43-2.14A9.11,9.11,0,0,1,437.6,365a16,16,0,0,1,6.09,1.19,8.73,8.73,0,0,1,2.3,1.12,15.08,15.08,0,0,1-2.44-.71,18,18,0,0,0-5.93-1,9.46,9.46,0,0,0-5.52,1.93A17.2,17.2,0,0,0,430.39,369.31Z" style="fill:#e0e0e0"></path><path d="M426.49,373.33c-.17-.09,1.3-2.25,1.64-5.34s-.55-5.52-.37-5.57.4.54.68,1.55a11.16,11.16,0,0,1,.29,4.09,10.86,10.86,0,0,1-1.22,3.91C427,372.9,426.55,373.37,426.49,373.33Z" style="fill:#e0e0e0"></path><path d="M384,427.49c.9,15.95,5.71,32.18,13.11,48.59h32.16c7.05-16.24,11.53-32.45,12.33-48.59Z" style="fill:#e0e0e0"></path><path d="M436.37,453.31c0,.17-10.59.3-23.65.3s-23.65-.13-23.65-.3,10.59-.3,23.65-.3S436.37,453.14,436.37,453.31Z" style="fill:#fafafa"></path><path d="M435.66,459.09c0,.17-9.93.3-22.18.3s-22.17-.13-22.17-.3,9.93-.3,22.17-.3S435.66,458.92,435.66,459.09Z" style="fill:#fafafa"></path><path d="M397.62,438a91.66,91.66,0,0,1,0,14.82c-.17,0-.31-3.31-.31-7.41S397.45,438,397.62,438Z" style="fill:#fafafa"></path><path d="M414.85,438c.17,0,.3,3.44.3,7.68s-.13,7.67-.3,7.67-.3-3.44-.3-7.67S414.68,438,414.85,438Z" style="fill:#fafafa"></path><path d="M431,437.83a102.33,102.33,0,0,1,0,15.66c-.17,0-.3-3.51-.3-7.83S430.86,437.83,431,437.83Z" style="fill:#fafafa"></path><path d="M440.57,438c0,.17-12.42.31-27.74.31s-27.74-.14-27.74-.31,12.41-.3,27.74-.3S440.57,437.8,440.57,438Z" style="fill:#fafafa"></path><rect x="381" y="35.91" width="77.06" height="80.33" style="fill:#e0e0e0"></rect><rect x="375.78" y="35.91" width="77.06" height="80.33" style="fill:#fafafa"></rect><path d="M452.87,116.27H375.76V35.89h77.11Zm-77.07,0h77V35.93h-77Z" style="fill:#e0e0e0"></path><rect x="386.14" y="46.71" width="56.35" height="58.73" style="fill:#fff"></rect><path d="M386.14,105.84a9.71,9.71,0,0,1-1.39,1.61c-.9,1-2.17,2.24-3.58,3.63s-2.72,2.64-3.68,3.53a8.72,8.72,0,0,1-1.63,1.35,8.75,8.75,0,0,1,1.38-1.61c.9-.95,2.17-2.24,3.59-3.64s2.73-2.64,3.69-3.53A8.4,8.4,0,0,1,386.14,105.84Z" style="fill:#e0e0e0"></path><path d="M442.48,105.69a9.06,9.06,0,0,1,1.62,1.39c.95.9,2.24,2.17,3.63,3.58s2.64,2.72,3.53,3.68a8.72,8.72,0,0,1,1.35,1.63,8.75,8.75,0,0,1-1.61-1.38c-.95-.9-2.24-2.17-3.64-3.59s-2.64-2.73-3.53-3.69A8.9,8.9,0,0,1,442.48,105.69Z" style="fill:#e0e0e0"></path><path d="M442.33,46.87a9.06,9.06,0,0,1,1.39-1.62c.9-1,2.16-2.24,3.58-3.63S450,39,451,38.1a8.58,8.58,0,0,1,1.63-1.36,8.75,8.75,0,0,1-1.38,1.61c-.9.95-2.17,2.24-3.59,3.64s-2.73,2.64-3.69,3.53A9.32,9.32,0,0,1,442.33,46.87Z" style="fill:#e0e0e0"></path><path d="M386,47a8.56,8.56,0,0,1-1.62-1.39c-.95-.9-2.24-2.16-3.63-3.58s-2.64-2.72-3.53-3.68a8.72,8.72,0,0,1-1.35-1.63,8.75,8.75,0,0,1,1.61,1.38c.95.9,2.24,2.17,3.64,3.59s2.64,2.73,3.53,3.69A9.32,9.32,0,0,1,386,47Z" style="fill:#e0e0e0"></path><path d="M442.33,105.44s0-.1,0-.28,0-.47,0-.82c0-.74,0-1.8,0-3.17,0-2.78,0-6.83-.06-12,0-10.29-.06-24.94-.11-42.49l.22.22-56.18,0h0l.25-.25c0,21.56,0,41.73,0,58.73l-.21-.21,40.69.11,11.42.06,3,0h1.05a1.15,1.15,0,0,1-.25,0h-.76l-3,0-11.38.06-40.82.11h-.21v-.22c0-17,0-37.17,0-58.73v-.25h.26l56.18,0h.22v.22c-.05,17.6-.09,32.31-.11,42.63,0,5.12-.05,9.15-.06,11.92,0,1.36,0,2.4,0,3.13,0,.34,0,.6,0,.79A2.17,2.17,0,0,1,442.33,105.44Z" style="fill:#e0e0e0"></path><rect x="404.91" y="66.68" width="18.8" height="18.8" style="fill:#ebebeb"></rect><rect x="34.27" y="162.83" width="88" height="127.56" style="fill:#e0e0e0"></rect><rect x="29.86" y="162.83" width="88" height="127.56" style="fill:#f5f5f5"></rect><rect x="40.8" y="176.64" width="66.13" height="99.92" style="fill:#fff"></rect><path d="M106.93,276.57s0-.17,0-.49,0-.8,0-1.42c0-1.25,0-3.09,0-5.48,0-4.79,0-11.77-.06-20.58,0-17.62-.06-42.57-.11-72l.22.22-66.12,0h0l.24-.24c0,37.7,0,72.45,0,99.93l-.19-.19,48.14.1,13.3,0,3.49,0c.79,0,1.2,0,1.2,0l-1.16,0-3.46,0-13.26.05-48.25.1h-.19v-.19c0-27.48,0-62.23,0-99.93v-.24h.25l66.12,0h.22v.22c0,29.45-.08,54.45-.11,72.1,0,8.8,0,15.76-.05,20.54,0,2.36,0,4.19,0,5.43,0,.61,0,1.07,0,1.4S106.93,276.57,106.93,276.57Z" style="fill:#e0e0e0"></path><path d="M118.11,162.83a14.28,14.28,0,0,1-1.56,2.28c-1,1.36-2.48,3.22-4.13,5.23s-3.21,3.8-4.35,5.06a15.42,15.42,0,0,1-1.94,2,15.87,15.87,0,0,1,1.68-2.2l4.24-5.14,4.23-5.14A17.45,17.45,0,0,1,118.11,162.83Z" style="fill:#e0e0e0"></path><path d="M107.27,276.25a81.34,81.34,0,0,0,11.54,14.42" style="fill:#fff"></path><path d="M118.81,290.67a12.73,12.73,0,0,1-2-1.83,63.74,63.74,0,0,1-8.18-10.23,13.83,13.83,0,0,1-1.34-2.36,17.79,17.79,0,0,1,1.62,2.17c1,1.36,2.34,3.22,3.93,5.22s3.11,3.73,4.22,5A19.85,19.85,0,0,1,118.81,290.67Z" style="fill:#e0e0e0"></path><path d="M29.85,290.28l11.53-14.22" style="fill:#fff"></path><path d="M41.38,276.06a91.11,91.11,0,0,1-5.58,7.26,85.48,85.48,0,0,1-5.95,7A91.11,91.11,0,0,1,35.43,283,87.63,87.63,0,0,1,41.38,276.06Z" style="fill:#e0e0e0"></path><path d="M29.86,162.83a78.21,78.21,0,0,1,5.6,6.69,79.4,79.4,0,0,1,5.22,7,80.46,80.46,0,0,1-5.6-6.69A81.92,81.92,0,0,1,29.86,162.83Z" style="fill:#e0e0e0"></path><rect x="64.18" y="196.93" width="22.14" height="62.87" style="fill:#e0e0e0"></rect></g><g id="freepik--Padlock--inject-107"><path d="M75.85,74.66a36.14,36.14,0,0,0-19.73,47.08l22.41,54.7,10-4.11-22.4-54.71a25.23,25.23,0,0,1,46.7-19.12l10.05-4.12A36.12,36.12,0,0,0,75.85,74.66Z" style="fill:#6E9631"></path><g style="opacity:0.30000000000000004"><path d="M75.85,74.66a36.14,36.14,0,0,0-19.73,47.08l22.41,54.7,10-4.11-22.4-54.71a25.23,25.23,0,0,1,46.7-19.12l10.05-4.12A36.12,36.12,0,0,0,75.85,74.66Z"></path></g><rect x="65.15" y="136.1" width="97.29" height="62.42" rx="5.81" transform="translate(-54.91 55.6) rotate(-22.27)" style="fill:#6E9631"></rect><g style="opacity:0.5"><path d="M118.23,156.7a8.13,8.13,0,1,0-6.62,11.13l4.6,11.25,4.11-1.68-4.61-11.25A8.1,8.1,0,0,0,118.23,156.7Z"></path></g><path d="M83.16,207.18c-.21.09-4.32-9.48-9.18-21.36s-8.65-21.58-8.44-21.67,4.32,9.48,9.18,21.37S83.36,207.1,83.16,207.18Z" style="fill:#fafafa"></path><path d="M108.76,171.85a2.77,2.77,0,0,1-1.08-.14,10.14,10.14,0,0,1-2.75-1.19,11.38,11.38,0,0,1-2.73-17.36,9.51,9.51,0,0,1,2.25-2c.6-.37,1-.51,1-.47a25.93,25.93,0,0,0-2.8,2.79,11.28,11.28,0,0,0,2.6,16.53A26.35,26.35,0,0,0,108.76,171.85Z" style="fill:#fafafa"></path><path d="M44.94,181.71l.49-1.42.93,1.18a6.21,6.21,0,0,0,2.88,2l1.42.49-1.18.93a6.34,6.34,0,0,0-2,2.88L47,189.22,46,188.05a6.31,6.31,0,0,0-2.89-2l-1.41-.49,1.17-.93A6.34,6.34,0,0,0,44.94,181.71Z" style="fill:#6E9631"></path><path d="M92.4,125.92l.28-.82.54.68A3.69,3.69,0,0,0,94.9,127l.82.28-.68.55a3.63,3.63,0,0,0-1.19,1.67l-.28.82L93,129.6a3.54,3.54,0,0,0-1.67-1.18l-.83-.29.69-.54A3.68,3.68,0,0,0,92.4,125.92Z" style="fill:#6E9631"></path><path d="M35.33,132.87l.82-2.39,1.57,2a10.48,10.48,0,0,0,4.84,3.42l2.38.82-2,1.57a10.57,10.57,0,0,0-3.43,4.84l-.82,2.38-1.56-2a10.5,10.5,0,0,0-4.84-3.43l-2.38-.82,2-1.56A10.58,10.58,0,0,0,35.33,132.87Z" style="fill:#6E9631"></path></g><g id="freepik--Device--inject-107"><path d="M311.06,479.9l-147.61-.09a32.16,32.16,0,0,1-32.14-32.16l.07-370.07a32.16,32.16,0,0,1,32.18-32.15l147.61.08a32.16,32.16,0,0,1,32.14,32.16l-.07,370.08A32.16,32.16,0,0,1,311.06,479.9Z" style="fill:#263238"></path><path d="M311,58.6H282.4a7.1,7.1,0,0,0-6.95,7.26V71a7.11,7.11,0,0,1-6.95,7.26l-55.78,0a7.12,7.12,0,0,1-7-7.27V65.81a7.11,7.11,0,0,0-6.95-7.27H163.7A22.53,22.53,0,0,0,141.16,81l-.07,361.22a22.52,22.52,0,0,0,22.51,22.52l147.32.09a22.51,22.51,0,0,0,22.53-22.52l.07-361.21A22.52,22.52,0,0,0,311,58.6Z" style="fill:#fff"></path><path d="M223.63,437.25a2.83,2.83,0,1,1-2.86-2.8A2.84,2.84,0,0,1,223.63,437.25Z" style="fill:#263238"></path><path d="M239.47,437.12a2.83,2.83,0,1,1-2.85-2.8A2.83,2.83,0,0,1,239.47,437.12Z" style="fill:#263238"></path><path d="M255.32,437a2.83,2.83,0,1,1-2.85-2.8A2.83,2.83,0,0,1,255.32,437Z" style="fill:#263238"></path><path d="M311.88,95.08c0,.08-3.73.18-8.32.22s-8.31,0-8.31-.09S299,95,303.56,95,311.87,95,311.88,95.08Z" style="fill:#263238"></path><path d="M311.91,99.33c0,.09-3.72.19-8.31.23s-8.32,0-8.32-.09,3.72-.19,8.32-.23S311.91,99.24,311.91,99.33Z" style="fill:#263238"></path><path d="M312,103.58c0,.09-3.73.19-8.32.23s-8.31,0-8.31-.09,3.72-.18,8.31-.22S311.94,103.5,312,103.58Z" style="fill:#263238"></path><path d="M160.65,108.44l.34,0,1,0,3.56-.08-.09.09c0-.78,0-1.64,0-2.57a14.72,14.72,0,0,1,0-1.48,1.33,1.33,0,0,1,1.17-1.08c.57,0,1.08,0,1.7,0a1.35,1.35,0,0,1,1.15,1.35c0,1.2,0,2.46,0,3.76l-.15-.15,4.48,0-.15.15c0-1.8,0-3.67,0-5.58,0-.47,0-1,0-1.42a1.17,1.17,0,0,0-.18-.58,4.13,4.13,0,0,0-.46-.49c-.66-.65-1.31-1.3-2-1.93l-1.89-1.86c-.3-.31-.61-.61-.91-.91s-.56-.62-.94-.69a1.21,1.21,0,0,0-1,.2c-.27.23-.56.55-.83.82l-1.61,1.62c-1,1-2.06,2-2.83,2.92a3.21,3.21,0,0,0-.22,1.68c0,.56,0,1.08,0,1.58,0,1,0,1.82,0,2.54s0,1.2,0,1.63,0,.58,0,.58,0-.18,0-.54,0-1,0-1.6,0-1.58-.05-2.56c0-.51,0-1,0-1.61,0-.29,0-.58,0-.88a1.83,1.83,0,0,1,.25-.93c.83-1,1.82-1.91,2.84-3l1.59-1.63c.29-.28.53-.57.86-.86a1.51,1.51,0,0,1,1.29-.25,2.38,2.38,0,0,1,1.06.76l.92.9,1.9,1.86,2,1.93a3.76,3.76,0,0,1,.5.54,1.5,1.5,0,0,1,.23.74c0,.48,0,1,0,1.43,0,1.91,0,3.78,0,5.58v.15h-.16l-4.48,0h-.14v-.15c0-1.3,0-2.55,0-3.75a1.11,1.11,0,0,0-.92-1.11c-.52,0-1.13,0-1.63,0a1.11,1.11,0,0,0-1,.88c0,.46,0,1,0,1.43,0,.93,0,1.79,0,2.58v.09h-.09l-3.61,0H161A1.64,1.64,0,0,1,160.65,108.44Z" style="fill:#263238"></path><path d="M198.47,194.2c0,3.47-2.6,5.63-6.76,5.63h-3.13v4.28H185V188.56h6.73C195.87,188.56,198.47,190.72,198.47,194.2Zm-3.65,0c0-1.71-1.11-2.71-3.31-2.71h-2.93v5.4h2.93C193.71,196.89,194.82,195.89,194.82,194.2Z" style="fill:#263238"></path><path d="M211.24,197.29v6.82H208v-1.49a3.93,3.93,0,0,1-3.64,1.67c-2.8,0-4.47-1.55-4.47-3.62s1.49-3.58,5.13-3.58h2.76c0-1.49-.89-2.35-2.76-2.35a5.73,5.73,0,0,0-3.44,1.11l-1.25-2.42a9.18,9.18,0,0,1,5.16-1.45C209.13,192,211.24,193.67,211.24,197.29Zm-3.46,3.05v-1.22H205.4c-1.62,0-2.13.59-2.13,1.39S204,202,205.22,202A2.55,2.55,0,0,0,207.78,200.34Z" style="fill:#263238"></path><path d="M213.22,203l1.16-2.49a8.12,8.12,0,0,0,4.15,1.16c1.6,0,2.2-.42,2.2-1.09,0-2-7.22,0-7.22-4.73,0-2.27,2-3.87,5.53-3.87a9.76,9.76,0,0,1,4.6,1.05l-1.15,2.46a7,7,0,0,0-3.45-.89c-1.55,0-2.22.49-2.22,1.12,0,2,7.22.06,7.22,4.77,0,2.22-2.07,3.8-5.64,3.8A10.21,10.21,0,0,1,213.22,203Z" style="fill:#263238"></path><path d="M225,203l1.15-2.49a8.19,8.19,0,0,0,4.16,1.16c1.6,0,2.2-.42,2.2-1.09,0-2-7.22,0-7.22-4.73,0-2.27,2-3.87,5.53-3.87a9.79,9.79,0,0,1,4.6,1.05l-1.16,2.46a6.9,6.9,0,0,0-3.44-.89c-1.56,0-2.22.49-2.22,1.12,0,2,7.22.06,7.22,4.77,0,2.22-2.07,3.8-5.64,3.8A10.18,10.18,0,0,1,225,203Z" style="fill:#263238"></path><path d="M256.94,192.16l-4.33,12h-3.33l-2.69-7.42-2.78,7.42h-3.33l-4.31-12h3.27l2.82,8.09,2.93-8.09h2.93l2.85,8.09,2.91-8.09Z" style="fill:#263238"></path><path d="M257.35,198.14c0-3.6,2.77-6.16,6.57-6.16s6.56,2.56,6.56,6.16-2.76,6.15-6.56,6.15S257.35,201.74,257.35,198.14Zm9.62,0a3.06,3.06,0,1,0-3.05,3.31A3,3,0,0,0,267,198.14Z" style="fill:#263238"></path><path d="M280.21,192v3.2c-.29,0-.51,0-.78,0-1.91,0-3.18,1-3.18,3.33v5.64h-3.46v-12h3.31v1.58A4.8,4.8,0,0,1,280.21,192Z" style="fill:#263238"></path><path d="M294.34,187.63v16.48H291v-1.37a4.61,4.61,0,0,1-3.73,1.55,6.16,6.16,0,0,1,0-12.31,4.57,4.57,0,0,1,3.57,1.45v-5.8Zm-3.4,10.51a3.06,3.06,0,1,0-3,3.31A3,3,0,0,0,290.94,198.14Z" style="fill:#263238"></path><path d="M321,217c0,.14-37,.26-82.69.26s-82.71-.12-82.71-.26,37-.26,82.71-.26S321,216.83,321,217Z" style="fill:#e0e0e0"></path><path d="M317.15,369.23c0,.15-37,.26-82.7.26s-82.7-.11-82.7-.26,37-.26,82.7-.26S317.15,369.09,317.15,369.23Z" style="fill:#e0e0e0"></path><path d="M279.74,380.67c0,.14-20.57.26-45.94.26s-45.94-.12-45.94-.26,20.56-.26,45.94-.26S279.74,380.52,279.74,380.67Z" style="fill:#e0e0e0"></path><path d="M170.5,261.3l3.13,1.69-1.41,2.36-3.16-1.87.06,3.48h-2.7l0-3.51-3.17,1.9L161.9,263,165,261.3l-3.14-1.73,1.38-2.35,3.17,1.89,0-3.5h2.7l-.06,3.5,3.16-1.89,1.41,2.35Z" style="fill:#6E9631"></path><path d="M206.42,261.3l3.13,1.69-1.41,2.36L205,263.48,205,267h-2.71l0-3.51-3.16,1.9L197.82,263,201,261.3l-3.13-1.73,1.38-2.35,3.16,1.89,0-3.5H205l-.06,3.5,3.16-1.89,1.41,2.35Z" style="fill:#6E9631"></path><path d="M241.38,261.3l3.13,1.69-1.41,2.36-3.16-1.87L240,267h-2.7l0-3.51-3.17,1.9L232.78,263l3.14-1.69-3.14-1.73,1.38-2.35,3.17,1.89,0-3.5H240l-.06,3.5,3.16-1.89,1.41,2.35Z" style="fill:#6E9631"></path><path d="M275.25,261.3l3.13,1.69L277,265.35l-3.16-1.87.06,3.48h-2.7l0-3.51-3.16,1.9L266.65,263l3.14-1.69-3.14-1.73,1.38-2.35,3.16,1.89,0-3.5h2.7l-.06,3.5,3.16-1.89,1.41,2.35Z" style="fill:#6E9631"></path><path d="M308.85,261.3,312,263l-1.41,2.36-3.16-1.87.05,3.48h-2.7l0-3.51-3.16,1.9L300.26,263l3.13-1.69-3.13-1.73,1.38-2.35,3.16,1.89,0-3.5h2.7l-.05,3.5,3.16-1.89,1.41,2.35Z" style="fill:#6E9631"></path><path d="M176.07,283.08H160.92a7.08,7.08,0,0,1-7.07-7.07v-26.9a7.07,7.07,0,0,1,7.07-7.06h15.15a7.07,7.07,0,0,1,7.07,7.06V276A7.08,7.08,0,0,1,176.07,283.08Zm-15.15-40.53a6.57,6.57,0,0,0-6.57,6.56V276a6.58,6.58,0,0,0,6.57,6.57h15.15a6.57,6.57,0,0,0,6.57-6.57v-26.9a6.57,6.57,0,0,0-6.57-6.56Z" style="fill:#263238"></path><path d="M211.26,283.08H196.11A7.08,7.08,0,0,1,189,276v-26.9a7.07,7.07,0,0,1,7.07-7.06h15.15a7.07,7.07,0,0,1,7.07,7.06V276A7.08,7.08,0,0,1,211.26,283.08Zm-15.15-40.53a6.57,6.57,0,0,0-6.57,6.56V276a6.58,6.58,0,0,0,6.57,6.57h15.15a6.57,6.57,0,0,0,6.57-6.57v-26.9a6.57,6.57,0,0,0-6.57-6.56Z" style="fill:#263238"></path><path d="M245.49,283.08H230.33a7.08,7.08,0,0,1-7.07-7.07v-26.9a7.07,7.07,0,0,1,7.07-7.06h15.16a7.07,7.07,0,0,1,7.06,7.06V276A7.07,7.07,0,0,1,245.49,283.08Zm-15.16-40.53a6.57,6.57,0,0,0-6.57,6.56V276a6.58,6.58,0,0,0,6.57,6.57h15.16a6.57,6.57,0,0,0,6.56-6.57v-26.9a6.56,6.56,0,0,0-6.56-6.56Z" style="fill:#263238"></path><path d="M280.1,283.08H264.94a7.08,7.08,0,0,1-7.07-7.07v-26.9a7.07,7.07,0,0,1,7.07-7.06H280.1a7.07,7.07,0,0,1,7.06,7.06V276A7.07,7.07,0,0,1,280.1,283.08Zm-15.16-40.53a6.57,6.57,0,0,0-6.57,6.56V276a6.58,6.58,0,0,0,6.57,6.57H280.1a6.57,6.57,0,0,0,6.56-6.57v-26.9a6.56,6.56,0,0,0-6.56-6.56Z" style="fill:#263238"></path><path d="M313.7,283.08H298.55a7.08,7.08,0,0,1-7.07-7.07v-26.9a7.07,7.07,0,0,1,7.07-7.06H313.7a7.07,7.07,0,0,1,7.07,7.06V276A7.08,7.08,0,0,1,313.7,283.08Zm-15.15-40.53a6.57,6.57,0,0,0-6.57,6.56V276a6.57,6.57,0,0,0,6.57,6.57H313.7a6.58,6.58,0,0,0,6.57-6.57v-26.9a6.57,6.57,0,0,0-6.57-6.56Z" style="fill:#263238"></path><rect x="154.09" y="315.56" width="169.79" height="29.74" rx="11.29" style="fill:#6E9631"></rect><path d="M217.55,324.45h4.57c3.29,0,5.55,2,5.55,5s-2.26,5-5.55,5h-4.57ZM222,332.6a3.12,3.12,0,1,0,0-6.24h-2.13v6.24Z" style="fill:#fff"></path><path d="M228.69,330.65a4.26,4.26,0,1,1,4.26,4A4,4,0,0,1,228.69,330.65Zm6.23,0a2,2,0,1,0-4,0,2,2,0,1,0,4,0Z" style="fill:#fff"></path><path d="M246.59,330.09v4.42h-2.24v-4.08c0-1.25-.58-1.82-1.57-1.82s-1.85.66-1.85,2.08v3.82h-2.24v-7.73h2.14v.91a3.39,3.39,0,0,1,2.56-1C245.21,326.67,246.59,327.73,246.59,330.09Z" style="fill:#fff"></path><path d="M256.24,331.28h-5.85a2.07,2.07,0,0,0,2.21,1.55,2.59,2.59,0,0,0,1.94-.75l1.2,1.3a4.05,4.05,0,0,1-3.19,1.25c-2.68,0-4.42-1.68-4.42-4a3.93,3.93,0,0,1,4.13-4,3.82,3.82,0,0,1,4,4C256.28,330.85,256.25,331.09,256.24,331.28ZM250.36,330h3.81a1.93,1.93,0,0,0-3.81,0Z" style="fill:#fff"></path><circle cx="237.31" cy="143.52" r="30.05" style="fill:#6E9631"></circle><path d="M232,138.05h-.5v-2.8a5.86,5.86,0,0,1,11.72,0v2.28h-.5v-2.28a5.36,5.36,0,0,0-10.72,0Z" style="fill:#fff"></path><path d="M244.76,157.65h-14.9a2.48,2.48,0,0,1-2.47-2.47V140.27a2.48,2.48,0,0,1,2.47-2.47h14.9a2.48,2.48,0,0,1,2.47,2.47v14.91A2.48,2.48,0,0,1,244.76,157.65Zm-14.9-19.35a2,2,0,0,0-2,2v14.91a2,2,0,0,0,2,2h14.9a2,2,0,0,0,2-2V140.27a2,2,0,0,0-2-2Z" style="fill:#fff"></path><path d="M237.38,148.21a2.34,2.34,0,1,1,2.34-2.34A2.34,2.34,0,0,1,237.38,148.21Zm0-4.17a1.84,1.84,0,1,0,1.84,1.83A1.84,1.84,0,0,0,237.38,144Z" style="fill:#fff"></path><rect x="237.06" y="147.86" width="0.5" height="4.22" style="fill:#fff"></rect></g><g id="freepik--Floor--inject-107"><path d="M461,480.17c0,.15-97.17.26-217,.26s-217-.11-217-.26,97.15-.26,217-.26S461,480,461,480.17Z" style="fill:#263238"></path></g></svg>