<?xml version="1.0" encoding="utf-8"?>
<svg version="1.1" id="Layer_1" xmlns="http://www.w3.org/2000/svg" xmlns:xlink="http://www.w3.org/1999/xlink" x="0px" y="0px"
	 viewBox="0 0 340 140" style="enable-background:new 0 0 340 140;" xml:space="preserve">
<style type="text/css">
	.st0{fill:none;}
	.st1{fill:#2B3486;}
	.st2{fill:#8DC63F;}
</style>
<rect class="st0" width="340" height="140"/>
<g id="Layer_3">
	<path class="st1" d="M140.6,64.5c-4.1,0-6.9-1.1-8.3-3.4s-2.2-6-2.2-11.2s0.7-8.9,2.2-11.1s4.2-3.3,8.3-3.3c2.7,0,5.4,0.4,8,1
		l-0.2,3.7c-2.4-0.4-4.9-0.6-7.4-0.7c-2.5,0-4.1,0.7-5,2.2c-0.9,1.5-1.3,4.2-1.3,8.2s0.4,6.8,1.3,8.2s2.5,2.2,5,2.2
		c2.5,0,5-0.2,7.4-0.6l0.1,3.8C145.9,64.1,143.2,64.4,140.6,64.5z"/>
	<path class="st1" d="M152.9,40.1v-4.7h4.5v4.7H152.9z M152.9,64V43.5h4.5V64L152.9,64z"/>
	<path class="st1" d="M175.1,43.5h4.4V64h-4.4v-1.3c-1.7,1-3.6,1.6-5.5,1.7c-2.8,0-4.7-0.8-5.6-2.3c-1-1.5-1.4-4.2-1.4-8V43.5h4.5
		v10.7c-0.1,1.7,0.1,3.4,0.6,5c0.4,0.8,1.4,1.3,2.9,1.3c1.4,0,2.8-0.3,4.1-0.8l0.6-0.2L175.1,43.5z"/>
	<path class="st1" d="M201.6,35v29h-4.4v-1.1c-1.7,0.9-3.6,1.4-5.5,1.5c-2.7,0-4.6-0.8-5.9-2.4c-1.3-1.6-1.9-4.3-1.9-8.1
		c0-3.8,0.7-6.5,2.1-8.3s3.5-2.6,6.4-2.6c1.6,0.1,3.1,0.2,4.7,0.5V35H201.6z M196.5,59.7l0.7-0.3V47.3c-1.5-0.3-3-0.4-4.5-0.4
		c-2.8,0-4.1,2.3-4.1,6.9c0,2.5,0.3,4.2,1,5.2c0.7,1,1.8,1.5,3.1,1.5C193.9,60.5,195.2,60.2,196.5,59.7L196.5,59.7z"/>
	<path class="st1" d="M222.2,49.8v9.3c0,0.5,0.2,1,0.5,1.3c0.4,0.3,0.8,0.5,1.3,0.5l-0.1,3.4c-1.9,0.1-3.9-0.4-5.4-1.5
		c-2.1,1-4.3,1.5-6.6,1.5c-4.1,0-6.1-2.2-6.1-6.5c0-2.1,0.6-3.6,1.7-4.5c1.5-1.1,3.3-1.6,5.1-1.7l5.3-0.5v-1.5
		c0.3-1.3-0.5-2.7-1.9-3c-0.3-0.1-0.6-0.1-0.9,0c-1.7,0-3.9,0.1-6.6,0.3l-1.3,0.1l-0.2-3.2c2.7-0.7,5.4-1,8.2-1.1
		c2.5,0,4.3,0.5,5.4,1.6C221.6,45.7,222.2,47.5,222.2,49.8z M213,54.9c-1.5,0-2.8,1.2-2.8,2.7c0,0.1,0,0.3,0,0.4
		c0,1.9,0.8,2.8,2.5,2.8c1.5,0,2.9-0.2,4.3-0.7l0.7-0.2v-5.5L213,54.9z"/>
	<path class="st1" d="M244.5,35v29h-4.4v-1.1c-1.7,0.9-3.6,1.4-5.5,1.5c-2.7,0-4.6-0.8-5.9-2.4s-1.9-4.3-1.9-8.1s0.7-6.5,2.1-8.3
		s3.5-2.6,6.4-2.6c1.6,0.1,3.1,0.2,4.7,0.5V35H244.5z M239.3,59.7l0.7-0.3V47.3c-1.5-0.3-3-0.4-4.5-0.4c-2.8,0-4.1,2.3-4.1,6.9
		c0,2.5,0.3,4.2,1,5.2c0.7,1,1.8,1.5,3,1.5C236.7,60.5,238.1,60.2,239.3,59.7L239.3,59.7z"/>
	<path class="st1" d="M265,49.8v9.3c0,0.5,0.2,1,0.5,1.3c0.4,0.3,0.8,0.5,1.3,0.5l-0.1,3.4c-1.9,0.1-3.8-0.4-5.4-1.5
		c-2.1,1-4.3,1.5-6.6,1.5c-4.1,0-6.1-2.2-6.1-6.5c0-2.1,0.6-3.6,1.7-4.5c1.5-1.1,3.3-1.6,5.1-1.7l5.3-0.5v-1.5
		c0.3-1.3-0.5-2.7-1.9-3c-0.3-0.1-0.6-0.1-0.9,0c-1.7,0-3.9,0.1-6.6,0.3l-1.3,0.1l-0.2-3.2c2.7-0.7,5.5-1,8.3-1
		c2.5,0,4.3,0.5,5.4,1.6C264.5,45.8,265,47.5,265,49.8z M255.8,54.9c-1.5,0-2.8,1.1-2.8,2.7c0,0.1,0,0.3,0,0.4
		c0,1.9,0.8,2.8,2.5,2.8c1.5,0,2.9-0.2,4.3-0.7l0.7-0.2v-5.5L255.8,54.9z"/>
	<path class="st1" d="M275.1,64h-4.5V43.5h4.4v1.3c1.7-1.1,3.6-1.7,5.6-1.7c2.7,0,4.6,0.8,5.6,2.3c1,1.5,1.5,4.1,1.5,7.6v11h-4.4
		V53.2c0.1-1.6-0.1-3.2-0.7-4.7c-0.6-1-1.8-1.5-2.9-1.4c-1.4,0-2.7,0.3-4,0.8l-0.6,0.2L275.1,64z"/>
	<path class="st1" d="M291.7,37.5l9.6-4.1l1.4,3.8l-10,3.2L291.7,37.5z M293,43.5h4.5V64H293L293,43.5z"/>
	<path class="st1" d="M318,49.8v9.3c0,0.5,0.1,1,0.5,1.3c0.4,0.3,0.8,0.5,1.3,0.5l-0.1,3.4c-1.9,0.1-3.9-0.4-5.5-1.5
		c-2.1,1-4.3,1.5-6.6,1.5c-4.1,0-6.1-2.2-6.1-6.5c0-2.1,0.6-3.6,1.7-4.5c1.5-1.1,3.3-1.6,5.1-1.7l5.3-0.5v-1.5
		c0.3-1.3-0.5-2.7-1.9-3c-0.3-0.1-0.6-0.1-0.9,0c-1.7,0-3.9,0.1-6.5,0.3l-1.3,0.1l-0.2-3.2c2.7-0.7,5.4-1,8.2-1.1
		c2.5,0,4.3,0.5,5.4,1.6C317.4,45.7,318,47.5,318,49.8z M308.8,54.9c-1.5,0-2.8,1.1-2.8,2.7c0,0.1,0,0.3,0,0.4
		c0,1.9,0.8,2.8,2.5,2.8c1.5,0,2.9-0.2,4.3-0.7l0.7-0.2v-5.5L308.8,54.9z"/>
	<path class="st1" d="M139.7,103.4H130v-28h9.7c4.3,0,7.3,1.1,8.8,3.3c1.6,2.2,2.4,5.6,2.4,10.3c0,2-0.1,4-0.5,6
		c-0.3,1.6-0.8,3.1-1.7,4.5C147.2,102.1,144.2,103.4,139.7,103.4z M146.2,89c0-3.4-0.4-5.8-1.3-7.3s-2.6-2.2-5.2-2.2h-5.2v20h5.2
		c2.7,0,4.5-1,5.4-3c0.4-1,0.8-2.1,0.9-3.2C146.2,91.8,146.2,90.4,146.2,89z"/>
	<path class="st1" d="M155.7,79.5v-4.7h4.5v4.7H155.7z M155.7,103.4V83h4.5v20.5L155.7,103.4z"/>
	<path class="st1" d="M183.4,106.2c0,4.5-3.2,6.7-9.7,6.7c-3.1,0-5.4-0.4-6.9-1.3s-2.2-2.4-2.2-4.6c0-0.9,0.2-1.8,0.7-2.6
		c0.7-0.9,1.5-1.7,2.4-2.3c-1-0.7-1.5-1.8-1.4-3c0.2-1,0.5-1.9,1.1-2.7l0.4-0.6c-2-1.2-2.9-3.2-2.9-6.1c0-2.5,0.7-4.3,2.2-5.4
		c1.8-1.2,3.9-1.8,6-1.7c1.2,0,2.4,0.1,3.6,0.4l0.6,0.1l6.3-0.2v3.6l-3.4-0.2c0.7,1,1.1,2.1,1.1,3.3c0,2.7-0.7,4.5-2,5.6
		s-3.5,1.5-6.3,1.5c-0.6,0-1.2,0-1.8-0.2c-0.3,0.7-0.5,1.4-0.6,2.2c0,0.5,0.3,0.9,0.8,1c1.2,0.3,2.4,0.4,3.7,0.3
		c3.2,0,5.5,0.5,6.7,1.3S183.4,103.9,183.4,106.2z M168.9,106.6c0,0.8,0.4,1.6,1.1,2c1.2,0.5,2.6,0.7,3.9,0.6c3.3,0,5-0.9,4.9-2.8
		c0-1.1-0.3-1.7-0.9-2c-1.1-0.4-2.3-0.5-3.5-0.5l-4-0.2c-0.5,0.4-0.9,0.8-1.3,1.4C169.1,105.5,169,106.1,168.9,106.6L168.9,106.6z
		 M170.2,92.5c0.8,0.7,1.9,1,2.9,0.9c1,0.1,2.1-0.2,2.9-0.9c0.7-0.8,1-1.8,0.9-2.8c0.1-1-0.2-2-0.9-2.8c-0.8-0.7-1.9-1-2.9-0.9
		c-2.5,0-3.8,1.2-3.8,3.6C169.2,90.7,169.5,91.7,170.2,92.5z"/>
	<path class="st1" d="M187,79.5v-4.7h4.5v4.7H187z M187,103.4V83h4.5v20.5L187,103.4z"/>
	<path class="st1" d="M207.9,86.8h-5.6v9c-0.1,1.1,0.1,2.2,0.4,3.3c0.2,0.5,0.9,0.8,1.9,0.8l3.4-0.1l0.2,3.6
		c-1.4,0.3-2.8,0.5-4.2,0.5c-2.3,0-3.9-0.5-4.8-1.6c-0.9-1.1-1.3-3.1-1.3-6v-9.5h-2.6V83h2.6v-6h4.4v6h5.6V86.8z"/>
	<path class="st1" d="M226.7,89.3v9.3c0,0.5,0.2,1,0.5,1.3c0.4,0.3,0.8,0.5,1.3,0.6l-0.1,3.4c-1.9,0.1-3.8-0.4-5.4-1.5
		c-2.1,1-4.3,1.5-6.6,1.5c-4.1,0-6.1-2.2-6.1-6.5c0-2.1,0.6-3.6,1.7-4.5c1.5-1.1,3.3-1.7,5.1-1.7l5.3-0.4v-1.5
		c0.3-1.3-0.6-2.7-1.9-2.9c-0.3-0.1-0.6-0.1-0.9,0c-1.7,0-3.9,0.1-6.6,0.3l-1.3,0.1l-0.2-3.2c2.7-0.7,5.4-1,8.2-1.1
		c2.5,0,4.3,0.5,5.4,1.6S226.7,86.9,226.7,89.3z M217.5,94.3c-1.5,0-2.8,1.1-2.8,2.7c0,0.1,0,0.3,0,0.4c0,1.9,0.8,2.8,2.5,2.8
		c1.5,0,2.9-0.2,4.3-0.7l0.7-0.2v-5.4L217.5,94.3z"/>
	<path class="st1" d="M232.5,103.4v-29h4.5v29H232.5z"/>
	<path class="st2" d="M246.3,75.1h6.9c1.5-0.1,2.9,0.3,4.2,1.1c1,0.9,1.5,2.3,1.4,3.6c0,0.9-0.1,1.8-0.5,2.5
		c-0.4,0.7-0.9,1.2-1.6,1.5c1.7,0.7,2.6,2.1,2.6,4.2c0,3.4-1.9,5.2-5.8,5.2h-7.1L246.3,75.1z M253,77.6h-3.8v5.2h3.9
		c1.7,0,2.6-0.9,2.6-2.7S254.8,77.6,253,77.6z M253.1,85.3h-4v5.4h4c0.8,0.1,1.6-0.2,2.2-0.6c0.5-0.6,0.8-1.3,0.7-2.1
		c0.1-0.8-0.2-1.6-0.9-2.1C254.6,85.5,253.9,85.3,253.1,85.3L253.1,85.3z"/>
	<path class="st2" d="M262.9,81.4c0.9-1.2,2.4-1.7,4.6-1.7c2.1,0,3.6,0.6,4.5,1.7c1,1.5,1.5,3.3,1.4,5.2c0.1,1.8-0.3,3.7-1.3,5.2
		c-0.9,1.2-2.4,1.8-4.6,1.8c-2.2,0-3.7-0.6-4.6-1.8c-1-1.5-1.4-3.4-1.3-5.2C261.4,84.8,261.9,82.9,262.9,81.4z M265.1,90
		c1.2,1.3,3.2,1.4,4.5,0.2c0.1-0.1,0.2-0.2,0.2-0.2c0.5-1.1,0.7-2.3,0.6-3.5c0.1-1.2-0.1-2.4-0.6-3.4c-1.2-1.3-3.3-1.4-4.6-0.1
		c0,0-0.1,0.1-0.1,0.1c-0.5,1.1-0.7,2.2-0.6,3.4C264.4,87.7,264.6,88.9,265.1,90z"/>
	<path class="st2" d="M276.4,93.2V74.5h2.9v18.8H276.4z"/>
	<path class="st2" d="M283,77.7v-3.1h2.9v3.1L283,77.7z M283,93.2V80h2.9v13.2H283z"/>
	<path class="st2" d="M288.1,80h3l2.5,10.8h0.9l2.7-10.8h3l-3.5,13.3h-5.1L288.1,80z"/>
	<path class="st2" d="M302.4,77.7v-3.1h2.9v3.1L302.4,77.7z M302.4,93.2V80h2.9v13.2H302.4z"/>
	<path class="st2" d="M318.6,84.1v6.1c0,0.3,0.1,0.6,0.3,0.9c0.2,0.2,0.5,0.3,0.9,0.4l-0.1,2.2c-1.3,0.1-2.5-0.3-3.5-1
		c-1.3,0.6-2.8,1-4.3,1c-2.7,0-4-1.4-4-4.2c-0.1-1.1,0.3-2.2,1.1-2.9c1-0.7,2.1-1.1,3.3-1.1l3.4-0.3v-1c0.2-0.9-0.4-1.7-1.2-1.9
		c-0.2,0-0.4,0-0.6,0c-1.1,0-2.5,0.1-4.2,0.2h-0.9l-0.1-2c1.7-0.4,3.5-0.7,5.3-0.7c1.3-0.1,2.5,0.2,3.5,1
		C318.3,81.6,318.7,82.8,318.6,84.1z M312.7,87.4c-1,0-1.8,0.7-1.9,1.7c0,0.1,0,0.2,0,0.3c0,1.2,0.5,1.8,1.6,1.8
		c1,0,1.9-0.2,2.8-0.4l0.5-0.2v-3.5L312.7,87.4z"/>
	<path class="st1" d="M119.8,65.4c-0.1-1.1-1-1.8-2.1-1.7c-1.1,0.1-1.8,1-1.7,2.1c0.1,1.4,0.2,2.8,0.2,4.3
		c0,25.5-20.7,46.1-46.2,46.2v-14.5h-0.8c-1.4,0-2.7-0.2-4.1-0.4C47.8,98.5,36,82.3,38.8,65c0.1-0.9,0.3-1.9,0.6-2.8
		c0.3-1,1.3-1.7,2.3-1.4s1.7,1.3,1.4,2.3l0,0c-0.6,2.2-0.8,4.5-0.8,6.8c-0.1,13.7,9.9,25.4,23.4,27.4c1.2,0.2,2.4,0.3,3.6,0.3H70
		V83.3l0,0c7.3,0,13.3-6,13.3-13.3c0-1.8-0.4-3.5-1-5.1c-0.5-1-1.6-1.4-2.6-0.9c-0.9,0.4-1.3,1.5-1,2.4c2,4.8-0.2,10.4-5.1,12.4
		c-1.2,0.5-2.4,0.7-3.6,0.7l0,0c-5.2,0-9.4-4.2-9.4-9.4s4.2-9.4,9.4-9.4l0,0c1.3,0,2.5,0.2,3.7,0.7c1,0.3,2.1-0.2,2.4-1.2
		c0.3-0.9-0.1-1.9-1-2.3c-1.6-0.7-3.4-1-5.1-1l0,0V42.2h1.3c0.5,0,1,0.1,1.5,0.1h0.3c0.5,0,1,0.1,1.5,0.2l0.4,0.1
		c0.5,0.1,1,0.2,1.5,0.3l0.3,0.1l0,0c0.2,0,0.3,0.1,0.5,0.1c1.1,0,1.9-0.9,1.9-2c0-0.9-0.6-1.6-1.4-1.8L77,39.2
		c-0.4-0.1-0.8-0.2-1.2-0.2s-0.7-0.1-1-0.2s-0.7-0.1-1.1-0.2s-0.6-0.1-1-0.1l-1.1-0.1h-0.9H70V23.9c18.8-0.1,35.8,11.4,42.8,28.9
		c0.4,1,1.5,1.5,2.5,1.1c1-0.4,1.5-1.5,1.1-2.5l0,0c-10.3-25.6-39.5-38-65.1-27.7s-38,39.5-27.7,65.1s39.5,38,65.1,27.7
		c18.9-7.6,31.3-26,31.3-46.3C120,68.5,119.9,66.9,119.8,65.4z M42.8,53.8c1.5-2.5,3.3-4.7,5.3-6.7c0.9-0.9,1.8-1.7,2.8-2.4
		c-0.2-0.7-0.3-1.3-0.3-2c0-4.4,3.5-7.9,7.9-7.9s7.9,3.5,7.9,7.9c0,4.4-3.5,7.9-7.9,7.9c-2.2,0-4.3-0.9-5.8-2.5
		c-0.7,0.6-1.4,1.2-2.1,1.8c-1.8,1.7-3.4,3.7-4.7,5.9c-0.3,0.6-1,0.9-1.7,0.9c-0.4,0-0.7-0.1-1-0.3C42.6,55.9,42.3,54.7,42.8,53.8
		C42.8,53.8,42.8,53.8,42.8,53.8z M97.8,70c0-9.8-5.1-18.8-13.5-23.8l0,0c-0.9-0.6-1.2-1.7-0.6-2.6c0.6-0.9,1.7-1.2,2.6-0.6
		c0.6,0.4,1.2,0.7,1.8,1.1c8.5,5.9,13.6,15.6,13.6,26c0,1.5-0.1,3-0.3,4.5c0,0,0,0.1,0,0.1c-0.1,0.8-0.2,1.5-0.4,2.2l0,0
		c-1,4.5-2.9,8.7-5.7,12.3c0,0.1-0.1,0.1-0.2,0.2c-2.5,3.3-5.7,6.1-9.3,8.1c0,2.4-2,4.3-4.4,4.3c-2.4,0-4.3-2-4.3-4.4
		c0-2.4,2-4.3,4.4-4.3c1,0,1.9,0.4,2.7,1C92.6,89,97.8,79.9,97.8,70z"/>
</g>
</svg>
