<svg xmlns="http://www.w3.org/2000/svg" viewBox="0 0 340 140"><defs><style>.cls-1{fill:#fff;}.cls-2{fill:#8dc63f;}</style></defs><g id="Layer_6" data-name="Layer 6"><path class="cls-1" d="M140.56,64.46c-4.1,0-6.87-1.13-8.33-3.4s-2.19-6-2.19-11.17.74-8.87,2.21-11.07,4.24-3.29,8.31-3.29a35.64,35.64,0,0,1,8,1l-.17,3.68a42.56,42.56,0,0,0-7.36-.65q-3.69,0-5,2.19c-.88,1.46-1.31,4.2-1.31,8.22s.42,6.77,1.26,8.23,2.5,2.19,5,2.19a46.11,46.11,0,0,0,7.44-.62l.13,3.77A38.27,38.27,0,0,1,140.56,64.46Z"/><path class="cls-1" d="M152.87,40.07V35.36h4.46v4.71Zm0,23.94V43.55h4.46V64Z"/><path class="cls-1" d="M175.13,43.55h4.42V64h-4.42V62.74a11.27,11.27,0,0,1-5.52,1.72q-4.22,0-5.65-2.27t-1.43-8V43.55H167V54.27a13.15,13.15,0,0,0,.61,4.95c.41.85,1.37,1.27,2.87,1.27a9.81,9.81,0,0,0,4.05-.82l.61-.25Z"/><path class="cls-1" d="M201.65,35V64h-4.42V62.94a12.28,12.28,0,0,1-5.48,1.52q-4,0-5.88-2.42T184,53.94c0-3.79.69-6.55,2.07-8.26s3.52-2.58,6.44-2.58a32.61,32.61,0,0,1,4.67.53V35Zm-5.16,24.71.7-.29V47.35a28.1,28.1,0,0,0-4.54-.41c-2.76,0-4.14,2.3-4.14,6.88q0,3.76,1,5.22a3.41,3.41,0,0,0,3.05,1.45A10.81,10.81,0,0,0,196.49,59.75Z"/><path class="cls-1" d="M222.19,49.85v9.33a2,2,0,0,0,.47,1.33,2.24,2.24,0,0,0,1.33.55l-.12,3.4a8.64,8.64,0,0,1-5.45-1.52,15.52,15.52,0,0,1-6.58,1.52q-6.1,0-6.1-6.51,0-3.11,1.66-4.5a9,9,0,0,1,5.09-1.68l5.28-.45V49.85a2.49,2.49,0,0,0-2.82-3q-2.62,0-6.55.33l-1.31.08-.16-3.15a35.42,35.42,0,0,1,8.2-1.06q3.75,0,5.4,1.61T222.19,49.85ZM213,54.92A2.76,2.76,0,0,0,210.2,58c0,1.88.83,2.83,2.5,2.83a15.67,15.67,0,0,0,4.33-.66l.74-.24V54.47Z"/><path class="cls-1" d="M244.49,35V64h-4.42V62.94a12.28,12.28,0,0,1-5.48,1.52c-2.68,0-4.63-.81-5.87-2.42s-1.87-4.31-1.87-8.1.69-6.55,2.07-8.26,3.53-2.58,6.44-2.58a32.46,32.46,0,0,1,4.67.53V35Zm-5.16,24.71.7-.29V47.35a28.1,28.1,0,0,0-4.54-.41c-2.76,0-4.14,2.3-4.14,6.88q0,3.76,1,5.22a3.39,3.39,0,0,0,3,1.45A10.77,10.77,0,0,0,239.33,59.75Z"/><path class="cls-1" d="M265,49.85v9.33a2,2,0,0,0,.47,1.33,2.24,2.24,0,0,0,1.33.55l-.12,3.4a8.59,8.59,0,0,1-5.44-1.52,15.6,15.6,0,0,1-6.59,1.52q-6.1,0-6.1-6.51,0-3.11,1.66-4.5a9,9,0,0,1,5.09-1.68l5.28-.45V49.85a2.49,2.49,0,0,0-2.82-3q-2.62,0-6.55.33l-1.31.08-.16-3.15A35.49,35.49,0,0,1,258,43.1q3.75,0,5.4,1.61T265,49.85Zm-9.17,5.07A2.76,2.76,0,0,0,253,58c0,1.88.83,2.83,2.5,2.83a15.62,15.62,0,0,0,4.33-.66l.74-.24V54.47Z"/><path class="cls-1" d="M275.1,64h-4.46V43.55h4.42v1.27a11.33,11.33,0,0,1,5.64-1.72q4.1,0,5.59,2.31c1,1.54,1.49,4.09,1.49,7.63V64h-4.42V53.16a11.21,11.21,0,0,0-.71-4.7,3,3,0,0,0-2.93-1.39,10.06,10.06,0,0,0-4,.82l-.61.24Z"/><path class="cls-1" d="M291.67,37.53l9.65-4.13,1.4,3.85-10,3.19Zm1.31,6h4.46V64H293Z"/><path class="cls-1" d="M318,49.85v9.33a1.9,1.9,0,0,0,.47,1.33,2.24,2.24,0,0,0,1.33.55l-.12,3.4a8.64,8.64,0,0,1-5.45-1.52,15.56,15.56,0,0,1-6.58,1.52q-6.11,0-6.1-6.51,0-3.11,1.66-4.5a9,9,0,0,1,5.09-1.68l5.28-.45V49.85a2.49,2.49,0,0,0-2.82-3q-2.62,0-6.55.33l-1.31.08-.16-3.15a35.42,35.42,0,0,1,8.2-1.06q3.75,0,5.4,1.61T318,49.85Zm-9.17,5.07A2.76,2.76,0,0,0,306,58c0,1.88.83,2.83,2.49,2.83a15.69,15.69,0,0,0,4.34-.66l.74-.24V54.47Z"/><path class="cls-1" d="M139.7,103.43H130v-28h9.7q6.47,0,8.84,3.28T150.91,89a33.23,33.23,0,0,1-.47,6,13.66,13.66,0,0,1-1.66,4.48Q146.45,103.44,139.7,103.43ZM146.2,89q0-5.08-1.26-7.33t-5.24-2.25h-5.16v20h5.16q4.05,0,5.4-3A11.93,11.93,0,0,0,146,93.2,33.6,33.6,0,0,0,146.2,89Z"/><path class="cls-1" d="M155.7,79.5V74.79h4.46V79.5Zm0,23.93V83h4.46v20.46Z"/><path class="cls-1" d="M183.44,106.21q0,6.72-9.7,6.72c-3.11,0-5.41-.43-6.91-1.27s-2.25-2.39-2.25-4.63a4.54,4.54,0,0,1,.73-2.6,11,11,0,0,1,2.38-2.35,3.31,3.31,0,0,1-1.35-3,6.19,6.19,0,0,1,1.1-2.66l.37-.62c-2-1.17-2.95-3.22-2.95-6.14q0-3.68,2.21-5.4a9.55,9.55,0,0,1,6-1.72,15.87,15.87,0,0,1,3.56.41l.61.13,6.34-.17v3.6l-3.39-.2a5.35,5.35,0,0,1,1.1,3.35c0,2.68-.67,4.52-2,5.55s-3.46,1.53-6.33,1.53a8.4,8.4,0,0,1-1.8-.16,6.22,6.22,0,0,0-.57,2.15,1,1,0,0,0,.76,1,14.35,14.35,0,0,0,3.66.33c3.25,0,5.47.46,6.67,1.31S183.44,103.87,183.44,106.21Zm-14.49.41a2.15,2.15,0,0,0,1.15,2,9,9,0,0,0,3.93.61q5,0,4.95-2.82c0-1.06-.29-1.74-.88-2a9.84,9.84,0,0,0-3.5-.47l-4-.24a5.53,5.53,0,0,0-1.27,1.37A3,3,0,0,0,169,106.62Zm1.23-14.17a4.08,4.08,0,0,0,2.91.88,4,4,0,0,0,2.88-.88,3.78,3.78,0,0,0,.88-2.77,3.73,3.73,0,0,0-.9-2.76,4,4,0,0,0-2.9-.88c-2.51,0-3.77,1.22-3.77,3.64A3.74,3.74,0,0,0,170.18,92.45Z"/><path class="cls-1" d="M187,79.5V74.79h4.46V79.5Zm0,23.93V83h4.46v20.46Z"/><path class="cls-1" d="M207.91,86.78h-5.65v9a9.77,9.77,0,0,0,.37,3.32c.25.54.87.81,1.88.81l3.36-.12.2,3.56a24.2,24.2,0,0,1-4.17.53q-3.48,0-4.77-1.59c-.86-1.07-1.29-3.07-1.29-6V86.78h-2.62V83h2.62V77h4.42V83h5.65Z"/><path class="cls-1" d="M226.69,89.27V98.6a1.93,1.93,0,0,0,.47,1.33,2.31,2.31,0,0,0,1.33.56l-.12,3.39a8.59,8.59,0,0,1-5.44-1.51,15.58,15.58,0,0,1-6.59,1.51q-6.1,0-6.1-6.5,0-3.12,1.66-4.5A9,9,0,0,1,217,91.2l5.28-.45V89.27a2.48,2.48,0,0,0-2.82-2.94q-2.62,0-6.55.33l-1.31.08-.16-3.15a35.54,35.54,0,0,1,8.2-1.07q3.75,0,5.4,1.62T226.69,89.27Zm-9.17,5.08a2.75,2.75,0,0,0-2.82,3.07c0,1.88.83,2.82,2.5,2.82a16,16,0,0,0,4.33-.65l.74-.25V93.9Z"/><path class="cls-1" d="M232.54,103.43v-29H237v29Z"/><path class="cls-2" d="M246.28,75.07h6.9a6.51,6.51,0,0,1,4.17,1.13,4.38,4.38,0,0,1,1.38,3.6,5.14,5.14,0,0,1-.52,2.54,3.87,3.87,0,0,1-1.63,1.54c1.74.68,2.6,2.08,2.6,4.22,0,3.44-1.93,5.15-5.78,5.15h-7.12ZM253,77.62h-3.8v5.2h3.9c1.74,0,2.6-.89,2.6-2.68S254.83,77.62,253,77.62Zm.15,7.7h-4v5.39h4a3.34,3.34,0,0,0,2.19-.62,2.6,2.6,0,0,0,.73-2.09,2.4,2.4,0,0,0-.85-2.09A3.69,3.69,0,0,0,253.18,85.32Z"/><path class="cls-2" d="M262.91,81.42q1.36-1.73,4.56-1.73c2.12,0,3.63.58,4.55,1.73a8.23,8.23,0,0,1,1.36,5.17,8.55,8.55,0,0,1-1.32,5.2q-1.33,1.75-4.59,1.75t-4.6-1.75a8.55,8.55,0,0,1-1.32-5.2A8.23,8.23,0,0,1,262.91,81.42ZM265.08,90a3.21,3.21,0,0,0,4.77,0,7.3,7.3,0,0,0,.61-3.48,6.55,6.55,0,0,0-.65-3.42,3.23,3.23,0,0,0-4.69,0,6.55,6.55,0,0,0-.65,3.42A7.3,7.3,0,0,0,265.08,90Z"/><path class="cls-2" d="M276.41,93.25V74.46h2.89V93.25Z"/><path class="cls-2" d="M283,77.73V74.67h2.9v3.06Zm0,15.52V80h2.9V93.25Z"/><path class="cls-2" d="M288.11,80h3l2.55,10.8h.85L297.19,80h2.95l-3.45,13.27h-5.15Z"/><path class="cls-2" d="M302.39,77.73V74.67h2.9v3.06Zm0,15.52V80h2.9V93.25Z"/><path class="cls-2" d="M318.61,84.07v6.05a1.23,1.23,0,0,0,.31.86,1.4,1.4,0,0,0,.86.36l-.08,2.2a5.55,5.55,0,0,1-3.53-1,10,10,0,0,1-4.27,1q-4,0-4-4.21A3.59,3.59,0,0,1,309,86.41a5.72,5.72,0,0,1,3.3-1.09l3.42-.3v-1a1.6,1.6,0,0,0-1.83-1.91c-1.13,0-2.54.07-4.24.21l-.85,0-.11-2a23.06,23.06,0,0,1,5.32-.69,4.91,4.91,0,0,1,3.51,1A4.51,4.51,0,0,1,318.61,84.07Zm-5.94,3.29a1.79,1.79,0,0,0-1.84,2q0,1.83,1.62,1.83a10.37,10.37,0,0,0,2.82-.42l.47-.16V87.07Z"/><path class="cls-1" d="M119.79,65.39a1.92,1.92,0,0,0-3.83.35c.13,1.41.19,2.84.19,4.26A46.2,46.2,0,0,1,70,116.15V101.64h-.83a32.71,32.71,0,0,1-4.1-.38,31.66,31.66,0,0,1-25.75-39,1.92,1.92,0,1,1,3.73.94A28,28,0,0,0,42.22,70,27.63,27.63,0,0,0,65.66,97.45a27.22,27.22,0,0,0,3.6.33H70V83.28h0A13.3,13.3,0,0,0,82.25,64.83a1.93,1.93,0,0,0-3.55,1.5A9.45,9.45,0,0,1,70,79.44h0a9.43,9.43,0,1,1,0-18.86h0a9.27,9.27,0,0,1,3.65.74,1.93,1.93,0,0,0,1.49-3.55,13.29,13.29,0,0,0-5.14-1h0V42.23h1.32c.5,0,1,.06,1.51.11l.34,0c.49.05,1,.13,1.48.21l.4.06c.51.09,1,.21,1.52.33l.27.06h0a1.84,1.84,0,0,0,.47.06,1.93,1.93,0,0,0,.47-3.79L77,39.15c-.39-.08-.78-.18-1.17-.25s-.65-.1-1-.15-.71-.12-1.07-.16-.64-.06-1-.09l-1.12-.08-.91,0-.76,0V23.85A46,46,0,0,1,112.8,52.7a1.92,1.92,0,0,0,3.57-1.44A50,50,0,1,0,120,70C120,68.47,119.93,66.92,119.79,65.39ZM42.84,53.78a31.77,31.77,0,0,1,5.33-6.67A32.84,32.84,0,0,1,51,44.7a7.8,7.8,0,0,1-.27-2,7.91,7.91,0,1,1,2.16,5.41c-.72.57-1.43,1.16-2.09,1.79a28.15,28.15,0,0,0-4.69,5.86,1.93,1.93,0,0,1-1.65.94,1.82,1.82,0,0,1-1-.28A1.91,1.91,0,0,1,42.84,53.78ZM97.79,70A27.59,27.59,0,0,0,84.3,46.17h0a1.92,1.92,0,1,1,2-3.29c.6.36,1.18.74,1.75,1.14a31.92,31.92,0,0,1,13.6,26,31.85,31.85,0,0,1-.33,4.49s0,.09,0,.13c-.11.75-.25,1.49-.41,2.22h0a31.34,31.34,0,0,1-5.71,12.32,1.33,1.33,0,0,1-.16.17,31.64,31.64,0,0,1-9.34,8.13A4.37,4.37,0,1,1,84.07,94,27.85,27.85,0,0,0,97.79,70Z"/></g></svg>