<?xml version="1.0" encoding="UTF-8"?>
<svg id="Capa_1" data-name="Capa 1" xmlns="http://www.w3.org/2000/svg" viewBox="0 0 182.09 183.45">
  <defs>
    <style>
      .cls-1 {
        stroke-width: .3px;
      }

      .cls-1, .cls-2 {
        fill: none;
        stroke: #d8d8d8;
        stroke-miterlimit: 10;
      }

      .cls-2 {
        stroke-width: .5px;
      }
    </style>
  </defs>
  <circle class="cls-2" cx="90.72" cy="91.87" r="89.85"/>
  <circle class="cls-2" cx="90.72" cy="91.87" r="78"/>
  <circle class="cls-2" cx="90.72" cy="91.87" r="74"/>
  <g id="Central">
    <g id="grupo3_1">
      <path class="cls-2" d="M126.68,30.43c-2.79-1.53-6.1-3.13-9.9-4.56-3.64-1.37-7.02-2.33-10.01-3.01l4.48-20.07c3.84.85,8.17,2.04,12.83,3.76,4.89,1.8,9.14,3.81,12.73,5.75l-10.12,18.13Z"/>
      <path class="cls-1" d="M117.86,11.06c-.7-.27-1.51-.46-2.32-.69-.7-.2-1.48-.41-2.19-.51l.39-2.11c1.21.22,1.52.29,2.42.53s1.52.45,2.26.77l-.56,2.01Z"/>
      <path class="cls-1" d="M124.32,13.43c-.68-.32-1.47-.57-2.26-.87-.68-.25-1.45-.53-2.14-.68l.55-2.07c1.19.31,1.5.41,2.37.71s1.48.57,2.19.94l-.71,1.96Z"/>
      <path class="cls-1" d="M130.88,16.53c-.64-.39-1.41-.72-2.16-1.1-.65-.32-1.38-.67-2.06-.9l.77-2.01c1.15.44,1.45.56,2.28.96s1.41.72,2.08,1.17l-.92,1.88Z"/>
    </g>
    <g id="grupo3_1-2" data-name="grupo3_1">
      <path class="cls-2" d="M102.02,21.78c-3.15-.48-6.8-.84-10.87-.88-3.88-.04-7.39.22-10.44.61l-2.69-20.38c3.89-.53,8.37-.89,13.34-.88,5.21.01,9.89.44,13.93,1.02l-3.27,20.51Z"/>
      <path class="cls-1" d="M87.07,6.63c-.75-.01-1.58.09-2.42.15-.72.05-1.53.12-2.23.27l-.36-2.12c1.21-.21,1.53-.25,2.45-.34s1.58-.1,2.39-.05l.17,2.08Z"/>
      <path class="cls-1" d="M93.95,6.63c-.75-.07-1.58-.03-2.42-.04-.72,0-1.54,0-2.24.1l-.19-2.14c1.22-.11,1.55-.13,2.47-.15s1.58.03,2.38.13v2.09Z"/>
      <path class="cls-1" d="M101.18,7.29c-.73-.15-1.57-.19-2.4-.29-.72-.08-1.53-.16-2.24-.13l.03-2.15c1.23.02,1.55.03,2.47.11s1.57.19,2.36.38l-.21,2.08Z"/>
    </g>
    <g id="grupo3_1-3" data-name="grupo3_1">
      <path class="cls-2" d="M68.25,25.19c-3,1.07-6.38,2.5-9.98,4.4-3.43,1.82-6.4,3.72-8.89,5.51l-12.07-16.65c3.17-2.31,6.94-4.77,11.31-7.12,4.59-2.47,8.91-4.32,12.74-5.73l6.88,19.59Z"/>
      <path class="cls-1" d="M47.89,18.98c-.67.34-1.34.83-2.05,1.28-.61.39-1.29.84-1.83,1.3l-1.32-1.69c.97-.76,1.23-.95,2-1.46s1.35-.84,2.07-1.18l1.14,1.75Z"/>
      <path class="cls-1" d="M53.95,15.71c-.69.29-1.4.73-2.15,1.12-.64.34-1.35.73-1.93,1.16l-1.19-1.79c1.02-.68,1.3-.85,2.11-1.3s1.41-.73,2.16-1.02l1,1.84Z"/>
      <path class="cls-1" d="M60.62,12.84c-.72.22-1.47.58-2.25.89-.67.27-1.42.59-2.04.95l-.99-1.9c1.09-.57,1.38-.71,2.23-1.08s1.48-.58,2.25-.79l.8,1.93Z"/>
    </g>
    <g id="grupo3_1-4" data-name="grupo3_1">
      <path class="cls-2" d="M42.18,40.93c-2.26,2.24-4.72,4.97-7.17,8.22-2.34,3.1-4.21,6.08-5.71,8.76l-17.99-9.95c1.89-3.44,4.26-7.27,7.22-11.25,3.11-4.18,6.23-7.7,9.1-10.59l14.55,14.82Z"/>
      <path class="cls-1" d="M21.11,43.95c-.46.59-.86,1.32-1.31,2.03-.39.61-.81,1.31-1.11,1.96l-1.92-.97c.55-1.09.71-1.38,1.19-2.17s.86-1.33,1.37-1.95l1.77,1.1Z"/>
      <path class="cls-1" d="M25.2,38.41c-.5.56-.96,1.25-1.47,1.93-.43.58-.91,1.24-1.25,1.86l-1.83-1.12c.64-1.05.81-1.32,1.35-2.07s.96-1.26,1.52-1.84l1.68,1.24Z"/>
      <path class="cls-1" d="M30.03,32.99c-.56.5-1.09,1.15-1.66,1.76-.49.53-1.04,1.14-1.44,1.72l-1.71-1.3c.74-.98.94-1.23,1.56-1.92s1.09-1.15,1.7-1.67l1.55,1.41Z"/>
    </g>
    <g id="grupo3_1-5" data-name="grupo3_1">
      <path class="cls-2" d="M24.63,67.95c-1,3.02-1.97,6.56-2.69,10.57-.69,3.82-1.02,7.33-1.14,10.39l-20.55-.76c.13-3.93.52-8.41,1.36-13.3.88-5.14,2.09-9.68,3.34-13.56l19.67,6.66Z"/>
      <path class="cls-1" d="M7.19,80.15c-.14.74-.17,1.57-.26,2.41-.07.72-.14,1.53-.1,2.24h-2.15c0-1.23,0-1.55.08-2.48s.17-1.58.35-2.36l2.08.19Z"/>
      <path class="cls-1" d="M8.35,73.37c-.2.72-.29,1.55-.44,2.38-.13.71-.25,1.52-.28,2.23l-2.14-.17c.09-1.22.13-1.55.27-2.46s.29-1.56.53-2.33l2.06.35Z"/>
      <path class="cls-1" d="M10.21,66.35c-.27.7-.45,1.51-.69,2.32-.2.7-.41,1.48-.51,2.19l-2.11-.39c.22-1.21.29-1.53.52-2.42s.45-1.52.77-2.26l2.01.56Z"/>
    </g>
    <g id="grupo3_1-6" data-name="grupo3_1">
      <path class="cls-2" d="M150.05,52.34c-1.8-2.63-4.03-5.54-6.78-8.54-2.63-2.86-5.21-5.25-7.58-7.21l13.05-15.89c3.04,2.48,6.37,5.51,9.75,9.14,3.55,3.81,6.44,7.53,8.76,10.87l-17.21,11.62Z"/>
      <path class="cls-1" d="M150.91,31.07c-.5-.56-1.15-1.09-1.76-1.66-.53-.49-1.14-1.04-1.72-1.44l1.3-1.71c.98.74,1.23.94,1.92,1.56s1.15,1.09,1.67,1.71l-1.41,1.54Z"/>
      <path class="cls-1" d="M155.61,36.1c-.46-.59-1.06-1.18-1.63-1.79-.49-.53-1.05-1.12-1.61-1.57l1.43-1.6c.92.82,1.15,1.04,1.79,1.71s1.06,1.18,1.53,1.83l-1.52,1.43Z"/>
      <path class="cls-1" d="M160.06,41.83c-.39-.64-.93-1.28-1.43-1.95-.43-.58-.93-1.23-1.43-1.73l1.59-1.44c.83.91,1.04,1.15,1.61,1.88s.93,1.28,1.33,1.98l-1.66,1.26Z"/>
    </g>
    <g id="grupo3_1-7" data-name="grupo3_1">
      <path class="cls-2" d="M160.72,82.93c-.39-3.16-1.03-6.77-2.1-10.7-1.02-3.75-2.22-7.06-3.42-9.88l18.89-8.12c1.56,3.6,3.13,7.82,4.46,12.6,1.4,5.02,2.26,9.64,2.79,13.69l-20.63,2.41Z"/>
      <path class="cls-1" d="M171.25,64.43c-.19-.72-.52-1.49-.8-2.29-.24-.68-.53-1.44-.87-2.07l1.94-.92c.53,1.11.66,1.4.99,2.27s.52,1.5.7,2.28l-1.96.72Z"/>
      <path class="cls-1" d="M173.11,71.06c-.13-.74-.4-1.53-.62-2.34-.19-.7-.42-1.48-.7-2.13l2.01-.77c.44,1.15.55,1.45.81,2.34s.4,1.53.52,2.33l-2.01.57Z"/>
      <path class="cls-1" d="M174.44,78.19c-.05-.75-.24-1.56-.37-2.39-.12-.71-.26-1.52-.48-2.2l2.07-.55c.32,1.18.39,1.5.56,2.41s.24,1.57.27,2.37l-2.06.36Z"/>
    </g>
    <g id="grupo3_1-8" data-name="grupo3_1">
      <path class="cls-2" d="M55.41,153.02c2.79,1.53,6.1,3.13,9.9,4.56,3.64,1.37,7.02,2.33,10.01,3.01l-4.48,20.07c-3.84-.85-8.17-2.04-12.83-3.76-4.89-1.8-9.14-3.81-12.73-5.75l10.12-18.13Z"/>
      <path class="cls-1" d="M64.23,172.39c.7.27,1.51.46,2.32.69.7.2,1.48.41,2.19.51l-.39,2.11c-1.21-.22-1.52-.29-2.42-.53s-1.52-.45-2.26-.77l.56-2.01Z"/>
      <path class="cls-1" d="M57.77,170.02c.68.32,1.47.57,2.26.87.68.25,1.45.53,2.14.68l-.55,2.07c-1.19-.31-1.5-.41-2.37-.71s-1.48-.57-2.19-.94l.71-1.96Z"/>
      <path class="cls-1" d="M51.21,166.92c.64.39,1.41.72,2.16,1.1.65.32,1.38.67,2.06.9l-.77,2.01c-1.15-.44-1.45-.56-2.28-.96s-1.41-.72-2.08-1.17l.92-1.88Z"/>
    </g>
    <g id="grupo3_1-9" data-name="grupo3_1">
      <path class="cls-2" d="M80.07,161.67c3.15.48,6.8.84,10.87.88,3.88.04,7.39-.22,10.44-.61l2.69,20.38c-3.89.53-8.37.89-13.34.88-5.21-.01-9.89-.44-13.93-1.02l3.27-20.51Z"/>
      <path class="cls-1" d="M95.02,176.82c.75.01,1.58-.09,2.42-.15.72-.05,1.53-.12,2.23-.27l.36,2.12c-1.21.21-1.53.25-2.45.34s-1.58.1-2.39.05l-.17-2.08Z"/>
      <path class="cls-1" d="M88.14,176.82c.75.07,1.58.03,2.42.04.72,0,1.54,0,2.24-.1l.19,2.14c-1.22.11-1.55.13-2.47.15s-1.58-.03-2.38-.13v-2.09Z"/>
      <path class="cls-1" d="M80.91,176.16c.73.15,1.57.19,2.4.29.72.08,1.53.16,2.24.13l-.03,2.15c-1.23-.02-1.55-.03-2.47-.11s-1.57-.19-2.36-.38l.21-2.08Z"/>
    </g>
    <g id="grupo3_1-10" data-name="grupo3_1">
      <path class="cls-2" d="M113.84,158.26c3-1.07,6.38-2.5,9.98-4.4,3.43-1.82,6.4-3.72,8.89-5.51l12.07,16.65c-3.17,2.31-6.94,4.77-11.31,7.12-4.59,2.47-8.91,4.32-12.74,5.73l-6.88-19.59Z"/>
      <path class="cls-1" d="M134.2,164.47c.67-.34,1.34-.83,2.05-1.28.61-.39,1.29-.84,1.83-1.3l1.32,1.69c-.97.76-1.23.95-2,1.46s-1.35.84-2.07,1.18l-1.14-1.75Z"/>
      <path class="cls-1" d="M128.14,167.74c.69-.29,1.4-.73,2.15-1.12.64-.34,1.35-.73,1.93-1.16l1.19,1.79c-1.02.68-1.3.85-2.11,1.3s-1.41.73-2.16,1.02l-1-1.84Z"/>
      <path class="cls-1" d="M121.47,170.61c.72-.22,1.47-.58,2.25-.89.67-.27,1.42-.59,2.04-.95l.99,1.9c-1.09.57-1.38.71-2.23,1.08s-1.48.58-2.25.79l-.8-1.93Z"/>
    </g>
    <g id="grupo3_1-11" data-name="grupo3_1">
      <path class="cls-2" d="M139.91,142.52c2.26-2.24,4.72-4.97,7.17-8.22,2.34-3.1,4.21-6.08,5.71-8.76l17.99,9.95c-1.89,3.44-4.26,7.27-7.22,11.25-3.11,4.18-6.23,7.7-9.1,10.59l-14.55-14.82Z"/>
      <path class="cls-1" d="M160.98,139.5c.46-.59.86-1.32,1.31-2.03.39-.61.81-1.31,1.11-1.96l1.92.97c-.55,1.09-.71,1.38-1.19,2.17s-.86,1.33-1.37,1.95l-1.77-1.1Z"/>
      <path class="cls-1" d="M156.89,145.04c.5-.56.96-1.25,1.47-1.93.43-.58.91-1.24,1.25-1.86l1.83,1.12c-.64,1.05-.81,1.32-1.35,2.07s-.96,1.26-1.52,1.84l-1.68-1.24Z"/>
      <path class="cls-1" d="M152.06,150.46c.56-.5,1.09-1.15,1.66-1.76.49-.53,1.04-1.14,1.44-1.72l1.71,1.3c-.74.98-.94,1.23-1.56,1.92s-1.09,1.15-1.7,1.67l-1.55-1.41Z"/>
    </g>
    <g id="grupo3_1-12" data-name="grupo3_1">
      <path class="cls-2" d="M157.46,115.5c1-3.02,1.97-6.56,2.69-10.57.69-3.82,1.02-7.33,1.14-10.39l20.55.76c-.13,3.93-.52,8.41-1.36,13.3-.88,5.14-2.09,9.68-3.34,13.56l-19.67-6.66Z"/>
      <path class="cls-1" d="M174.9,103.3c.14-.74.17-1.57.26-2.41.07-.72.14-1.53.1-2.24h2.15c0,1.23,0,1.55-.08,2.48s-.17,1.58-.35,2.36l-2.08-.19Z"/>
      <path class="cls-1" d="M173.74,110.08c.2-.72.29-1.55.44-2.38.13-.71.25-1.52.28-2.23l2.14.17c-.09,1.22-.13,1.55-.27,2.46s-.29,1.56-.53,2.33l-2.06-.35Z"/>
      <path class="cls-1" d="M171.88,117.1c.27-.7.45-1.51.69-2.32.2-.7.41-1.48.51-2.19l2.11.39c-.22,1.21-.29,1.53-.52,2.42s-.45,1.52-.77,2.26l-2.01-.56Z"/>
    </g>
    <g id="grupo3_1-13" data-name="grupo3_1">
      <path class="cls-2" d="M32.04,131.11c1.8,2.63,4.03,5.54,6.78,8.54,2.63,2.86,5.21,5.25,7.58,7.21l-13.05,15.89c-3.04-2.48-6.37-5.51-9.75-9.14-3.55-3.81-6.44-7.53-8.76-10.87l17.21-11.62Z"/>
      <path class="cls-1" d="M31.18,152.38c.5.56,1.15,1.09,1.76,1.66.53.49,1.14,1.04,1.72,1.44l-1.3,1.71c-.98-.74-1.23-.94-1.92-1.56s-1.15-1.09-1.67-1.71l1.41-1.54Z"/>
      <path class="cls-1" d="M26.48,147.35c.46.59,1.06,1.18,1.63,1.79.49.53,1.05,1.12,1.61,1.57l-1.43,1.6c-.92-.82-1.15-1.04-1.79-1.71s-1.06-1.18-1.53-1.83l1.52-1.43Z"/>
      <path class="cls-1" d="M22.03,141.62c.39.64.93,1.28,1.43,1.95.43.58.93,1.23,1.43,1.73l-1.59,1.44c-.83-.91-1.04-1.15-1.61-1.88s-.93-1.28-1.33-1.98l1.66-1.26Z"/>
    </g>
    <g id="grupo3_1-14" data-name="grupo3_1">
      <path class="cls-2" d="M21.37,100.52c.39,3.16,1.03,6.77,2.1,10.7,1.02,3.75,2.22,7.06,3.42,9.88l-18.89,8.12c-1.56-3.6-3.13-7.82-4.46-12.6-1.4-5.02-2.26-9.64-2.79-13.69l20.63-2.41Z"/>
      <path class="cls-1" d="M10.84,119.02c.19.72.52,1.49.8,2.29.24.68.53,1.44.87,2.07l-1.94.92c-.53-1.11-.66-1.4-.99-2.27s-.52-1.5-.7-2.28l1.96-.72Z"/>
      <path class="cls-1" d="M8.98,112.39c.13.74.4,1.53.62,2.34.19.7.42,1.48.7,2.13l-2.01.77c-.44-1.15-.55-1.45-.81-2.34s-.4-1.53-.52-2.33l2.01-.57Z"/>
      <path class="cls-1" d="M7.65,105.26c.05.75.24,1.56.37,2.39.12.71.26,1.52.48,2.2l-2.07.55c-.32-1.18-.39-1.5-.56-2.41s-.24-1.57-.27-2.37l2.06-.36Z"/>
    </g>
  </g>
</svg>