<?xml version="1.0" encoding="UTF-8"?>
<svg id="Capa_1" data-name="Capa 1" xmlns="http://www.w3.org/2000/svg" viewBox="0 0 107.62 27.72">
  <defs>
    <style>
      .cls-1 {
        fill: #aaa;
      }

      .cls-2 {
        fill: #a4a3a3;
      }
    </style>
  </defs>
  <path class="cls-2" d="M8.1,8.26H3.62v3.77h5.29v2.38H.75V.2h8.14v2.39H3.62v3.36h4.47v2.31Z"/>
  <path class="cls-2" d="M20.2,9.68c-.07,1.62-.53,2.85-1.37,3.68s-2.02,1.25-3.55,1.25c-1.61,0-2.84-.53-3.7-1.59s-1.28-2.57-1.28-4.53v-2.39c0-1.95.44-3.46,1.33-4.52s2.12-1.59,3.69-1.59,2.73.43,3.53,1.3,1.26,2.11,1.37,3.73h-2.88c-.03-1-.18-1.69-.46-2.08s-.8-.57-1.56-.57-1.31.27-1.63.81-.49,1.42-.51,2.65v2.69c0,1.41.16,2.38.47,2.91s.86.79,1.63.79,1.28-.18,1.56-.55.45-1.03.49-2h2.87Z"/>
  <path class="cls-2" d="M31.98,8.58c0,1.91-.45,3.39-1.35,4.44s-2.15,1.58-3.75,1.58-2.85-.52-3.76-1.57-1.37-2.51-1.39-4.39v-2.43c0-1.95.45-3.48,1.36-4.58s2.16-1.65,3.77-1.65,2.83.54,3.74,1.62,1.37,2.59,1.39,4.54v2.43ZM29.1,6.2c0-1.28-.18-2.24-.55-2.86s-.93-.94-1.7-.94-1.32.3-1.69.9-.55,1.52-.57,2.75v2.53c0,1.24.19,2.16.56,2.75s.94.88,1.72.88,1.31-.29,1.67-.86.55-1.47.56-2.68v-2.47Z"/>
  <path class="cls-2" d="M40.05,10.68c0-.58-.15-1.02-.44-1.31s-.83-.6-1.62-.92c-1.43-.54-2.45-1.17-3.08-1.9s-.94-1.58-.94-2.57c0-1.2.42-2.16,1.27-2.89s1.93-1.09,3.24-1.09c.87,0,1.65.18,2.33.55s1.21.89,1.58,1.56.55,1.43.55,2.29h-2.86c0-.66-.14-1.17-.42-1.52s-.69-.52-1.23-.52c-.5,0-.89.15-1.17.44s-.42.69-.42,1.2c0,.39.16.74.47,1.06s.87.64,1.66.98c1.39.5,2.39,1.12,3.02,1.85s.94,1.66.94,2.78c0,1.24-.39,2.2-1.18,2.9s-1.86,1.04-3.21,1.04c-.92,0-1.75-.19-2.51-.57s-1.35-.92-1.77-1.62-.64-1.53-.64-2.49h2.88c0,.82.16,1.42.48,1.79s.84.56,1.56.56c1,0,1.5-.53,1.5-1.59Z"/>
  <path class="cls-2" d="M47.84,14.41h-2.87V.2h2.87v14.22Z"/>
  <path class="cls-2" d="M56.26,10.68c0-.58-.15-1.02-.44-1.31-.3-.3-.83-.6-1.62-.92-1.43-.54-2.45-1.17-3.08-1.9s-.94-1.58-.94-2.57c0-1.2.42-2.16,1.27-2.89s1.93-1.09,3.24-1.09c.87,0,1.65.18,2.33.55s1.21.89,1.58,1.56c.37.67.55,1.43.55,2.29h-2.86c0-.66-.14-1.17-.42-1.52s-.69-.52-1.23-.52c-.5,0-.89.15-1.17.44s-.42.69-.42,1.2c0,.39.16.74.47,1.06s.87.64,1.66.98c1.39.5,2.39,1.12,3.02,1.85.63.73.94,1.66.94,2.78,0,1.24-.39,2.2-1.18,2.9-.79.7-1.86,1.04-3.21,1.04-.92,0-1.75-.19-2.51-.57s-1.35-.92-1.77-1.62-.64-1.53-.64-2.49h2.88c0,.82.16,1.42.48,1.79s.84.56,1.56.56c1,0,1.5-.53,1.5-1.59Z"/>
  <path class="cls-2" d="M70.26,2.59h-3.52v11.83h-2.88V2.59h-3.46V.2h9.85v2.39Z"/>
  <path class="cls-2" d="M79.26,8.26h-4.47v3.77h5.29v2.38h-8.17V.2h8.15v2.39h-5.27v3.36h4.47v2.31Z"/>
  <path class="cls-2" d="M85.48.2l2.69,10.28L90.84.2h3.75v14.22h-2.88v-3.85l.26-5.93-2.84,9.78h-1.95l-2.84-9.78.26,5.93v3.85h-2.87V.2h3.75Z"/>
  <path class="cls-2" d="M103.68,11.5h-3.92l-.76,2.91h-3.04L100.41.2h2.63l4.47,14.22h-3.07l-.76-2.91ZM100.39,9.11h2.66l-1.33-5.07-1.33,5.07Z"/>
  <path class="cls-1" d="M.88,19.79l2.88,6.9,2.9-6.9h.88v7.82h-.66v-3.41l.05-3.49-2.91,6.9h-.51l-2.9-6.87.05,3.44v3.43h-.66v-7.82h.88Z"/>
  <path class="cls-1" d="M10.32,27.61h-.66v-7.82h.66v7.82Z"/>
  <path class="cls-1" d="M18.27,27.61h-.66l-4.5-6.69v6.69h-.67v-7.82h.67l4.5,6.7v-6.7h.66v7.82Z"/>
  <path class="cls-1" d="M21.06,27.61h-.66v-7.82h.66v7.82Z"/>
  <path class="cls-1" d="M27.61,25.69c0-.43-.15-.78-.46-1.03-.3-.25-.86-.49-1.67-.72-.81-.23-1.4-.48-1.77-.74-.53-.38-.79-.88-.79-1.49s.25-1.08.74-1.46c.49-.38,1.12-.56,1.89-.56.52,0,.98.1,1.39.3.41.2.73.48.95.84.23.36.34.76.34,1.2h-.67c0-.54-.18-.96-.55-1.29s-.86-.49-1.47-.49-1.07.13-1.43.4c-.35.27-.53.62-.53,1.05,0,.4.16.72.48.97s.83.47,1.53.66c.7.19,1.23.39,1.6.6s.63.45.82.74c.18.29.27.62.27,1.02,0,.62-.25,1.11-.74,1.48-.49.37-1.14.56-1.95.56-.55,0-1.06-.1-1.52-.3-.46-.2-.81-.47-1.05-.83-.24-.35-.36-.76-.36-1.22h.66c0,.55.21.99.62,1.3.41.32.96.48,1.64.48.61,0,1.1-.13,1.47-.4s.55-.62.55-1.07Z"/>
  <path class="cls-1" d="M35,20.35h-2.68v7.26h-.66v-7.26h-2.67v-.56h6.02v.56Z"/>
  <path class="cls-1" d="M40.58,23.87h-3.66v3.19h4.21v.56h-4.87v-7.82h4.84v.56h-4.18v2.95h3.66v.56Z"/>
  <path class="cls-1" d="M45.44,24.35h-2.27v3.26h-.67v-7.82h2.54c.83,0,1.49.2,1.96.61.47.4.7.97.7,1.7,0,.5-.15.94-.44,1.32s-.69.65-1.18.79l1.96,3.33v.07h-.7l-1.89-3.26ZM43.17,23.79h2.02c.56,0,1-.16,1.34-.47.34-.32.5-.72.5-1.23,0-.55-.18-.98-.53-1.29s-.84-.46-1.48-.46h-1.86v3.44Z"/>
  <path class="cls-1" d="M50.31,27.61h-.66v-7.82h.66v7.82Z"/>
  <path class="cls-1" d="M58.21,24.13c0,.72-.12,1.35-.37,1.9-.25.54-.6.96-1.07,1.26-.46.29-1,.44-1.6.44-.91,0-1.65-.33-2.21-.98s-.84-1.54-.84-2.65v-.81c0-.71.13-1.34.38-1.89.25-.55.61-.97,1.07-1.27.46-.3.99-.44,1.6-.44s1.13.14,1.59.43c.46.29.82.7,1.07,1.23.25.53.38,1.14.39,1.84v.93ZM57.55,23.28c0-.94-.21-1.68-.64-2.21-.43-.53-1.01-.8-1.75-.8s-1.31.27-1.74.8c-.43.54-.65,1.28-.65,2.24v.82c0,.93.21,1.66.64,2.21.43.54,1.01.81,1.75.81s1.33-.27,1.75-.8.63-1.28.63-2.24v-.83Z"/>
  <path class="cls-1" d="M65.89,24.43v3.19h-.66v-7.82h2.66c.81,0,1.45.21,1.93.62.47.42.71.99.71,1.71s-.23,1.3-.68,1.7-1.11.6-1.97.6h-1.99ZM65.89,23.87h2c.64,0,1.13-.15,1.47-.46.34-.3.5-.73.5-1.27s-.17-.97-.5-1.29c-.33-.32-.81-.49-1.43-.49h-2.05v3.52Z"/>
  <path class="cls-1" d="M77.39,19.79v5.34c0,.53-.12.98-.35,1.38-.23.39-.55.69-.97.9-.42.21-.9.31-1.44.31-.82,0-1.48-.22-1.98-.67-.5-.45-.75-1.07-.77-1.87v-5.39h.66v5.29c0,.66.19,1.17.56,1.53.38.36.89.54,1.53.54s1.15-.18,1.53-.55c.37-.37.56-.87.56-1.53v-5.3h.67ZM75.32,17.67h.78l-1.24,1.5h-.56s1.03-1.5,1.03-1.5Z"/>
  <path class="cls-1" d="M79.23,27.61v-7.82h2.31c.84,0,1.47.17,1.91.52.43.35.65.86.65,1.53,0,.4-.11.76-.33,1.06-.22.3-.52.51-.91.64.46.1.82.32,1.1.67.28.35.42.75.42,1.2,0,.69-.22,1.23-.67,1.62-.45.39-1.07.58-1.86.58h-2.62ZM79.89,23.3h1.8c.55-.01.98-.14,1.28-.39.3-.25.45-.61.45-1.09,0-.5-.16-.87-.47-1.11-.31-.24-.79-.36-1.42-.36h-1.65v2.95ZM79.89,23.86v3.2h1.98c.57,0,1.01-.14,1.35-.43.33-.29.5-.69.5-1.2,0-.48-.16-.86-.47-1.15-.32-.28-.75-.42-1.31-.42h-2.04Z"/>
  <path class="cls-1" d="M86.64,27.06h3.86v.56h-4.53v-7.82h.67v7.26Z"/>
  <path class="cls-1" d="M92.57,27.61h-.66v-7.82h.66v7.82Z"/>
  <path class="cls-1" d="M100.23,25.18c-.09.82-.38,1.45-.88,1.89-.5.44-1.17.66-2,.66-.58,0-1.09-.15-1.54-.44-.45-.29-.79-.7-1.03-1.23-.24-.53-.37-1.14-.37-1.82v-1.02c0-.69.12-1.31.37-1.85.24-.54.59-.95,1.05-1.24.46-.29.98-.44,1.58-.44.84,0,1.5.23,1.98.68s.77,1.08.85,1.87h-.67c-.16-1.33-.89-1.99-2.16-1.99-.71,0-1.27.26-1.69.79-.42.53-.63,1.26-.63,2.2v.96c0,.9.21,1.62.62,2.16.41.54.96.81,1.66.81s1.21-.17,1.56-.5.57-.83.65-1.49h.67Z"/>
  <path class="cls-1" d="M107.62,24.13c0,.72-.12,1.35-.37,1.9-.25.54-.6.96-1.07,1.26-.46.29-1,.44-1.6.44-.91,0-1.65-.33-2.21-.98s-.84-1.54-.84-2.65v-.81c0-.71.13-1.34.38-1.89.25-.55.61-.97,1.07-1.27.46-.3.99-.44,1.6-.44s1.13.14,1.59.43.82.7,1.07,1.23c.25.53.38,1.14.39,1.84v.93ZM106.96,23.28c0-.94-.21-1.68-.64-2.21-.43-.53-1.01-.8-1.75-.8s-1.31.27-1.74.8-.65,1.28-.65,2.24v.82c0,.93.21,1.66.64,2.21.43.54,1.01.81,1.75.81s1.33-.27,1.75-.8.63-1.28.63-2.24v-.83Z"/>
</svg>