<svg xmlns="http://www.w3.org/2000/svg" viewBox="0 0 500 500"><g id="freepik--background-simple--inject-68"><path d="M312.13,44.81,311,46.41c-9.67,13.47-11.43,31.13-4.05,45.8a42.71,42.71,0,0,0,3.25,5.44,46.68,46.68,0,0,0,39.63,19.26c9.05-.42,18.39-3.44,26.94-.56,11.13,3.74,16.59,15.83,20.82,26.7s9.72,22.95,20.87,26.64c7,2.32,14.81.67,21.45-2.59,17.58-8.62,28.32-28,29.52-47.36s-6.08-38.42-17-54.37C437,43,413.61,25.55,386.75,20.49S329.92,24,312.13,44.81Z" style="fill:#f5f5f5"></path><path d="M156.91,449.66l1.51-1.26c12.72-10.63,18.83-27.29,15.35-43.34A42.85,42.85,0,0,0,172,399a46.67,46.67,0,0,0-33.57-28.54c-8.87-1.85-18.66-1.25-26.23-6.18-9.84-6.4-12.11-19.47-13.5-31.05s-3.69-24.64-13.56-31c-6.18-4-14.17-4.33-21.41-2.83-19.18,4-34.42,20.06-40.41,38.49s-3.7,38.73,2.93,56.9C35.5,420.23,53.84,443,78.58,454.6S134.49,465.36,156.91,449.66Z" style="fill:#f5f5f5"></path></g><g id="freepik--Character--inject-68"><path d="M269.06,156.51l2.23-.07a43.19,43.19,0,0,1,44.27,38.36c2.34,20.79,4.65,43.8,4.87,55,.44,23.18-22.62,27.51-22.62,27.51l.58,9.43a28.15,28.15,0,0,1-26.52,29.83h0a28.16,28.16,0,0,1-29.66-26.16l-6-86.09C233.4,180.32,245,158.68,269.06,156.51Z" style="fill:#ffbf9d"></path><path d="M298,277.25s-14.76,1.35-30.63-7.93c0,0,7.66,16.44,30.71,13.63Z" style="fill:#ff9a6c"></path><path d="M305.23,214.86a3.31,3.31,0,0,1-3.09,3.44,3.17,3.17,0,0,1-3.5-2.88,3.31,3.31,0,0,1,3.08-3.44A3.18,3.18,0,0,1,305.23,214.86Z" style="fill:#263238"></path><path d="M310.94,206.27c-.4.45-3-1.33-6.52-1.21s-6.11,2-6.51,1.56c-.2-.18.2-1,1.31-1.84a9.07,9.07,0,0,1,5.19-1.78,8.73,8.73,0,0,1,5.21,1.5C310.74,205.3,311.14,206.07,310.94,206.27Z" style="fill:#263238"></path><path d="M274,216.12a3.3,3.3,0,0,1-3.09,3.43,3.16,3.16,0,0,1-3.5-2.87,3.32,3.32,0,0,1,3.08-3.44A3.17,3.17,0,0,1,274,216.12Z" style="fill:#263238"></path><path d="M276,208c-.4.45-3-1.33-6.52-1.2s-6.11,2-6.51,1.55c-.2-.18.19-1,1.31-1.84a9.07,9.07,0,0,1,5.19-1.78,8.73,8.73,0,0,1,5.21,1.5C275.77,207.07,276.17,207.84,276,208Z" style="fill:#263238"></path><path d="M289.72,234c0-.2,2.18-.66,5.75-1.23.9-.12,1.76-.33,1.89-1a4.72,4.72,0,0,0-.69-2.68q-1.38-3.25-2.91-6.83c-4-9.74-7-17.76-6.6-17.92s4,7.61,8,17.34q1.47,3.6,2.79,6.88c.38,1,1,2.18.59,3.56a2.31,2.31,0,0,1-1.45,1.37,6,6,0,0,1-1.54.27C292,234.14,289.74,234.23,289.72,234Z" style="fill:#263238"></path><path d="M276.45,194.06c-.32,1-3.89.63-8.05,1.26s-7.5,1.88-8.08,1c-.26-.41.3-1.34,1.63-2.32a14.14,14.14,0,0,1,12.29-1.74C275.79,192.86,276.59,193.59,276.45,194.06Z" style="fill:#263238"></path><path d="M309.31,196c-.6.83-3.08.07-6,.12s-5.43.72-6-.11c-.27-.4.1-1.23,1.17-2a8.77,8.77,0,0,1,9.72,0C309.2,194.79,309.57,195.61,309.31,196Z" style="fill:#263238"></path><path d="M313,184.23s-6.56-14.31-13.66-17.48c-8.6-3.83-11.95,5.58-20.09,3.58s-16.35-5.69-24.4.81c-8.82,7.11-4.44,11.77-4.67,22.07-1,41.74-8.19,53.76-11,34.2-.3-2.14-6.32-3.67-7.49-12.72-1.52-11.75-2.42-26-.05-34.48,2-7.12,5.86-12.11,12.89-17.71,11.11-8.83,26.73-9.5,37.37-8.76S313.4,166,313,184.23Z" style="fill:#263238"></path><path d="M240.66,226.73a6.29,6.29,0,0,0-7-5.84c-4.3.54-9,3.15-8.47,12.06,1,15.82,16.68,11.55,16.68,11.1S241.14,233.35,240.66,226.73Z" style="fill:#ffbf9d"></path><path d="M238.07,238.31c-.07,0-.26.22-.72.46a2.71,2.71,0,0,1-2,.17c-1.71-.51-3.29-3.07-3.55-5.92a9.26,9.26,0,0,1,.52-4,3.21,3.21,0,0,1,1.94-2.25,1.42,1.42,0,0,1,1.68.65c.24.43.16.76.24.78s.32-.29.16-.94a1.84,1.84,0,0,0-.69-1,2.11,2.11,0,0,0-1.55-.3,3.87,3.87,0,0,0-2.72,2.63,9.33,9.33,0,0,0-.68,4.47c.31,3.18,2.13,6.06,4.46,6.58a3,3,0,0,0,2.49-.58C238.06,238.7,238.13,238.34,238.07,238.31Z" style="fill:#ff9a6c"></path><path d="M316.8,167.2c-2.38-1.89-5.72-2.24-8.08-4.15-4.31-3.48-4.29-11.14-9.4-13.27-3-1.27-6.5.1-9.75-.32-5.27-.69-7.2-4.73-15.22-5-10.41-.3-14,7.38-14,7.38a12,12,0,0,0-12,.81c-4.8,3.07-5.28,9.45-5.28,9.45s-1.62-.88-6.73,2.94c-3.24,2.43-6,7.78-7.24,11.63-1.87,5.74.49,11.92,2.81,17.49,1.25,3,2.82,6.35,5.89,7.47,3.74,1.37,8-1.47,9.55-5.13s4-7.33,5.88-10.84c3.27-6.1,6.61-11.78,4.1-15.8a18,18,0,0,1,11.12.23c3.59,1.29,6.7,3.7,10.26,5.07s8.14,1.41,10.66-1.46c1.7,4.44,8.25,6,11.8,2.88,2.7,4.74,9.32,7.06,14.06,4.37S321.07,170.59,316.8,167.2Z" style="fill:#263238"></path><path d="M230.45,190.45c.15-.07.74,1.41,1.74,3.66a7.81,7.81,0,0,0,2.52,3.27,6.88,6.88,0,0,0,4.88.69,11.83,11.83,0,0,0,4.79-1.88,18.54,18.54,0,0,0,3.17-2.89c1.64-1.86,2.6-3.1,2.72-3a13.33,13.33,0,0,1-2.21,3.44,17.31,17.31,0,0,1-3.18,3.18,12,12,0,0,1-5.14,2.09,7.56,7.56,0,0,1-5.52-.9,8,8,0,0,1-2.64-3.72A16.11,16.11,0,0,1,230.45,190.45Z" style="fill:#455a64"></path><path d="M230.73,202.66a12.71,12.71,0,0,0,3.08,1.82,8.92,8.92,0,0,0,3.77.42,10.74,10.74,0,0,0,4.38-1.54,21.5,21.5,0,0,0,6.11-6.11,17.51,17.51,0,0,1,2.23-2.94,12.51,12.51,0,0,1-1.67,3.31,19.32,19.32,0,0,1-6.18,6.55,10.91,10.91,0,0,1-4.8,1.59,8.68,8.68,0,0,1-4.08-.66C231.36,204.12,230.64,202.68,230.73,202.66Z" style="fill:#455a64"></path><path d="M231.07,211.75a15.31,15.31,0,0,0,3.06,1.37,9.65,9.65,0,0,0,7.61-1.51,22.35,22.35,0,0,0,5.66-5.82c1.23-1.72,2-2.81,2.12-2.73a11.6,11.6,0,0,1-1.57,3.1,19.17,19.17,0,0,1-5.7,6.24,11,11,0,0,1-4.43,1.7,8.67,8.67,0,0,1-3.87-.34C231.8,213,231,211.79,231.07,211.75Z" style="fill:#455a64"></path><path d="M279.47,239.58a20.08,20.08,0,0,0-1,5.29c-.27,1.86.49,3.2,1.6,4.71a6.66,6.66,0,0,0,5.06,2.5h.06a7.39,7.39,0,0,0,7.45-6.09l.73-3.9C289.65,241,279.74,239.84,279.47,239.58Z" style="fill:#ff9a6c"></path><path d="M288.91,251.05c0-.08-.47,0-1.27.09a10.83,10.83,0,0,1-3.34-.06,6.5,6.5,0,0,1-4-2.48,8.19,8.19,0,0,1-1.45-5.59,8.29,8.29,0,0,1,.93-3.19l-.49.23c3.54.63,6.63,1.14,8.85,1.46a15.09,15.09,0,0,0,3.57.35,15.2,15.2,0,0,0-3.46-1c-2.19-.48-5.26-1.11-8.79-1.79l-.33-.06-.17.3a8.7,8.7,0,0,0-1.07,3.56,8.8,8.8,0,0,0,1.71,6.23,7.07,7.07,0,0,0,4.6,2.61,9.13,9.13,0,0,0,3.52-.25A2.9,2.9,0,0,0,288.91,251.05Z" style="fill:#263238"></path><path d="M242.21,290.39s26.63,19.43,30.85,18.19,25-18.19,25-18.19L332.78,324,346,478.11H218.51l3.55-128.49Z" style="fill:#f5f5f5"></path><path d="M393.33,300.65l-1.88,7.56s-39.69-13-46-12.44-10.08,36.73-10.08,36.73,20.15,28.24,20.94,28.05,37.92-4.35,54.9-7.71,27.46-8.49,30.22-22.12,0-23.5-1-24.29-6.72-3.55-6.72-3.55Z" style="fill:#455a64"></path><path d="M133,413.64s-5,6.08-5,11,0,17.32,4,26.45,2.34,10.06,9.36,13.34a32.7,32.7,0,0,0,14.28,2.81s20.2-7.65,24.42-18.18S195,416.55,195,416.55V303.4s-22.23,8-27.85,27.15-18.49,68.81-18.49,68.81Z" style="fill:#455a64"></path><path d="M242,279.76,230.7,292.58,195,303.4l-1.63,111.88-2.9,62.83H242s2.38-15.78,6.26-39.65,7.46-43.55,8.06-56.38,5.67-25.95,0-41.47S242,301.53,242.93,293.48A36.35,36.35,0,0,0,242,279.76Z" style="fill:#455a64"></path><path d="M253.82,362.91a.53.53,0,0,1,0-.22c0-.17.07-.38.11-.64.11-.55.23-1.38.36-2.45a37.92,37.92,0,0,0-4.11-22.06,64.71,64.71,0,0,0-4.45-6.81,21.52,21.52,0,0,1-2.13-3.83,9.61,9.61,0,0,1-.77-4.49l.29.28a7.15,7.15,0,0,1-4-.84,7.46,7.46,0,0,1-3.88-5l.4.17a24.35,24.35,0,0,0-7.14,7.28l-.53.85.08-1c.79-8.86,1.46-16.45,1.93-21.87.26-2.65.46-4.77.6-6.27.08-.7.14-1.25.18-1.67a4.24,4.24,0,0,1,.09-.57,3.63,3.63,0,0,1,0,.58c0,.42-.06,1-.1,1.67-.11,1.51-.26,3.63-.46,6.28-.43,5.42-1,13-1.74,21.89l-.45-.15a24.78,24.78,0,0,1,7.27-7.46l.32-.21.07.38a7,7,0,0,0,3.61,4.68,6.59,6.59,0,0,0,3.71.78l.31,0,0,.31a9.23,9.23,0,0,0,.72,4.26,21.29,21.29,0,0,0,2.08,3.74l2.37,3.43,1.1,1.71,1,1.73a37,37,0,0,1,4,13.12,35.4,35.4,0,0,1-.12,9.19,20.84,20.84,0,0,1-.46,2.44l-.15.63A1.26,1.26,0,0,1,253.82,362.91Z" style="fill:#263238"></path><path d="M365.4,401.72c0-1.18-4.81-67.09-4.81-67.09l-13.67-38.88s-34.32-4.39-34.91-4.39-11.18-11.6-11.18-11.6-11.57,22-13.53,34.43-2.75,20.32,0,33.66,15.1,53.15,17.45,66.88,12.59,53.49,13.57,63.89l51.51-.51C368.26,463.59,365.4,402.89,365.4,401.72Z" style="fill:#455a64"></path><path d="M358.15,318a5.09,5.09,0,0,1,.18.85c.11.61.24,1.43.42,2.46s.37,2.38.57,3.91.44,3.26.65,5.18c.91,7.69,1.89,18.34,2.77,30.12s1.52,22.45,1.94,30.18c.18,3.83.33,6.95.44,9.16,0,1,.06,1.87.08,2.49a4.8,4.8,0,0,1,0,.87,5.49,5.49,0,0,1-.1-.86q-.08-.93-.18-2.49c-.15-2.21-.36-5.32-.61-9.14-.51-7.73-1.2-18.4-2.09-30.17s-1.8-22.43-2.62-30.12c-.18-1.92-.4-3.66-.57-5.19s-.33-2.84-.48-3.91-.24-1.86-.32-2.47A6.86,6.86,0,0,1,358.15,318Z" style="fill:#263238"></path><path d="M312.7,293a.74.74,0,0,1,0,.22c0,.17-.07.37-.11.63-.12.59-.27,1.4-.47,2.42-.41,2.11-1,5.18-1.59,9s-1.33,8.4-2.14,13.5-1.76,10.75-3.08,16.67l-.11.52-.34-.42a21.52,21.52,0,0,0-12.7-7.56l.29-.23a95.45,95.45,0,0,0,.9,26.08c.56,3.22,1.15,5.76,1.58,7.5l.52,2a5.26,5.26,0,0,1,.15.7,3.64,3.64,0,0,1-.24-.68c-.14-.45-.36-1.1-.6-2-.49-1.73-1.13-4.27-1.73-7.49a92.1,92.1,0,0,1-1.08-26.19l0-.27.27,0a21.86,21.86,0,0,1,9.84,4.56,21.16,21.16,0,0,1,3.17,3.18l-.45.1c1.32-5.89,2.27-11.53,3.12-16.63s1.58-9.67,2.25-13.48,1.28-6.88,1.75-9c.22-1,.43-1.86.56-2.4.06-.25.12-.46.16-.62A.8.8,0,0,1,312.7,293Z" style="fill:#263238"></path><path d="M194.18,353.26a3.72,3.72,0,0,1,.07.74l.12,2.13c.1,1.86.2,4.54.3,7.86.2,6.63.34,15.8.24,25.92s-.42,19.3-.74,25.92c-.17,3.32-.32,6-.45,7.85-.07.89-.12,1.59-.16,2.13a4.78,4.78,0,0,1-.09.74,3.26,3.26,0,0,1,0-.74l.07-2.14c.06-1.91.16-4.58.28-7.85.23-6.63.49-15.79.59-25.91s0-19.28-.09-25.92c-.05-3.27-.1-5.94-.13-7.85,0-.89,0-1.6,0-2.14A3.48,3.48,0,0,1,194.18,353.26Z" style="fill:#263238"></path><path d="M424.13,327.41a8.67,8.67,0,0,1-1.61,0,30.4,30.4,0,0,1-4.36-.56,51.8,51.8,0,0,1-13.57-5c-2.52-1.31-4.86-2.62-6.94-4a16,16,0,0,1-4.77-4.47,9.11,9.11,0,0,1-1.53-4.13,6.7,6.7,0,0,1,0-1.2,1.21,1.21,0,0,1,.09-.42c.05,0,0,.58.11,1.59a9.54,9.54,0,0,0,1.63,4,16,16,0,0,0,4.73,4.26c2.06,1.29,4.42,2.6,6.91,3.89a55.8,55.8,0,0,0,13.41,5.12,42.18,42.18,0,0,0,4.3.72A10.79,10.79,0,0,1,424.13,327.41Z" style="fill:#263238"></path><path d="M405.14,333.61a5.33,5.33,0,0,1-1.13-.52,10.2,10.2,0,0,1-1.26-.71,17.38,17.38,0,0,1-1.6-1.08,26.67,26.67,0,0,1-3.76-3.31,30.31,30.31,0,0,1-3.71-4.91,30.92,30.92,0,0,1-2.57-5.58,26.69,26.69,0,0,1-1.14-4.88,16.34,16.34,0,0,1-.19-1.92,10.64,10.64,0,0,1,0-1.45,5.56,5.56,0,0,1,.08-1.24c.11,0,0,1.77.51,4.55a30.42,30.42,0,0,0,1.23,4.78,33.49,33.49,0,0,0,2.57,5.48,32.59,32.59,0,0,0,3.61,4.84,29.69,29.69,0,0,0,3.63,3.35C403.6,332.74,405.19,333.51,405.14,333.61Z" style="fill:#263238"></path><g style="opacity:0.30000000000000004"><path d="M181.05,324.61c-5.64-.28-11,3-14.52,7.43s-5.41,9.9-6.92,15.34a141,141,0,0,0-1.45,69.53l14.65,8.85c7.35-16.21-1.27-35.54,2.93-52.83,1.42-5.85,4.25-11.23,7.07-16.55l6.48-12.27c1.49-2.81,3-5.78,3-9C192.17,329.5,186.69,324.89,181.05,324.61Z"></path></g><path d="M147,358.82a108,108,0,0,1,2.16-14c1.62-7,7.19-32.73,8.45-35.07s3.24-5.58,8.64-4.14,14.92,3.06,16.54,5a7.82,7.82,0,0,1,1.8,3.77s3.78,2.88,4,4.68a10.18,10.18,0,0,1,0,2.7s2.7-.32,2.34,3.17-1.08,2.76-1.08,2.76,3.24.72,2.34,3.42-3.6,5.58-5.58,7.2-6.11.54-6.11.54a64.28,64.28,0,0,1-5.22,12.41c-3.24,5.57-6.48,7.55-6.48,7.55Z" style="fill:#ffbf9d"></path><path d="M189.32,327.29a8.86,8.86,0,0,1-2.11-.32l-2.26-.5-1.32-.31a5.57,5.57,0,0,1-1.46-.46,2.16,2.16,0,0,1-1-1.27,6,6,0,0,0-.53-1.2,5.15,5.15,0,0,0-1.53-1.58,11.69,11.69,0,0,0-1.89-.86,3.25,3.25,0,0,1,2.09.55,5,5,0,0,1,1.73,1.64c.57.73.59,1.89,1.36,2.27a5.92,5.92,0,0,0,1.33.42l1.32.34,2.23.6A9,9,0,0,1,189.32,327.29Z" style="fill:#ff9a6c"></path><path d="M188.42,321.15a8.18,8.18,0,0,0-2.56-1.75,15.14,15.14,0,0,0-3.29-.87,19.57,19.57,0,0,1-4.15-1,22.58,22.58,0,0,0-3.89-1.53,10.1,10.1,0,0,0-3.36-.18,19.51,19.51,0,0,0-3,.75,2.1,2.1,0,0,1,.74-.44,8.44,8.44,0,0,1,2.26-.67,9.51,9.51,0,0,1,3.51.07,21.12,21.12,0,0,1,4,1.52,21.23,21.23,0,0,0,4,1,14.15,14.15,0,0,1,3.35,1,6.07,6.07,0,0,1,1.93,1.38C188.31,320.85,188.45,321.14,188.42,321.15Z" style="fill:#ff9a6c"></path><path d="M183.54,314.19c0,.08-1.11-.74-3.08-1.51a15.65,15.65,0,0,0-3.58-.92c-.7-.09-1.42-.1-2.2-.14a5.18,5.18,0,0,1-2.4-.63c-.74-.42-1.34-1-2-1.35a5.31,5.31,0,0,0-2-.74,8.28,8.28,0,0,0-3.62.29c-2,.62-3.19,1.27-3.23,1.17a3,3,0,0,1,.79-.5,15.57,15.57,0,0,1,2.34-1,8.14,8.14,0,0,1,3.8-.4,5.58,5.58,0,0,1,2.17.78c.68.41,1.28,1,2,1.33,1.34.8,3,.48,4.4.75a13.73,13.73,0,0,1,3.66,1,12.26,12.26,0,0,1,2.23,1.25A2.88,2.88,0,0,1,183.54,314.19Z" style="fill:#ff9a6c"></path><path d="M187.23,336.62s-.51.33-1.45.17a3,3,0,0,1-1.48-.76,3.13,3.13,0,0,1-.94-1.88h.5a6,6,0,0,1-.33,1.31,3,3,0,0,1-1.59,1.76,2.06,2.06,0,0,1-2-.16l.28-.27a2.31,2.31,0,0,1,.35,1.62c-.06.39-.19.57-.22.56s0-.22,0-.58a2.39,2.39,0,0,0-.46-1.38l-.67-.88.94.61a1.65,1.65,0,0,0,1.58,0,2.58,2.58,0,0,0,1.3-1.5,6.42,6.42,0,0,0,.31-1.2l.3-1.91.2,1.92a2.82,2.82,0,0,0,.75,1.62,2.85,2.85,0,0,0,1.25.76A7.16,7.16,0,0,0,187.23,336.62Z" style="fill:#ff9a6c"></path><path d="M172.36,425.52s-7.85-52.42-3.64-66.7l-4.68-6-17.08,6S133.31,412,133,422.93c0,0-1.52,13.21,15.78,13.21S172.36,425.52,172.36,425.52Z" style="fill:#ffbf9d"></path><g style="opacity:0.30000000000000004"><path d="M312.45,294.18c-2.91,12-4.5,29.24-7.41,41.24-3.5-3.32-7.62-6.69-12.86-7.65.15,2.24-.67,4-.52,6.27L293,354a64.09,64.09,0,0,1,2.23-18.59L307.4,346l4.38-14.23c.34-1.1.64-2.22.87-3.35C314.51,319.17,313.75,303.48,312.45,294.18Z"></path></g><g style="opacity:0.30000000000000004"><path d="M312.28,330.49c-.17.39-.31.8-.48,1.19,0,.16-.09.32-.14.47Z"></path></g><path d="M349.61,191.36s-4.76,0-1.95,6,3.25,5.84,4.54,6.49,9.08,2.81,9.08,2.81,2.81,5.4,11.67,5.19L390.89,197s-11.46-14.69-14.27-21-5.61-10.81-8.86-10.16c0,0-4.75-.72-6.44,2.21s-9.91,8.56-11.83,10.81-3.94,5.75-3.72,7.44S349.61,191.36,349.61,191.36Z" style="fill:#ffbf9d"></path><path d="M366.22,208.1a2.59,2.59,0,0,1-.91-.71,7.41,7.41,0,0,1-1.59-2.72,18.78,18.78,0,0,1-.86-4.57,18.75,18.75,0,0,0-1.08-5.45c-.74-1.83-1.76-3.47-2.4-5.12a8.7,8.7,0,0,1-.72-4.61,5.13,5.13,0,0,1,1.36-2.84,3.2,3.2,0,0,1,.68-.54.86.86,0,0,1,.27-.12s-.34.24-.8.79A5.39,5.39,0,0,0,359,185a8.65,8.65,0,0,0,.8,4.38c.65,1.59,1.68,3.21,2.44,5.11a18.33,18.33,0,0,1,1.08,5.6,19.49,19.49,0,0,0,.73,4.5A8.14,8.14,0,0,0,366.22,208.1Z" style="fill:#ff9a6c"></path><path d="M362.1,194.76a4.13,4.13,0,0,1-1.78.78,6.48,6.48,0,0,1-2.13.16,15.9,15.9,0,0,1-2.55-.47,10.84,10.84,0,0,1-4.13-2.21,4.82,4.82,0,0,1-1.28-1.46,15.62,15.62,0,0,1,1.51,1.17,12.65,12.65,0,0,0,4,2,10.55,10.55,0,0,0,4.47.45C361.38,195,362.07,194.68,362.1,194.76Z" style="fill:#ff9a6c"></path><path d="M354.3,181.28s.56.28,1.11,1.09a5.47,5.47,0,0,1,.85,3.73l-.08-.23a3.09,3.09,0,0,1,.4.47,2.74,2.74,0,0,1,.18,2.7l-.28-.33a3.57,3.57,0,0,1,2.42.2c.54.26.76.53.73.56s-.31-.14-.83-.3a3.55,3.55,0,0,0-2.18,0l-.52.17.24-.49a2.34,2.34,0,0,0-.2-2.22,2.25,2.25,0,0,0-.31-.37l-.1-.1,0-.13a5.71,5.71,0,0,0-.64-3.47C354.67,181.74,354.25,181.34,354.3,181.28Z" style="fill:#ff9a6c"></path><path d="M358.86,186.48c0,.06-.1.2-.39.3a1.81,1.81,0,0,1-1.14-.05,1.77,1.77,0,0,1-.9-.71c-.15-.25-.16-.44-.1-.47s.49.45,1.18.69S358.8,186.35,358.86,186.48Z" style="fill:#ff9a6c"></path><path d="M363,199a5.81,5.81,0,0,1,.49,2.16,2.93,2.93,0,0,1,0,.58.79.79,0,0,1-.14.34c-.06.14-.33.21-.38.21a4,4,0,0,1-.65.12,1.58,1.58,0,0,1-.72-.24,11.61,11.61,0,0,1-2.42-1.72,20.81,20.81,0,0,1-3.36-4.14,8.1,8.1,0,0,1-1.06-1.93,10.53,10.53,0,0,1,1.36,1.72,27.64,27.64,0,0,0,3.41,4,13.41,13.41,0,0,0,2.3,1.68,1.3,1.3,0,0,0,.5.2,3.41,3.41,0,0,0,.56-.08c.22.06.25-.4.26-.7C363.09,199.82,362.9,199,363,199Z" style="fill:#ff9a6c"></path><path d="M354.81,203.45a23,23,0,0,0,1.26-3,23.59,23.59,0,0,0,.35-3.21,5.63,5.63,0,0,1-1.61,6.19Z" style="fill:#ff9a6c"></path><path d="M370.51,170.89A7,7,0,0,0,369,168a7.16,7.16,0,0,0-2.93-1.39c0-.06.39-.17,1-.08a4.09,4.09,0,0,1,2.25,1.1,4.14,4.14,0,0,1,1.22,2.19C370.66,170.49,370.58,170.89,370.51,170.89Z" style="fill:#ff9a6c"></path><path d="M390.89,197s20.44,34.83,28,51.83c12.49,28.12,18.25,63.79,18.25,63.79s-.66,5.52-11.25,4-30.9-3.08-32.44-15,0-24.43-4.85-44.66-15.64-45-15.64-45l9.9-14.64Z" style="fill:#ffbf9d"></path></g></svg>
