<?xml version="1.0" encoding="UTF-8"?>
<svg id="Capa_1" data-name="Capa 1" xmlns="http://www.w3.org/2000/svg" xmlns:xlink="http://www.w3.org/1999/xlink" viewBox="0 0 490.08 237.76">
  <defs>
    <style>
      .cls-1 {
        fill: #a8a7a7;
      }

      .cls-2 {
        stroke: #fff;
        stroke-width: 3px;
      }

      .cls-2, .cls-3 {
        fill: #fff;
      }

      .cls-2, .cls-3, .cls-4 {
        stroke-miterlimit: 10;
      }

      .cls-5 {
        fill: #b2b0b1;
      }

      .cls-6 {
        fill: url(#Degradado_sin_nombre_2);
      }

      .cls-7 {
        fill: #3d3d3c;
      }

      .cls-3 {
        stroke: #878685;
      }

      .cls-4 {
        fill: none;
        stroke: #000;
        stroke-width: 2.5px;
      }
    </style>
    <linearGradient id="Degradado_sin_nombre_2" data-name="Degradado sin nombre 2" x1="44.26" y1="303.13" x2="94.53" y2="332.15" gradientTransform="translate(0 453.4) scale(1 -1)" gradientUnits="userSpaceOnUse">
      <stop offset="0" stop-color="#b6b6b6"/>
      <stop offset=".12" stop-color="#b4b4b4"/>
      <stop offset=".17" stop-color="#adadad"/>
      <stop offset=".19" stop-color="#a6a5a5"/>
      <stop offset=".21" stop-color="#a1a0a0"/>
      <stop offset=".42" stop-color="#828281"/>
      <stop offset=".6" stop-color="#706f6e"/>
      <stop offset=".72" stop-color="#6a6a68"/>
    </linearGradient>
  </defs>
  <path class="cls-3" d="M.5,21.23v195.3c0,11.45,9.28,20.73,20.73,20.73h447.62c11.45,0,20.73-9.28,20.73-20.73V21.23c0-11.45-9.28-20.73-20.73-20.73H21.23C9.78.5.5,9.78.5,21.23Z"/>
  <path class="cls-4" d="M106.3,204.28c43.59,0,78.94-35.81,78.94-79.98s-35.34-79.98-78.94-79.98S27.36,80.13,27.36,124.31s35.34,79.98,78.94,79.98Z"/>
  <path class="cls-2" d="M132.29,92.96l-11.84-20.05s-.23-.36-.41-.59c-1.54-1.77-5.58-5.85-12.25-7.26-3.63-.77-7.44-.14-9.62.32-.41.09-.77.23-1.09.41,0,0-15.56,8.03-16.56,8.8-1.41,1.09-2.4,3.13-2.68,4.49-.54,2.59-.18,3.54.36,4.45,9.94,16.83,42.05,71.18,42.05,71.18.18.32.41.64.68.86,1.63,1.5,5.22,4.26,10.57,5.26,5.08.91,9.03-.23,10.71-.77,5.63-1.72,9.16-5.08,10.8-6.94.23-.23.36-.5.54-.77l61.52-115.46c.14-.27.23-.5.32-.77.41-1.5.86-4.08.27-7.12-.45-2.36-1.04-4.54-1.91-6.08-.32-.54-1.32-1.45-1.86-1.81l-12.48-8.26c-.36-.23-3.18-1.18-4.99-.86-1.36.23-2.27.95-2.63,1.27l-52.58,79.93c-1.63,2.5-5.49,2.4-7.03-.14l.09-.09Z"/>
  <path class="cls-5" d="M210.41,157.42h7.3c.23.23.54.59.86,1.09.27.5.41,1,.5,1.32v37.25c0,.41-.14,1.13-.5,1.86-.32.68-.73,1.18-1,1.41h-6.53c-.23-.05-.95-.27-1.54-1-.45-.64-.59-1.27-.59-1.54v-37.83c0-.27,0-.86.41-1.45.36-.68.91-.95,1.13-1.09h-.05Z"/>
  <path class="cls-5" d="M258.81,180.28c-.54-.54-2.4-1.91-2.4-1.91,0,0,2.31-2.22,2.9-3.08.36-.54,1.36-3.4,1.18-6.12-.05-1-.32-3.45-1.86-5.9-2.72-4.45-8.98-5.63-9.89-5.81h-12.79c-1.04.27-3.77,1.45-4.85,2.31-1.54,1.18-2.99,2.95-3.99,4.99v30.3c-.09.5.18,1.95.91,3.4.41.82.95,1.36,1.32,1.68l21.28.27c.86,0,3.77-.45,6.35-2.77,1.72-1.54,2.5-3.4,2.86-4.36.5-1.04,1.36-3.22,1.27-6.08-.14-3.49-1.45-6.03-2.22-6.9l-.05-.05ZM237.76,167.85c0-.5.73-1.13.86-1.32.18-.18.64-.54,1-.59.68-.09,6.71,0,6.71,0,.27.05,1.91.41,2.81,2,.59,1.04.59,2.22.59,2.5s.09,1.59-.45,2.68c-.73,1.54-2.18,1.81-2.36,1.86h-9.16v-7.12ZM249.32,190.45c-.95.68-1.72,1.22-2.27,1.36,0,0-7.62.09-8.62,0-.27,0-.68-.54-.68-.86v-7.94h8.76c.5.09,1.59.27,2.63,1.13,1.45,1.18,1.59,2.81,1.59,3.27,0,1.04-.45,2.36-1.36,3.04h-.05Z"/>
  <path class="cls-1" d="M267.15,196.66c-.05.36.09,1.81.5,2.63.32.73,1.04,1.22,1.36,1.45h8.21s.5-.36.82-.68c.23-.27.36-.54.45-.73v-20.41l13.52,21.37c.18.32.54.5.91.5h7.62c.23-.32.59-.64.82-1.13.27-.54.32-1.18.45-1.59v-35.88c0-.5,0-1.59-.59-2.72-.32-.54-.68-.95-.95-1.22h-9.35v24.27c-2.86-6.35-13.07-23.54-13.61-24.13-.23-.23-.91-.68-1.45-.86h-6.44c-.27.09-1,.41-1.54,1.22-.54.82-.59,1.63-.59,1.95v36.07l-.14-.09Z"/>
  <path class="cls-1" d="M343.51,166.36c-.05-1.63-2.81-5.53-4.04-6.35-1.22-.82-5.26-2.54-7.08-2.54h-10.52c-.45,0-1.32.14-1.77.23-3.13.68-7.94,2.72-9.12,4.49-1.5,2.22-2.4,10.16-2.27,10.62v16.79c.18.91,1,5.04,4.81,7.76,2.54,1.81,5.13,2.09,6.26,2.13h12.02c.54,0,1.09-.09,1.63-.18,1.13-.18,4.04-1.41,6.31-3.13.95-.77,2-1.41,2.68-2.95.32-.73.77-3.04.77-3.04.18-1.27.27-2.54.27-3.81,0,0,.18-15.65,0-19.92l.05-.09ZM333.35,188.45c0,.54-1.04,1.5-1.59,1.91-.5.41-1.95,1.09-2.72,1.22h-5.22c-.41-.05-1.59-.27-2.63-1.27-1.27-1.22-1.41-2.77-1.41-3.13v-17.69c0-.32,0-1.59,1-2.63.68-.73,1.45-1,1.81-1.09h7.26c.45.09,1.32.41,2.13,1.18,1.04,1,1.32,2.22,1.41,2.63,0,0,.23,14.97,0,18.92l-.05-.05Z"/>
  <path class="cls-5" d="M378.52,186.14c0-.27.18-.36.32-.5.32-.23,1.32-.73,2.31-1.54,1.32-1.04,2.99-6.67,3.22-9.3.18-2,.59-6.67-.5-9.8-.45-1.27-1.86-3.13-4.04-4.9-2.09-1.63-4.94-2.68-6.26-2.68h-15.61c-2.72.36-6.03,2.5-6.99,3.18-.73.5-1.18,2.77-1.22,3.63v33.3s.45,1.32.73,1.68c.23.27,1.04.86,1.04.86h7.49c.54,0,1-.45,1-1.04v-10.48l8.76.27,4.45,9.75.77,1.27,9.62.23s.82-.68.82-1.68c0-.86-.73-2.09-.82-2.18l-5.13-10.03.05-.05ZM373.94,177.02c-.23.45-.68,1.13-1.41,1.72-1.13.91-2.31,1.13-2.81,1.22h-8.21s-.5-.14-.82-.41c-.5-.41-.64-.95-.68-1.13v-11.21c.23-.45.95-.82,1.22-.95.36-.18,1.41-.32,1.81-.32h6.12c.5.09,2.09.45,3.18,1.54,1.09,1.09,1.45,2.36,1.54,2.86v6.67h.05Z"/>
  <path class="cls-5" d="M460.09,195.58l-12.16-35.43s-.64-1.81-1.04-2.04c-.59-.36-1.91-.41-1.91-.41h-6.58s-1.41,0-2.09.54c-.32.27-.77,1.77-.77,1.77l-12.75,35.88c-.09.32-.45,1.41,0,2.63.32.82.82,1.32,1.09,1.54h8.17c.36-.23.82-.64,1.27-1.22.32-.45.54-.86.68-1.22l1.32-3.04h12.84l1.27,3.54c.14.36.32.77.59,1.22.32.54.68.91.95,1.22h8.57c.27-.32.73-.91.86-1.72.14-.82-.23-2.9-.41-3.27h.09ZM445.39,185.91h-7.76c-.32,0-.68-.54-.59-.86,2.04-6.31,3.9-12.48,4.63-13.47.73,1.09,2.5,6.99,4.54,13.38.14.36-.41.95-.82.95Z"/>
  <path class="cls-5" d="M404.52,166s-1.68.14-2.72,1.13c-1,.95-1.68,2.31-1.68,2.5v18.96c.14.45.64,1.59,1.81,2.45.68.5,1.36.68,1.81.77h5.04c1.27,0,2.95-1.36,5.08-2.45.77-.36,1.13-1,1.77-1.13.41-.09,2.09,1.59,2.09,1.59.45.73,1.18,2,1.5,3.72.27,1.5.45,2.9,0,3.58-.73,1.04-2.72,1.81-3.77,2.36-.86.45-2.4.68-3.67.95h-9.21c-1.09,0-4.54,0-7.8-2.54-3.9-2.99-4.72-7.26-4.85-8.21v-19.46c.36-1.95,1.54-7.89,4.94-10.39,2.22-1.63,4.63-1.91,8.26-2.31,3.31-.36,6.94,0,8.8.23,0,0,4.58.73,5.94,1.45,1.36.73,1.32,2.09,1.41,2.5,0,1.32-1.18,3.54-1.72,4.36-.5.59-1.32,1.72-1.63,1.54-.45-.27-2.68-1-3.86-1.36-1.18-.36-4.85-.5-7.44-.32l-.09.09Z"/>
  <path d="M129.28,100.99l-11.34-20.05s-.23-.36-.41-.59c-1.45-1.77-5.35-5.85-11.7-7.26-3.49-.77-7.12-.14-9.25.32-.36.09-.73.23-1.04.41,0,0-14.97,7.94-15.88,8.8-1.09,1.04-1.86,2.99-2.13,4.31-.5,2.59.23,5.22.77,6.12,9.53,16.83,39.42,69.59,39.42,69.59.18.32.41.64.68.86,1.59,1.5,4.99,4.26,10.12,5.26,4.85.91,8.66-.23,10.25-.77,5.4-1.72,8.76-5.08,10.34-6.94.23-.23.36-.5.5-.77l58.98-115.46c.14-.27.23-.5.32-.77.41-1.5.82-4.08.27-7.12-.41-2.36-1-4.54-1.81-6.08-.32-.54-1.22-1.45-1.77-1.81l-11.93-8.26c-.36-.23-3.04-1.18-4.76-.86-1.32.23-2.18.95-2.5,1.27l-50.4,79.93c-1.59,2.5-5.26,2.4-6.76-.14h.05Z"/>
  <path class="cls-6" d="M78.52,93.5l-31.12,55.3c-.32.64-.86,1.86-.86,3.49,0,2.5,1.32,4.22,1.77,4.76,2.27,2,5.17,4.26,8.66,6.4,3.31,2.04,6.44,3.54,9.16,4.63,1.81.45,5.4,1.09,9.75,0,4.9-1.22,8.08-3.95,9.39-5.26l16.79-27.76-23.54-41.55Z"/>
  <path class="cls-7" d="M245.3,107.39h2.31l12.75,16.97v-16.97h2.36v20.37h-2.31l-12.75-16.88v16.88h-2.36v-20.37Z"/>
  <path class="cls-7" d="M266.07,127.26c-.41-.36-.59-.82-.59-1.36v-18.51h9.71c1.95,0,3.54.41,4.72,1.22,1.18.82,1.77,1.91,1.77,3.27v1.54c0,.73-.18,1.41-.54,2.04-.36.64-.91,1.18-1.54,1.54,1.09.27,1.95.77,2.59,1.5.64.73.95,1.59.95,2.54v1.41c0,1.59-.54,2.86-1.72,3.81-1.13.95-2.68,1.45-4.63,1.45h-9.21c-.64,0-1.13-.18-1.54-.54l.05.09ZM275.87,116.59c1.04,0,1.86-.27,2.5-.86.64-.59.95-1.32.95-2.27v-1.54c0-.77-.36-1.41-1.13-1.86-.77-.45-1.72-.73-2.95-.73h-7.3v7.26h7.94ZM276.5,125.85c1.32,0,2.36-.32,3.08-.91.77-.59,1.13-1.41,1.13-2.45v-1.41c0-.82-.32-1.45-1-1.95-.68-.5-1.54-.73-2.59-.73h-9.25v7.44h8.62Z"/>
  <path class="cls-7" d="M295.7,106.75h2.36l-12.34,21.78h-2.36l12.34-21.78Z"/>
  <path class="cls-7" d="M299.73,107.39h2.45v20.37h-2.45v-20.37Z"/>
  <path class="cls-7" d="M306.23,126.48c-1.13-1-1.72-2.31-1.72-3.95h2.36c0,1.09.36,1.91,1.04,2.54.68.64,1.63.95,2.81.95h3.18c1.27,0,2.31-.32,3.08-1,.77-.68,1.18-1.54,1.18-2.68v-1.81c0-1.04-.41-1.86-1.18-2.5-.82-.64-1.86-.95-3.13-.95h-8.44v-9.8h14.38v1.91h-11.93v5.99h6.03c2.04,0,3.67.5,4.9,1.45,1.22.95,1.86,2.27,1.86,3.86v1.81c0,1.09-.27,2.09-.82,2.95s-1.36,1.5-2.36,1.95c-1,.45-2.18.68-3.49.68h-3.18c-1.86,0-3.36-.5-4.49-1.5l-.09.09Z"/>
  <path class="cls-7" d="M325.22,127.16c-1-.54-1.81-1.32-2.4-2.31-.54-1-.86-2.13-.86-3.4v-7.8c0-1.27.27-2.4.86-3.4.59-1,1.36-1.77,2.4-2.31,1-.54,2.18-.82,3.49-.82h3.49c1.32,0,2.45.27,3.49.82,1,.54,1.77,1.32,2.36,2.31.54,1,.82,2.13.82,3.4v7.8c0,1.27-.27,2.4-.82,3.4s-1.36,1.77-2.36,2.31c-1,.54-2.18.82-3.49.82h-3.49c-1.32,0-2.5-.27-3.49-.82ZM332.16,126.07c1.27,0,2.31-.41,3.13-1.27.77-.86,1.18-1.95,1.18-3.31v-7.8c0-1.36-.41-2.5-1.18-3.36-.77-.86-1.81-1.27-3.13-1.27h-3.36c-1.32,0-2.36.41-3.18,1.27-.82.86-1.22,1.95-1.22,3.36v7.8c0,1.36.41,2.5,1.22,3.31.82.86,1.86,1.27,3.18,1.27h3.36Z"/>
  <path class="cls-7" d="M352.12,106.75h2.36l-12.34,21.78h-2.36l12.34-21.78Z"/>
  <path class="cls-7" d="M245.01,73.81h2.04l11.39,17.33v-17.33h2.13v20.78h-2.04l-11.39-17.19v17.19h-2.13v-20.78Z"/>
  <path class="cls-7" d="M265.74,94.05c-.36-.36-.54-.82-.54-1.41v-18.87h8.66c1.72,0,3.13.41,4.22,1.27,1.04.86,1.59,1.95,1.59,3.36v1.59c0,.73-.18,1.45-.5,2.09s-.77,1.18-1.36,1.59c.95.27,1.72.77,2.31,1.54.59.73.86,1.59.86,2.59v1.41c0,1.63-.5,2.9-1.54,3.9-1,1-2.4,1.45-4.13,1.45h-8.21c-.54,0-1.04-.18-1.36-.54v.05ZM274.5,83.16c.91,0,1.63-.27,2.22-.86.54-.59.82-1.36.82-2.31v-1.59c0-.77-.32-1.45-1-1.91-.68-.5-1.54-.73-2.63-.73h-6.49v7.44h7.08v-.05ZM275.04,92.64c1.18,0,2.09-.32,2.77-.95.68-.64,1-1.45,1-2.5v-1.41c0-.82-.27-1.5-.86-2s-1.36-.77-2.31-.77h-8.26v7.62h7.67Z"/>
  <path class="cls-7" d="M294.37,73.13h2.13l-11.02,22.18h-2.13l11.02-22.18Z"/>
  <path class="cls-7" d="M300.18,73.81h2.18v20.78h-2.18v-20.78Z"/>
  <path class="cls-7" d="M309.48,94.04c-.91-.5-1.59-1.22-2.09-2.13-.5-.91-.73-2-.73-3.18h2.09c0,1.22.36,2.22,1.09,2.99.73.77,1.68,1.13,2.81,1.13h3.27c1.13,0,2.09-.27,2.77-.77.73-.54,1.04-1.22,1.04-2.09v-1.91c0-.68-.27-1.22-.77-1.72-.5-.5-1.22-.77-2.13-.91l-5.26-.91c-1.5-.27-2.63-.77-3.45-1.59-.82-.82-1.22-1.81-1.22-3.04v-1.59c0-1.45.54-2.59,1.59-3.45,1.09-.86,2.5-1.27,4.22-1.27h3.31c1.68,0,2.99.5,4.04,1.54,1,1.04,1.54,2.36,1.54,4.04h-2.09c0-1.09-.32-1.95-.95-2.63-.64-.64-1.45-1-2.5-1h-3.31c-1.13,0-2,.27-2.68.77-.68.5-1,1.18-1,2.04v1.59c0,.68.23,1.27.77,1.77.5.45,1.18.77,2.09.95l5.26.91c1.54.27,2.72.82,3.54,1.59s1.27,1.77,1.27,2.99v1.91c0,1.45-.54,2.59-1.63,3.49-1.09.86-2.54,1.32-4.31,1.32h-3.36c-1.18,0-2.22-.27-3.08-.77l-.14-.09Z"/>
  <path class="cls-7" d="M328.4,93.91c-1.04-.64-1.86-1.5-2.4-2.63-.59-1.13-.86-2.45-.86-3.9v-6.35c0-1.5.27-2.81.86-3.9.59-1.09,1.36-2,2.4-2.63,1.04-.64,2.22-.91,3.58-.91h3.13c1.36,0,2.59.32,3.58.91,1.04.64,1.86,1.5,2.4,2.63.59,1.13.86,2.45.86,3.9v6.35c0,1.5-.27,2.77-.86,3.9-.59,1.13-1.41,2-2.45,2.63-1.04.64-2.22.95-3.58.95h-3.13c-1.36,0-2.54-.32-3.58-.91l.05-.05ZM335.06,92.86c1.41,0,2.59-.5,3.45-1.5.86-1,1.32-2.31,1.32-3.99v-6.35c0-1.63-.45-2.95-1.32-3.99-.86-1-2.04-1.5-3.45-1.5h-2.99c-1.41,0-2.59.5-3.45,1.5-.86,1-1.32,2.36-1.32,3.99v6.35c0,1.63.45,2.95,1.32,3.99.86,1,2.04,1.5,3.45,1.5h3.04-.05Z"/>
  <path d="M353.71,93.32c-1.13-1-1.72-2.31-1.72-3.9h2.4c0,1.04.36,1.86,1.04,2.5.68.64,1.68.95,2.9.95h2.86c1.32,0,2.31-.41,3.08-1.22.77-.82,1.13-1.91,1.13-3.31v-3.58c-.68.73-1.45,1.27-2.36,1.68-.91.41-1.91.59-2.95.59h-2.22c-2,0-3.58-.54-4.76-1.63-1.18-1.09-1.81-2.54-1.81-4.36v-1.18c0-1.22.32-2.31.91-3.27.59-.95,1.45-1.68,2.59-2.18,1.13-.5,2.4-.77,3.86-.77h2.36c1.41,0,2.59.27,3.67.77,1.04.5,1.86,1.22,2.45,2.13s.86,2,.86,3.22v8.62c0,2.04-.59,3.63-1.81,4.76-1.22,1.13-2.86,1.72-4.94,1.72h-2.86c-1.95,0-3.49-.5-4.63-1.5l-.05-.05ZM360.24,85.01c1.27,0,2.4-.32,3.36-1s1.59-1.5,1.91-2.54v-2.04c0-1.18-.41-2.09-1.22-2.81s-1.91-1.09-3.27-1.09h-2.36c-1.45,0-2.63.41-3.49,1.18-.91.77-1.32,1.81-1.32,3.08v1.18c0,1.22.36,2.22,1.09,2.95.73.73,1.72,1.09,2.95,1.09h2.36Z"/>
  <path d="M373.17,93.95c-1.04-.54-1.86-1.32-2.45-2.36-.59-1.04-.86-2.18-.86-3.45v-7.94c0-1.32.27-2.45.86-3.45.59-1,1.41-1.77,2.45-2.36,1.04-.54,2.22-.82,3.58-.82h3.54c1.32,0,2.54.27,3.54.82s1.81,1.32,2.4,2.36c.59,1,.86,2.18.86,3.45v7.94c0,1.32-.27,2.45-.86,3.45-.54,1-1.36,1.77-2.4,2.36-1.04.54-2.22.82-3.54.82h-3.54c-1.36,0-2.54-.27-3.58-.82ZM380.24,92.82c1.32,0,2.36-.41,3.18-1.27.82-.86,1.22-2,1.22-3.4v-7.94c0-1.41-.41-2.54-1.22-3.4-.82-.86-1.86-1.27-3.18-1.27h-3.4c-1.32,0-2.4.41-3.22,1.27-.82.86-1.22,2-1.22,3.4v7.94c0,1.41.41,2.54,1.22,3.4.82.86,1.91,1.27,3.22,1.27h3.4Z"/>
  <path d="M392.31,93.95c-1.04-.54-1.86-1.32-2.45-2.36-.59-1.04-.86-2.18-.86-3.45v-7.94c0-1.32.27-2.45.86-3.45.59-1,1.41-1.77,2.45-2.36,1.04-.54,2.22-.82,3.58-.82h3.54c1.32,0,2.54.27,3.54.82s1.81,1.32,2.4,2.36c.59,1,.86,2.18.86,3.45v7.94c0,1.32-.27,2.45-.86,3.45-.54,1-1.36,1.77-2.4,2.36-1.04.54-2.22.82-3.54.82h-3.54c-1.36,0-2.54-.27-3.58-.82ZM399.34,92.82c1.32,0,2.36-.41,3.18-1.27.82-.86,1.22-2,1.22-3.4v-7.94c0-1.41-.41-2.54-1.22-3.4-.82-.86-1.86-1.27-3.18-1.27h-3.4c-1.32,0-2.4.41-3.22,1.27-.82.86-1.22,2-1.22,3.4v7.94c0,1.41.41,2.54,1.22,3.4.82.86,1.91,1.27,3.22,1.27h3.4Z"/>
  <path d="M412.54,76.17l-5.4,2.4v-2.09l5.72-2.68h2.13v20.73h-2.5v-18.37h.05Z"/>
  <path d="M361.47,125.3c0-1.04.18-1.95.59-2.72.41-.77,1.04-1.45,1.95-2.09l7.53-5.35c1.04-.73,1.59-1.59,1.59-2.63v-.91c0-.82-.27-1.45-.86-1.95s-1.36-.73-2.31-.73h-2.81c-1.09,0-1.91.36-2.54,1.04s-.95,1.63-.95,2.77h-2.22c0-1.72.5-3.13,1.54-4.13,1.04-1,2.4-1.54,4.13-1.54h2.86c1.63,0,2.95.41,3.95,1.27,1,.86,1.5,1.95,1.5,3.31v.91c0,1.59-.82,2.95-2.45,4.08l-7.3,5.08c-.73.5-1.22,1-1.5,1.54-.27.54-.41,1.22-.41,2.09h11.93v1.86h-14.2v-1.91Z"/>
  <path d="M381.53,126.62c0-1,.09-1.95.27-2.9.18-.95.45-1.77.77-2.45l5.9-12.16h-11.11v-1.86h13.7v1.32l-6.17,12.7c-.36.77-.64,1.63-.86,2.59-.18.95-.32,1.86-.32,2.77v.59h-2.22v-.59h.05Z"/>
  <path d="M396.18,126.62c-.95-.54-1.68-1.27-2.18-2.27-.54-.95-.77-2.09-.77-3.31v-7.62c0-1.27.27-2.36.77-3.31.54-.95,1.27-1.72,2.18-2.27.95-.54,2-.82,3.22-.82h3.22c1.22,0,2.27.27,3.22.82.95.54,1.63,1.27,2.18,2.27.5.95.77,2.09.77,3.31v7.62c0,1.27-.27,2.36-.77,3.31-.5.95-1.22,1.72-2.18,2.27-.95.54-2,.82-3.22.82h-3.22c-1.22,0-2.27-.27-3.22-.82ZM402.58,125.58c1.18,0,2.13-.41,2.86-1.22.73-.82,1.09-1.91,1.09-3.27v-7.62c0-1.36-.36-2.45-1.09-3.27-.73-.82-1.68-1.22-2.86-1.22h-3.08c-1.18,0-2.18.41-2.9,1.22-.73.82-1.13,1.91-1.13,3.27v7.62c0,1.36.36,2.45,1.13,3.27.77.82,1.72,1.22,2.9,1.22h3.08Z"/>
  <path d="M415.76,126.62c-.95-.54-1.68-1.27-2.18-2.27-.54-.95-.77-2.09-.77-3.31v-7.62c0-1.27.27-2.36.77-3.31.54-.95,1.27-1.72,2.18-2.27.95-.54,2-.82,3.22-.82h3.22c1.22,0,2.27.27,3.22.82.95.54,1.63,1.27,2.18,2.27.5.95.77,2.09.77,3.31v7.62c0,1.27-.27,2.36-.77,3.31-.5.95-1.22,1.72-2.18,2.27-.95.54-2,.82-3.22.82h-3.22c-1.22,0-2.27-.27-3.22-.82ZM422.11,125.58c1.18,0,2.13-.41,2.86-1.22.73-.82,1.09-1.91,1.09-3.27v-7.62c0-1.36-.36-2.45-1.09-3.27-.73-.82-1.68-1.22-2.86-1.22h-3.08c-1.18,0-2.18.41-2.9,1.22-.73.82-1.13,1.91-1.13,3.27v7.62c0,1.36.36,2.45,1.13,3.27.77.82,1.72,1.22,2.9,1.22h3.08Z"/>
  <path d="M436.32,109.57l-4.9,2.31v-2l5.17-2.59h1.95v19.92h-2.27v-17.65h.05Z"/>
</svg>