<?xml version="1.0" encoding="UTF-8"?>
<svg id="Capa_1" data-name="Capa 1" xmlns="http://www.w3.org/2000/svg" xmlns:xlink="http://www.w3.org/1999/xlink" viewBox="0 0 108.81 53.19">
  <defs>
    <style>
      .cls-1 {
        stroke: #fff;
        stroke-width: 3px;
      }

      .cls-1, .cls-2 {
        fill: #fff;
      }

      .cls-1, .cls-2, .cls-3 {
        stroke-miterlimit: 10;
      }

      .cls-4 {
        fill: url(#Degradado_sin_nombre_140);
      }

      .cls-5 {
        fill: #3d3d3c;
      }

      .cls-6 {
        fill: #b2b0b1;
      }

      .cls-7 {
        fill: #a8a8a8;
      }

      .cls-2 {
        stroke: #878685;
      }

      .cls-3 {
        fill: none;
        stroke: #000;
        stroke-width: 2.5px;
      }
    </style>
    <linearGradient id="Degradado_sin_nombre_140" data-name="Degradado sin nombre 140" x1="10.14" y1="33.51" x2="21.23" y2="27.11" gradientUnits="userSpaceOnUse">
      <stop offset="0" stop-color="#b6b6b6"/>
      <stop offset=".12" stop-color="#b4b4b4"/>
      <stop offset=".17" stop-color="#adadad"/>
      <stop offset=".19" stop-color="#a6a6a6"/>
      <stop offset=".21" stop-color="#a1a1a1"/>
      <stop offset=".42" stop-color="#828281"/>
      <stop offset=".6" stop-color="#6f6f6e"/>
      <stop offset=".72" stop-color="#696967"/>
    </linearGradient>
  </defs>
  <rect class="cls-2" x="28.31" y="-27.31" width="52.19" height="107.81" rx="4.57" ry="4.57" transform="translate(27.81 81) rotate(-90)"/>
  <ellipse class="cls-3" cx="23.82" cy="27.79" rx="17.4" ry="17.63"/>
  <path class="cls-1" d="M29.55,20.88l-2.61-4.42s-.05-.08-.09-.13c-.34-.39-1.23-1.29-2.7-1.6-.8-.17-1.64-.03-2.12.07-.09.02-.17.05-.24.09,0,0-3.43,1.77-3.65,1.94-.31.24-.53.69-.59.99-.12.57-.04.78.08.98,2.19,3.71,9.27,15.69,9.27,15.69.04.07.09.14.15.19.36.33,1.15.94,2.33,1.16,1.12.2,1.99-.05,2.36-.17,1.24-.38,2.02-1.12,2.38-1.53.05-.05.08-.11.12-.17l13.56-25.45c.03-.06.05-.11.07-.17.09-.33.19-.9.06-1.57-.1-.52-.23-1-.42-1.34-.07-.12-.29-.32-.41-.4l-2.75-1.82c-.08-.05-.7-.26-1.1-.19-.3.05-.5.21-.58.28l-11.59,17.62c-.36.55-1.21.53-1.55-.03Z"/>
  <path class="cls-6" d="M46.77,35.09h1.61c.05.05.12.13.19.24.06.11.09.22.11.29v8.21c0,.09-.03.25-.11.41-.07.15-.16.26-.22.31h-1.44c-.05-.01-.21-.06-.34-.22-.1-.14-.13-.28-.13-.34v-8.34c0-.06,0-.19.09-.32.08-.15.2-.21.25-.24Z"/>
  <path class="cls-6" d="M57.44,40.13c-.12-.12-.53-.42-.53-.42,0,0,.51-.49.64-.68.08-.12.3-.75.26-1.35-.01-.22-.07-.76-.41-1.3-.6-.98-1.98-1.24-2.18-1.28h-2.82c-.23.06-.83.32-1.07.51-.34.26-.66.65-.88,1.1v6.68c-.02.11.04.43.2.75.09.18.21.3.29.37l4.69.06c.19,0,.83-.1,1.4-.61.38-.34.55-.75.63-.96.11-.23.3-.71.28-1.34-.03-.77-.32-1.33-.49-1.52ZM52.8,37.39c0-.11.16-.25.19-.29.04-.04.14-.12.22-.13.15-.02,1.48,0,1.48,0,.06.01.42.09.62.44.13.23.13.49.13.55,0,.06.02.35-.1.59-.16.34-.48.4-.52.41h-2.02s0-1.33,0-1.57ZM55.35,42.37c-.21.15-.38.27-.5.3,0,0-1.68.02-1.9,0-.06,0-.15-.12-.15-.19,0-.26,0-1.75,0-1.75h1.93c.11.02.35.06.58.25.32.26.35.62.35.72,0,.23-.1.52-.3.67Z"/>
  <path class="cls-7" d="M59.28,43.74c-.01.08.02.4.11.58.07.16.23.27.3.32h1.81s.11-.08.18-.15c.05-.06.08-.12.1-.16v-4.5l2.98,4.71c.04.07.12.11.2.11h1.68c.05-.07.13-.14.18-.25.06-.12.07-.26.1-.35v-7.91c0-.11,0-.35-.13-.6-.07-.12-.15-.21-.21-.27h-2.06v5.35c-.63-1.4-2.88-5.19-3-5.32-.05-.05-.2-.15-.32-.19h-1.42c-.06.02-.22.09-.34.27-.12.18-.13.36-.13.43v7.95Z"/>
  <path class="cls-7" d="M76.11,37.06c-.01-.36-.62-1.22-.89-1.4-.27-.18-1.16-.56-1.56-.56h-2.32c-.1,0-.29.03-.39.05-.69.15-1.75.6-2.01.99-.33.49-.53,2.24-.5,2.34v3.7c.04.2.22,1.11,1.06,1.71.56.4,1.13.46,1.38.47h2.65c.12,0,.24-.02.36-.04.25-.04.89-.31,1.39-.69.21-.17.44-.31.59-.65.07-.16.17-.67.17-.67.04-.28.06-.56.06-.84,0,0,.04-3.45,0-4.39ZM73.87,41.93c0,.12-.23.33-.35.42-.11.09-.43.24-.6.27h-1.15c-.09-.01-.35-.06-.58-.28-.28-.27-.31-.61-.31-.69v-3.9c0-.07,0-.35.22-.58.15-.16.32-.22.4-.24h1.6c.1.02.29.09.47.26.23.22.29.49.31.58,0,0,.05,3.3,0,4.17Z"/>
  <path class="cls-6" d="M83.83,41.42c0-.06.04-.08.07-.11.07-.05.29-.16.51-.34.29-.23.66-1.47.71-2.05.04-.44.13-1.47-.11-2.16-.1-.28-.41-.69-.89-1.08-.46-.36-1.09-.59-1.38-.59h-3.44c-.6.08-1.33.55-1.54.7-.16.11-.26.61-.27.8v7.34s.1.29.16.37c.05.06.23.19.23.19h1.65c.12,0,.22-.1.22-.23v-2.31l1.93.06.98,2.15.17.28,2.12.05s.18-.15.18-.37c0-.19-.16-.46-.18-.48l-1.13-2.21ZM82.82,39.41c-.05.1-.15.25-.31.38-.25.2-.51.25-.62.27h-1.81s-.11-.03-.18-.09c-.11-.09-.14-.21-.15-.25v-2.47c.05-.1.21-.18.27-.21.08-.04.31-.07.4-.07h1.35c.11.02.46.1.7.34.24.24.32.52.34.63v1.47Z"/>
  <path class="cls-6" d="M101.81,43.5l-2.68-7.81s-.14-.4-.23-.45c-.13-.08-.42-.09-.42-.09h-1.45s-.31,0-.46.12c-.07.06-.17.39-.17.39l-2.81,7.91c-.02.07-.1.31,0,.58.07.18.18.29.24.34h1.8c.08-.05.18-.14.28-.27.07-.1.12-.19.15-.27l.29-.67h2.83l.28.78c.03.08.07.17.13.27.07.12.15.2.21.27h1.89c.06-.07.16-.2.19-.38.03-.18-.05-.64-.09-.72ZM98.57,41.37h-1.71c-.07,0-.15-.12-.13-.19.45-1.39.86-2.75,1.02-2.97.16.24.55,1.54,1,2.95.03.08-.09.21-.18.21Z"/>
  <path class="cls-6" d="M89.56,36.98s-.37.03-.6.25c-.22.21-.37.51-.37.55v4.18c.03.1.14.35.4.54.15.11.3.15.4.17h1.11c.28,0,.65-.3,1.12-.54.17-.08.25-.22.39-.25.09-.02.46.35.46.35.1.16.26.44.33.82.06.33.1.64,0,.79-.16.23-.6.4-.83.52-.19.1-.53.15-.81.21h-2.03c-.24,0-1,0-1.72-.56-.86-.66-1.04-1.6-1.07-1.81v-4.29c.08-.43.34-1.74,1.09-2.29.49-.36,1.02-.42,1.82-.51.73-.08,1.53,0,1.94.05,0,0,1.01.16,1.31.32s.29.46.31.55c0,.29-.26.78-.38.96-.11.13-.29.38-.36.34-.1-.06-.59-.22-.85-.3s-1.07-.11-1.64-.07Z"/>
  <g>
    <path d="M28.89,22.65l-2.5-4.42s-.05-.08-.09-.13c-.32-.39-1.18-1.29-2.58-1.6-.77-.17-1.57-.03-2.04.07-.08.02-.16.05-.23.09,0,0-3.3,1.75-3.5,1.94-.24.23-.41.66-.47.95-.11.57.05,1.15.17,1.35,2.1,3.71,8.69,15.34,8.69,15.34.04.07.09.14.15.19.35.33,1.1.94,2.23,1.16,1.07.2,1.91-.05,2.26-.17,1.19-.38,1.93-1.12,2.28-1.53.05-.05.08-.11.11-.17l13-25.45c.03-.06.05-.11.07-.17.09-.33.18-.9.06-1.57-.09-.52-.22-1-.4-1.34-.07-.12-.27-.32-.39-.4l-2.63-1.82c-.08-.05-.67-.26-1.05-.19-.29.05-.48.21-.55.28l-11.11,17.62c-.35.55-1.16.53-1.49-.03Z"/>
    <path class="cls-4" d="M17.7,21l-6.86,12.19c-.07.14-.19.41-.19.77,0,.55.29.93.39,1.05.5.44,1.14.94,1.91,1.41.73.45,1.42.78,2.02,1.02.4.1,1.19.24,2.15,0,1.08-.27,1.78-.87,2.07-1.16l3.7-6.12-5.19-9.16Z"/>
  </g>
  <g>
    <path class="cls-5" d="M54.46,24.06h.51l2.81,3.74v-3.74h.52v4.49h-.51l-2.81-3.72v3.72h-.52v-4.49Z"/>
    <path class="cls-5" d="M59.04,28.44c-.09-.08-.13-.18-.13-.3v-4.08h2.14c.43,0,.78.09,1.04.27.26.18.39.42.39.72v.34c0,.16-.04.31-.12.45s-.2.26-.34.34h0c.24.06.43.17.57.33.14.16.21.35.21.56v.31c0,.35-.12.63-.38.84-.25.21-.59.32-1.02.32h-2.03c-.14,0-.25-.04-.34-.12ZM61.2,26.09c.23,0,.41-.06.55-.19.14-.13.21-.29.21-.5v-.34c0-.17-.08-.31-.25-.41s-.38-.16-.65-.16h-1.61v1.6h1.75ZM61.34,28.13c.29,0,.52-.07.68-.2.17-.13.25-.31.25-.54v-.31c0-.18-.07-.32-.22-.43-.15-.11-.34-.16-.57-.16h-2.04v1.64h1.89Z"/>
    <path class="cls-5" d="M65.57,23.92h.52l-2.72,4.8h-.52l2.72-4.8Z"/>
    <path class="cls-5" d="M66.46,24.06h.54v4.49h-.54v-4.49Z"/>
    <path class="cls-5" d="M67.89,28.27c-.25-.22-.38-.51-.38-.87h.52c0,.24.08.42.23.56.15.14.36.21.62.21h.7c.28,0,.51-.07.68-.22.17-.15.26-.34.26-.59v-.4c0-.23-.09-.41-.26-.55-.18-.14-.41-.21-.69-.21h-1.86v-2.16h3.17v.42h-2.63v1.32h1.33c.45,0,.81.11,1.08.32.27.21.41.5.41.85v.4c0,.24-.06.46-.18.65s-.3.33-.52.43c-.22.1-.48.15-.77.15h-.7c-.41,0-.74-.11-.99-.33Z"/>
    <path class="cls-5" d="M72.08,28.42c-.22-.12-.4-.29-.53-.51-.12-.22-.19-.47-.19-.75v-1.72c0-.28.06-.53.19-.75.13-.22.3-.39.53-.51.22-.12.48-.18.77-.18h.77c.29,0,.54.06.77.18.22.12.39.29.52.51.12.22.18.47.18.75v1.72c0,.28-.06.53-.18.75s-.3.39-.52.51c-.22.12-.48.18-.77.18h-.77c-.29,0-.55-.06-.77-.18ZM73.61,28.18c.28,0,.51-.09.69-.28.17-.19.26-.43.26-.73v-1.72c0-.3-.09-.55-.26-.74-.17-.19-.4-.28-.69-.28h-.74c-.29,0-.52.09-.7.28-.18.19-.27.43-.27.74v1.72c0,.3.09.55.27.73.18.19.41.28.7.28h.74Z"/>
    <path class="cls-5" d="M78.01,23.92h.52l-2.72,4.8h-.52l2.72-4.8Z"/>
  </g>
  <g>
    <path class="cls-5" d="M54.4,16.66h.45l2.51,3.82v-3.82h.47v4.58h-.45l-2.51-3.79v3.79h-.47v-4.58Z"/>
    <path class="cls-5" d="M58.97,21.12c-.08-.08-.12-.18-.12-.31v-4.16h1.91c.38,0,.69.09.93.28.23.19.35.43.35.74v.35c0,.16-.04.32-.11.46s-.17.26-.3.35h0c.21.06.38.17.51.34.13.16.19.35.19.57v.31c0,.36-.11.64-.34.86-.22.22-.53.32-.91.32h-1.81c-.12,0-.23-.04-.3-.12ZM60.9,18.72c.2,0,.36-.06.49-.19.12-.13.18-.3.18-.51v-.35c0-.17-.07-.32-.22-.42-.15-.11-.34-.16-.58-.16h-1.43v1.64h1.56ZM61.02,20.81c.26,0,.46-.07.61-.21.15-.14.22-.32.22-.55v-.31c0-.18-.06-.33-.19-.44-.13-.11-.3-.17-.51-.17h-1.82v1.68h1.69Z"/>
    <path class="cls-5" d="M65.28,16.51h.47l-2.43,4.89h-.47l2.43-4.89Z"/>
    <path class="cls-5" d="M66.56,16.66h.48v4.58h-.48v-4.58Z"/>
    <path class="cls-5" d="M68.61,21.12c-.2-.11-.35-.27-.46-.47-.11-.2-.16-.44-.16-.7h.46c0,.27.08.49.24.66s.37.25.62.25h.72c.25,0,.46-.06.61-.17.16-.12.23-.27.23-.46v-.42c0-.15-.06-.27-.17-.38s-.27-.17-.47-.2l-1.16-.2c-.33-.06-.58-.17-.76-.35-.18-.18-.27-.4-.27-.67v-.35c0-.32.12-.57.35-.76.24-.19.55-.28.93-.28h.73c.37,0,.66.11.89.34.22.23.34.52.34.89h-.46c0-.24-.07-.43-.21-.58-.14-.14-.32-.22-.55-.22h-.73c-.25,0-.44.06-.59.17-.15.11-.22.26-.22.45v.35c0,.15.05.28.17.39.11.1.26.17.46.21l1.16.2c.34.06.6.18.78.35.18.17.28.39.28.66v.42c0,.32-.12.57-.36.77-.24.19-.56.29-.95.29h-.74c-.26,0-.49-.06-.68-.17Z"/>
    <path class="cls-5" d="M72.78,21.09c-.23-.14-.41-.33-.53-.58-.13-.25-.19-.54-.19-.86v-1.4c0-.33.06-.62.19-.86s.3-.44.53-.58.49-.2.79-.2h.69c.3,0,.57.07.79.2.23.14.41.33.53.58.13.25.19.54.19.86v1.4c0,.33-.06.61-.19.86-.13.25-.31.44-.54.58s-.49.21-.79.21h-.69c-.3,0-.56-.07-.79-.2ZM74.25,20.86c.31,0,.57-.11.76-.33.19-.22.29-.51.29-.88v-1.4c0-.36-.1-.65-.29-.88-.19-.22-.45-.33-.76-.33h-.66c-.31,0-.57.11-.76.33-.19.22-.29.52-.29.88v1.4c0,.36.1.65.29.88.19.22.45.33.76.33h.67Z"/>
  </g>
  <g>
    <path d="M78.36,20.96c-.25-.22-.38-.51-.38-.86h.53c0,.23.08.41.23.55.15.14.37.21.64.21h.63c.29,0,.51-.09.68-.27.17-.18.25-.42.25-.73v-.79c-.15.16-.32.28-.52.37s-.42.13-.65.13h-.49c-.44,0-.79-.12-1.05-.36-.26-.24-.4-.56-.4-.96v-.26c0-.27.07-.51.2-.72s.32-.37.57-.48.53-.17.85-.17h.52c.31,0,.57.06.81.17.23.11.41.27.54.47s.19.44.19.71v1.9c0,.45-.13.8-.4,1.05-.27.25-.63.38-1.09.38h-.63c-.43,0-.77-.11-1.02-.33ZM79.8,19.13c.28,0,.53-.07.74-.22.21-.15.35-.33.42-.56v-.45c0-.26-.09-.46-.27-.62-.18-.16-.42-.24-.72-.24h-.52c-.32,0-.58.09-.77.26-.2.17-.29.4-.29.68v.26c0,.27.08.49.24.65.16.16.38.24.65.24h.52Z"/>
    <path d="M82.65,21.1c-.23-.12-.41-.29-.54-.52s-.19-.48-.19-.76v-1.75c0-.29.06-.54.19-.76s.31-.39.54-.52c.23-.12.49-.18.79-.18h.78c.29,0,.56.06.78.18s.4.29.53.52c.13.22.19.48.19.76v1.75c0,.29-.06.54-.19.76-.12.22-.3.39-.53.52-.23.12-.49.18-.78.18h-.78c-.3,0-.56-.06-.79-.18ZM84.21,20.85c.29,0,.52-.09.7-.28s.27-.44.27-.75v-1.75c0-.31-.09-.56-.27-.75s-.41-.28-.7-.28h-.75c-.29,0-.53.09-.71.28-.18.19-.27.44-.27.75v1.75c0,.31.09.56.27.75.18.19.42.28.71.28h.75Z"/>
    <path d="M86.87,21.1c-.23-.12-.41-.29-.54-.52s-.19-.48-.19-.76v-1.75c0-.29.06-.54.19-.76s.31-.39.54-.52c.23-.12.49-.18.79-.18h.78c.29,0,.56.06.78.18s.4.29.53.52c.13.22.19.48.19.76v1.75c0,.29-.06.54-.19.76-.12.22-.3.39-.53.52-.23.12-.49.18-.78.18h-.78c-.3,0-.56-.06-.79-.18ZM88.42,20.85c.29,0,.52-.09.7-.28s.27-.44.27-.75v-1.75c0-.31-.09-.56-.27-.75s-.41-.28-.7-.28h-.75c-.29,0-.53.09-.71.28-.18.19-.27.44-.27.75v1.75c0,.31.09.56.27.75.18.19.42.28.71.28h.75Z"/>
    <path d="M91.33,17.18l-1.19.53v-.46l1.26-.59h.47v4.57h-.55v-4.05Z"/>
  </g>
  <g>
    <path d="M80.07,28.01c0-.23.04-.43.13-.6.09-.17.23-.32.43-.46l1.66-1.18c.23-.16.35-.35.35-.58v-.2c0-.18-.06-.32-.19-.43-.13-.11-.3-.16-.51-.16h-.62c-.24,0-.42.08-.56.23-.14.15-.21.36-.21.61h-.49c0-.38.11-.69.34-.91s.53-.34.91-.34h.63c.36,0,.65.09.87.28s.33.43.33.73v.2c0,.35-.18.65-.54.9l-1.61,1.12c-.16.11-.27.22-.33.34-.06.12-.09.27-.09.46h2.63v.41h-3.13v-.41Z"/>
    <path d="M84.49,28.3c0-.22.02-.43.06-.64s.1-.39.17-.54l1.3-2.68h-2.45v-.41h3.02v.29l-1.36,2.8c-.08.17-.14.36-.19.57-.04.21-.07.41-.07.61v.13h-.49v-.13Z"/>
    <path d="M87.72,28.3c-.21-.12-.37-.28-.48-.5-.12-.21-.17-.46-.17-.73v-1.68c0-.28.06-.52.17-.73.12-.21.28-.38.48-.5.21-.12.44-.18.71-.18h.71c.27,0,.5.06.71.18.21.12.36.28.48.5.11.21.17.46.17.73v1.68c0,.28-.06.52-.17.73-.11.21-.27.38-.48.5s-.44.18-.71.18h-.71c-.27,0-.5-.06-.71-.18ZM89.13,28.07c.26,0,.47-.09.63-.27.16-.18.24-.42.24-.72v-1.68c0-.3-.08-.54-.24-.72s-.37-.27-.63-.27h-.68c-.26,0-.48.09-.64.27-.16.18-.25.42-.25.72v1.68c0,.3.08.54.25.72.17.18.38.27.64.27h.68Z"/>
    <path d="M92.04,28.3c-.21-.12-.37-.28-.48-.5-.12-.21-.17-.46-.17-.73v-1.68c0-.28.06-.52.17-.73.12-.21.28-.38.48-.5.21-.12.44-.18.71-.18h.71c.27,0,.5.06.71.18.21.12.36.28.48.5.11.21.17.46.17.73v1.68c0,.28-.06.52-.17.73-.11.21-.27.38-.48.5s-.44.18-.71.18h-.71c-.27,0-.5-.06-.71-.18ZM93.44,28.07c.26,0,.47-.09.63-.27.16-.18.24-.42.24-.72v-1.68c0-.3-.08-.54-.24-.72s-.37-.27-.63-.27h-.68c-.26,0-.48.09-.64.27-.16.18-.25.42-.25.72v1.68c0,.3.08.54.25.72.17.18.38.27.64.27h.68Z"/>
    <path d="M96.57,24.54l-1.08.51v-.44l1.14-.57h.43v4.39h-.5v-3.89Z"/>
  </g>
</svg>