<svg width="24" height="24" viewBox="0 0 24 24" fill="none" xmlns="http://www.w3.org/2000/svg">
<path d="M17.9279 19.6339H20.0659C20.254 19.6368 20.44 19.5942 20.608 19.5096C20.776 19.425 20.921 19.3011 21.0307 19.1483C21.1403 18.9955 21.2114 18.8184 21.2377 18.6321C21.2641 18.4459 21.2449 18.2561 21.1819 18.0789C20.6367 16.912 19.7736 15.9226 18.6917 15.2239C17.6097 14.5253 16.3527 14.1457 15.0649 14.1289M15.0649 11.3699C15.5462 11.37 16.0227 11.2753 16.4674 11.0912C16.9121 10.9072 17.3161 10.6373 17.6564 10.297C17.9968 9.9568 18.2667 9.55284 18.4509 9.10823C18.6351 8.66363 18.7299 8.1871 18.7299 7.70585C18.7313 7.22376 18.6374 6.74615 18.4538 6.3004C18.2702 5.85464 18.0004 5.4495 17.66 5.10819C17.3195 4.76688 16.915 4.49612 16.4697 4.31142C16.0244 4.12672 15.547 4.03172 15.0649 4.03185M9.33994 11.4849C10.4417 11.4822 11.4974 11.0426 12.2754 10.2625C13.0534 9.48245 13.4902 8.4256 13.4899 7.32385C13.4899 6.22294 13.0526 5.16711 12.2741 4.38865C11.4957 3.61019 10.4399 3.17285 9.33894 3.17285C8.23803 3.17285 7.1822 3.61019 6.40374 4.38865C5.62528 5.16711 5.18794 6.22294 5.18794 7.32385C5.18794 8.42559 5.62499 9.48234 6.40319 10.2622C7.1814 11.0421 8.2372 11.4815 9.33894 11.4839M14.0249 20.8269C14.3772 20.8264 14.7224 20.7284 15.0224 20.5438C15.3224 20.3592 15.5654 20.0951 15.7245 19.7809C15.8837 19.4666 15.9527 19.1145 15.924 18.7634C15.8953 18.4123 15.77 18.0761 15.5619 17.7919C14.8333 16.8241 13.895 16.0339 12.8174 15.4804C11.7399 14.9269 10.551 14.6245 9.33994 14.5959C8.1288 14.6246 6.93987 14.9271 5.86231 15.4808C4.78475 16.0345 3.84651 16.8249 3.11794 17.7929C2.9106 18.0771 2.78584 18.4131 2.75745 18.7638C2.72906 19.1145 2.79813 19.4662 2.95705 19.7801C3.11596 20.094 3.35854 20.3579 3.65799 20.5426C3.95743 20.7273 4.30211 20.8257 4.65394 20.8269H14.0249Z" stroke="#1F3475" stroke-width="1.5" stroke-linecap="round" stroke-linejoin="round"/>
</svg>
